<?xml version="1.0" encoding="utf-8"?>
<!-- Generator: Adobe Illustrator 16.0.0, SVG Export Plug-In . SVG Version: 6.00 Build 0)  -->
<!DOCTYPE svg PUBLIC "-//W3C//DTD SVG 1.1//EN" "http://www.w3.org/Graphics/SVG/1.1/DTD/svg11.dtd">
<svg version="1.1" id="c_1_" xmlns="http://www.w3.org/2000/svg" xmlns:xlink="http://www.w3.org/1999/xlink" x="0px" y="0px"
	 width="290px" height="290px" viewBox="0 0 290 290" enable-background="new 0 0 290 290" xml:space="preserve">
<g>
	<path d="M16.444,166.463h0.186c1.751-3.688,6.176-7.283,12.997-7.283c11.897,0,16.139,8.391,16.139,17.426v27.935H34.701v-22.399
		c0-4.891-0.37-13.004-8.112-13.004c-7.288,0-10.145,5.347-10.145,11.245v24.158H5.381v-69.702c0-5.636,11.063-5.636,11.063,0
		V166.463z"/>
	<path d="M135.103,160.285c0-4.93,10.508-4.93,10.508,0v6.638h0.188c3.224-5.347,9.033-7.743,15.209-7.743
		c13.647,0,21.855,10.143,21.855,23.231c0,13.095-8.76,23.235-21.393,23.235c-8.295,0-12.723-3.87-15.027-6.73h-0.278v26.645
		h-11.062V160.285z M158.796,169.137c-8.113,0-12.997,6.361-12.997,13.274c0,6.919,4.884,13.278,12.997,13.278
		c8.114,0,12.999-6.359,12.999-13.278C171.795,175.498,166.91,169.137,158.796,169.137z"/>
	<path d="M200.558,190.897c3.971,0,7.38,3.044,7.38,7.005c0,3.964-3.316,7.19-7.38,7.19c-3.868,0-7.374-3.041-7.374-7.003
		C193.184,194.123,196.509,190.897,200.558,190.897z"/>
	<path d="M226.098,138.619c4.059,0,7.192,2.855,7.192,6.641c0,3.781-3.134,6.637-7.192,6.637c-4.055,0-7.004-3.14-7.004-6.637
		C219.094,141.754,222.043,138.619,226.098,138.619z M220.661,160.285c0-4.93,11.061-4.93,11.061,0v44.255h-11.061V160.285z"/>
	<path d="M244.443,160.285c0-4.93,10.512-4.93,10.512,0v7.102h0.185c2.03-4.426,6.178-8.207,13.558-8.207
		c11.89,0,16.131,8.391,16.131,17.426v27.935h-11.062v-22.399c0-4.891-0.37-13.004-8.115-13.004
		c-7.278,0-10.142,5.347-10.142,11.245v24.158h-11.065V160.285z"/>
	<path d="M89.583,131.275c22.259-0.399,37.968,14.5,37.968,37.365c0,22.252-15.709,37.159-37.968,37.561
		c-21.95,0-37.662-14.903-37.662-37.16C51.92,146.182,67.633,131.275,89.583,131.275z M89.686,194.72
		c14.803,0,24.572-11.276,24.572-26.487c0-14.197-9.769-25.478-24.572-25.478c-14.702,0-24.47,11.28-24.47,25.478
		C65.215,183.443,74.983,194.72,89.686,194.72z"/>
	<path d="M126.491,96.709c1.054-2.437,2.075-5.281,2.967-8.359c2.871-9.899,3.324-18.465,1.011-19.141
		c-2.318-0.669-6.516,6.813-9.393,16.71c-0.494,1.708-0.916,3.374-1.265,4.969c-0.1-1.402-0.241-2.854-0.423-4.339
		c-1.371-11.182-4.602-19.989-7.218-19.667c-2.612,0.319-3.624,9.647-2.249,20.833c0.374,3.042,0.887,5.906,1.486,8.458
		c-2.599,0.812-4.706,2.16-6.077,3.943c-4.987-2.082-10.364-3.206-15.985-3.206c-9.969,0.035-20.178,3.543-29.201,10.829
		c0,0-1.33-7.025-6.694-1.625c-3.038,3.223-3.797,7.576,0.842,7.502c0,0-9.463,14.878-11.189,30.489
		c-0.996,7.333,3.895,6.382,6.077,2.029c10.044-18.014,27.233-23.911,39.672-24.095c0.007,0,0.837-0.004,0.837-0.004
		s28.127-1.313,42.011,27.478c1.393,3.275,5.336,3.169,4.738-1.012c-0.873-10.479-3.837-19.879-8.354-27.695
		c6.142-0.378,11.011-3.092,12.279-7.46C142.172,107.115,136.003,99.815,126.491,96.709z"/>
</g>
</svg>
