<?xml version="1.0" encoding="utf-8"?>
<!-- Generator: Adobe Illustrator 16.0.0, SVG Export Plug-In . SVG Version: 6.00 Build 0)  -->
<!DOCTYPE svg PUBLIC "-//W3C//DTD SVG 1.1 Tiny//EN" "http://www.w3.org/Graphics/SVG/1.1/DTD/svg11-tiny.dtd">
<svg version="1.1" baseProfile="tiny" id="alex_cican_1_"
	 xmlns="http://www.w3.org/2000/svg" xmlns:xlink="http://www.w3.org/1999/xlink" x="0px" y="0px" width="1056px" height="596px"
	 viewBox="0 0 1056 596" xml:space="preserve">
<g id="alex_cican">
	<path fill="#333333" d="M493.84,120.469v0.586l0.293-0.293L493.84,120.469z M528.41,117.246l4.98-0.293l14.062-27.832h-14.941
		l-14.062,28.125H528.41z M502.043,135.703l1.758,3.223h53.32l7.617-15.527h-56.543l16.992-33.984l-7.91-15.234l-23.145,46.582
		l7.91,15.234V135.703z M539.543,216.562l-7.91-14.941h-18.75l7.91,15.527h18.75V216.562z M543.645,210.703l-0.586-0.586
		l-0.293,0.586H543.645z M570.305,126.621h-0.879l0.293,0.879L570.305,126.621z M528.996,195.176l24.902-49.805h-49.512
		l-7.91,15.527h33.984l-17.578,34.277H528.996z M529.289,82.676h18.164l-7.91-15.527h-18.75v0.586l8.496,16.113V82.676z
		 M543.059,210.117l33.984-67.969l-7.324-14.648l-33.984,68.262L543.059,210.117z M490.617,159.141h1.172l-0.586-1.172
		L490.617,159.141z M490.617,127.793l-7.324,14.355l7.91,15.82l7.324-14.941L490.617,127.793z M490.324,126.914l0.293,0.879
		l0.293-0.879H490.324z M438.204,262.467c1.377-1.084,2.065-2.578,2.065-4.482c0-0.967-0.171-1.807-0.513-2.52
		s-0.879-1.353-1.611-1.919s-1.885-1.177-3.457-1.831c-1.396-0.576-2.363-1.04-2.9-1.392s-0.923-0.725-1.157-1.12
		s-0.352-0.872-0.352-1.429c0-0.811,0.293-1.462,0.879-1.955s1.445-0.74,2.578-0.74c1.494,0,3.193,0.4,5.098,1.201l1.113-2.856
		c-2.031-0.898-4.072-1.348-6.123-1.348c-2.139,0-3.843,0.513-5.112,1.538s-1.904,2.432-1.904,4.219c0,1.426,0.4,2.646,1.201,3.662
		s2.178,1.919,4.131,2.71c1.895,0.762,3.145,1.421,3.75,1.978s0.908,1.235,0.908,2.036c0,0.889-0.329,1.597-0.988,2.124
		s-1.683,0.791-3.069,0.791c-0.947,0-1.971-0.132-3.068-0.396c-1.1-0.264-2.137-0.625-3.113-1.084v3.311
		c1.543,0.752,3.525,1.128,5.947,1.128S436.827,263.551,438.204,262.467z M447.422,242.384h-3.501V263.8h3.501V242.384z
		 M462.032,245.079c0.889,0,1.735,0.13,2.542,0.389c0.805,0.259,1.569,0.559,2.292,0.9l1.26-2.915
		c-1.855-0.918-3.877-1.377-6.064-1.377c-2.08,0-3.892,0.444-5.435,1.333s-2.723,2.168-3.537,3.838
		c-0.816,1.67-1.224,3.618-1.224,5.845c0,3.535,0.84,6.253,2.52,8.152s4.087,2.849,7.222,2.849c2.129,0,4.033-0.317,5.713-0.952
		v-3.003c-0.918,0.283-1.802,0.516-2.651,0.696s-1.729,0.271-2.637,0.271c-2.1,0-3.704-0.674-4.812-2.021
		c-1.109-1.348-1.663-3.335-1.663-5.962c0-2.51,0.576-4.478,1.729-5.903S460.021,245.079,462.032,245.079z M477.106,242.296
		l-8.013,21.504h3.691l2.095-5.947h8.188l2.139,5.947h3.721l-8.013-21.504H477.106z M475.905,254.835l1.934-5.581
		c0.508-1.426,0.894-2.739,1.157-3.94c0.098,0.391,0.275,1.006,0.535,1.846c0.258,0.84,0.461,1.455,0.607,1.846l2.007,5.83H475.905z
		 M505.471,263.8h4.292v-21.416h-3.208v11.221c0,0.791,0.029,1.893,0.088,3.304s0.098,2.229,0.117,2.453h-0.088l-10.503-16.978
		h-4.248V263.8h3.179v-11.133c0-1.504-0.068-3.164-0.205-4.98l-0.073-0.952h0.117L505.471,263.8z M522.809,260.343
		c-0.658,0.527-1.682,0.791-3.068,0.791c-0.947,0-1.971-0.132-3.068-0.396c-1.1-0.264-2.137-0.625-3.113-1.084v3.311
		c1.543,0.752,3.525,1.128,5.947,1.128s4.321-0.542,5.698-1.626s2.065-2.578,2.065-4.482c0-0.967-0.171-1.807-0.513-2.52
		s-0.879-1.353-1.611-1.919s-1.885-1.177-3.457-1.831c-1.396-0.576-2.363-1.04-2.9-1.392s-0.923-0.725-1.157-1.12
		s-0.352-0.872-0.352-1.429c0-0.811,0.293-1.462,0.879-1.955s1.445-0.74,2.578-0.74c1.494,0,3.193,0.4,5.098,1.201l1.113-2.856
		c-2.031-0.898-4.072-1.348-6.123-1.348c-2.139,0-3.843,0.513-5.112,1.538s-1.904,2.432-1.904,4.219c0,1.426,0.4,2.646,1.201,3.662
		s2.178,1.919,4.131,2.71c1.895,0.762,3.145,1.421,3.75,1.978s0.908,1.235,0.908,2.036
		C523.798,259.107,523.469,259.815,522.809,260.343z M538.318,263.8v-18.413h6.299v-3.003h-16.099v3.003h6.299V263.8H538.318z
		 M547.73,242.384v13.799c0,2.461,0.737,4.395,2.212,5.801s3.54,2.109,6.196,2.109c1.787,0,3.322-0.319,4.607-0.959
		c1.283-0.64,2.265-1.553,2.944-2.739c0.678-1.187,1.018-2.571,1.018-4.153v-13.857h-3.501v13.521c0,3.467-1.65,5.2-4.951,5.2
		c-1.699,0-2.959-0.42-3.779-1.26s-1.23-2.144-1.23-3.911v-13.55H547.73z M569.921,242.384V263.8h5.991
		c3.691,0,6.519-0.935,8.481-2.805s2.944-4.573,2.944-8.108c0-3.33-0.947-5.913-2.842-7.749s-4.546-2.754-7.954-2.754H569.921z
		 M583.646,253.004c0,5.234-2.578,7.852-7.734,7.852h-2.49v-15.542h3.032C581.249,245.313,583.646,247.877,583.646,253.004z
		 M595.422,242.384h-3.501V263.8h3.501V242.384z M617.327,244.933c-1.738-1.924-4.199-2.886-7.383-2.886
		c-3.232,0-5.72,0.947-7.463,2.842s-2.615,4.609-2.615,8.145s0.866,6.263,2.601,8.182c1.732,1.919,4.216,2.878,7.448,2.878
		c3.193,0,5.661-0.967,7.405-2.9c1.742-1.934,2.614-4.644,2.614-8.13C619.935,249.566,619.065,246.856,617.327,244.933z
		 M614.625,259.083c-1.061,1.348-2.63,2.021-4.71,2.021c-2.09,0-3.667-0.681-4.731-2.043s-1.597-3.362-1.597-5.999
		c0-2.627,0.534-4.619,1.604-5.977c1.068-1.357,2.653-2.036,4.753-2.036c2.08,0,3.645,0.679,4.694,2.036s1.575,3.35,1.575,5.977
		C616.214,255.729,615.684,257.735,614.625,259.083z M635.204,262.467c1.377-1.084,2.065-2.578,2.065-4.482
		c0-0.967-0.171-1.807-0.513-2.52s-0.879-1.353-1.611-1.919s-1.885-1.177-3.457-1.831c-1.396-0.576-2.363-1.04-2.9-1.392
		s-0.923-0.725-1.157-1.12s-0.352-0.872-0.352-1.429c0-0.811,0.293-1.462,0.879-1.955s1.445-0.74,2.578-0.74
		c1.494,0,3.193,0.4,5.098,1.201l1.113-2.856c-2.031-0.898-4.072-1.348-6.123-1.348c-2.139,0-3.843,0.513-5.112,1.538
		s-1.904,2.432-1.904,4.219c0,1.426,0.4,2.646,1.201,3.662s2.178,1.919,4.131,2.71c1.895,0.762,3.145,1.421,3.75,1.978
		s0.908,1.235,0.908,2.036c0,0.889-0.329,1.597-0.989,2.124c-0.658,0.527-1.682,0.791-3.068,0.791c-0.947,0-1.971-0.132-3.068-0.396
		c-1.1-0.264-2.137-0.625-3.113-1.084v3.311c1.543,0.752,3.525,1.128,5.947,1.128S633.827,263.551,635.204,262.467z
		 M135.271,420.265c-4.14-4.981-9.545-8.661-16.215-11.04c-6.67-2.376-14.835-3.565-24.495-3.565c-9.354,0-18.515,1.61-27.485,4.83
		c-8.97,3.22-16.83,8.05-23.575,14.49l19.09,20.47c3.525-3.22,7.78-5.979,12.765-8.28c4.981-2.3,10.156-3.45,15.525-3.45
		c5.826,0,10.731,1.345,14.72,4.025c3.985,2.685,5.98,6.864,5.98,12.535v1.84c-8.28,0-16.79,0.46-25.53,1.38
		c-8.74,0.92-16.675,2.76-23.805,5.521c-7.13,2.76-12.959,6.67-17.48,11.729c-4.524,5.061-6.785,11.73-6.785,20.011
		c0,6.748,1.301,12.42,3.91,17.02c2.606,4.6,5.941,8.28,10.005,11.04c4.061,2.76,8.546,4.755,13.455,5.979
		c4.905,1.226,9.66,1.841,14.26,1.841c6.9,0,13.3-1.305,19.205-3.91c5.901-2.605,10.311-6.286,13.225-11.04h0.69v12.189h34.5
		v-57.729c0-10.426-0.959-19.436-2.875-27.025C142.438,431.534,139.411,425.249,135.271,420.265z M112.731,477.879
		c0,7.209-2.034,12.92-6.095,17.136c-4.064,4.219-9.929,6.324-17.595,6.324c-1.84,0-3.759-0.19-5.75-0.574
		c-1.995-0.381-3.759-1.035-5.29-1.955c-1.535-0.92-2.8-2.146-3.795-3.681c-0.999-1.53-1.495-3.37-1.495-5.52
		c0-3.371,1.071-6.095,3.22-8.165c2.146-2.07,4.866-3.641,8.165-4.715c3.295-1.071,7.051-1.801,11.27-2.186
		c4.216-0.381,8.395-0.575,12.535-0.575h4.83V477.879z M164.25,523.879h38.41v-173.88h-38.41V523.879z M303.857,486.619
		c-2.609,3.529-5.98,6.404-10.12,8.625c-4.14,2.225-9.2,3.335-15.18,3.335c-3.375,0-6.634-0.535-9.775-1.61
		c-3.145-1.07-5.98-2.565-8.51-4.484c-2.53-1.916-4.6-4.176-6.21-6.785c-1.61-2.605-2.569-5.52-2.875-8.74h83.03
		c0.15-1.38,0.229-2.835,0.229-4.37v-4.6c0-9.811-1.419-18.551-4.255-26.22c-2.839-7.666-6.785-14.182-11.845-19.551
		c-5.061-5.365-11.119-9.466-18.17-12.305c-7.054-2.835-14.799-4.255-23.23-4.255c-8.74,0-16.869,1.459-24.38,4.37
		c-7.515,2.914-14.03,7.015-19.55,12.305s-9.89,11.73-13.11,19.32c-3.22,7.59-4.83,16.064-4.83,25.415
		c0,9.66,1.646,18.249,4.945,25.76c3.295,7.515,7.82,13.84,13.57,18.976c5.75,5.139,12.456,9.049,20.125,11.729
		c7.666,2.681,15.791,4.025,24.38,4.025c11.651,0,21.886-2.11,30.705-6.325c8.815-4.216,15.905-10.235,21.274-18.055
		L303.857,486.619z M253.487,445.104c1.38-2.681,3.22-5.021,5.52-7.016c2.3-1.99,4.981-3.564,8.05-4.715
		c3.065-1.149,6.44-1.725,10.12-1.725c7.511,0,13.146,2.149,16.905,6.439c3.755,4.295,5.635,9.431,5.635,15.41h-48.53
		C251.338,450.588,252.107,447.789,253.487,445.104z M459.799,409.339h-42.55l-21.62,30.591l-21.391-30.591h-43.93l41.4,54.511
		l-45.771,60.029h43.7l25.3-35.189l24.61,35.189h44.39l-45.31-60.029L459.799,409.339z M552.487,446.024
		c2.3-2.681,5.06-4.83,8.28-6.44c3.22-1.609,6.82-2.415,10.81-2.415c3.831,0,7.59,0.845,11.271,2.53
		c3.68,1.689,6.591,3.91,8.739,6.67l21.851-25.3c-2.3-2.3-5.024-4.406-8.165-6.325c-3.145-1.915-6.595-3.525-10.351-4.83
		c-3.759-1.301-7.669-2.336-11.729-3.104c-4.064-0.766-8.165-1.15-12.305-1.15c-8.895,0-17.265,1.42-25.106,4.255
		c-7.842,2.839-14.655,6.9-20.438,12.19c-5.786,5.29-10.336,11.694-13.652,19.205c-3.317,7.515-4.974,15.948-4.974,25.3
		c0,9.509,1.656,18.019,4.974,25.53c3.316,7.514,7.866,13.915,13.652,19.205c5.782,5.29,12.596,9.314,20.438,12.074
		c7.842,2.761,16.287,4.141,25.336,4.141c8.431,0,16.405-1.305,23.92-3.91c7.511-2.605,13.646-6.21,18.4-10.811l-20.93-25.529
		c-2.301,2.76-5.33,4.869-9.086,6.324c-3.759,1.46-7.554,2.186-11.385,2.186c-4.14,0-7.859-0.766-11.154-2.3
		c-3.3-1.531-6.135-3.641-8.511-6.325c-2.379-2.681-4.18-5.786-5.405-9.315c-1.229-3.525-1.84-7.28-1.84-11.27
		c0-3.985,0.65-7.741,1.955-11.271C548.383,451.813,550.188,448.709,552.487,446.024z M655.87,358.049
		c-1.919-1.84-4.219-3.295-6.9-4.369c-2.685-1.071-5.483-1.61-8.395-1.61c-3.069,0-5.904,0.575-8.51,1.725
		c-2.609,1.15-4.909,2.646-6.9,4.485c-1.994,1.84-3.529,4.025-4.6,6.555c-1.075,2.53-1.61,5.175-1.61,7.936
		c0,5.674,2.07,10.544,6.21,14.604c4.14,4.064,9.275,6.095,15.41,6.095c2.911,0,5.71-0.535,8.395-1.609
		c2.682-1.071,4.981-2.53,6.9-4.37c1.916-1.84,3.45-4.025,4.6-6.555c1.15-2.53,1.726-5.251,1.726-8.165
		c0-2.911-0.575-5.636-1.726-8.165C659.32,362.074,657.786,359.89,655.87,358.049z M621.715,523.879h37.721v-114.54h-37.721V523.879
		z M715.553,446.024c2.3-2.681,5.061-4.83,8.28-6.44c3.22-1.609,6.821-2.415,10.81-2.415c3.831,0,7.59,0.845,11.271,2.53
		c3.68,1.689,6.591,3.91,8.74,6.67l21.85-25.3c-2.3-2.3-5.024-4.406-8.165-6.325c-3.145-1.915-6.595-3.525-10.35-4.83
		c-3.76-1.301-7.67-2.336-11.73-3.104c-4.064-0.766-8.165-1.15-12.305-1.15c-8.895,0-17.265,1.42-25.106,4.255
		c-7.841,2.839-14.655,6.9-20.438,12.19c-5.786,5.29-10.336,11.694-13.652,19.205c-3.317,7.515-4.974,15.948-4.974,25.3
		c0,9.509,1.656,18.019,4.974,25.53c3.316,7.514,7.866,13.915,13.652,19.205c5.782,5.29,12.597,9.314,20.438,12.074
		c7.842,2.761,16.287,4.141,25.336,4.141c8.431,0,16.405-1.305,23.92-3.91c7.512-2.605,13.646-6.21,18.4-10.811l-20.93-25.529
		c-2.301,2.76-5.33,4.869-9.085,6.324c-3.76,1.46-7.555,2.186-11.386,2.186c-4.14,0-7.859-0.766-11.154-2.3
		c-3.3-1.531-6.135-3.641-8.511-6.325c-2.379-2.681-4.18-5.786-5.404-9.315c-1.229-3.525-1.841-7.28-1.841-11.27
		c0-3.985,0.651-7.741,1.955-11.271C711.449,451.813,713.253,448.709,715.553,446.024z M876.631,420.265
		c-4.141-4.981-9.545-8.661-16.215-11.04c-6.67-2.376-14.835-3.565-24.495-3.565c-9.354,0-18.515,1.61-27.485,4.83
		c-8.97,3.22-16.829,8.05-23.575,14.49l19.091,20.47c3.525-3.22,7.78-5.979,12.765-8.28c4.98-2.3,10.155-3.45,15.524-3.45
		c5.826,0,10.731,1.345,14.721,4.025c3.985,2.685,5.979,6.864,5.979,12.535v1.84c-8.279,0-16.79,0.46-25.53,1.38
		c-8.739,0.92-16.675,2.76-23.805,5.521c-7.13,2.76-12.959,6.67-17.479,11.729c-4.524,5.061-7.785,11.73-7.785,20.011
		c0,6.748,2.301,12.42,4.91,17.02c2.605,4.6,5.94,8.28,10.005,11.04c4.061,2.76,8.546,4.755,13.455,5.979
		c4.905,1.226,9.66,1.841,14.26,1.841c6.9,0,13.301-1.305,19.205-3.91c5.9-2.605,10.311-6.286,13.225-11.04h0.69v12.189h34.5
		v-57.729c0-10.426-0.96-19.436-2.875-27.025C883.797,431.534,880.771,425.249,876.631,420.265z M854.091,477.879
		c0,7.209-2.034,12.92-6.095,17.136c-4.064,4.219-9.93,6.324-17.596,6.324c-1.84,0-3.759-0.19-5.75-0.574
		c-1.994-0.381-3.759-1.035-5.29-1.955c-1.534-0.92-2.799-2.146-3.795-3.681c-0.999-1.53-1.495-3.37-1.495-5.52
		c0-3.371,1.071-6.095,3.221-8.165c2.146-2.07,4.865-3.641,8.165-4.715c3.295-1.071,7.051-1.801,11.27-2.186
		c4.216-0.381,8.396-0.575,12.535-0.575h4.83V477.879z M1016.124,436.02c-1.459-5.671-3.834-10.695-7.13-15.065
		c-3.299-4.37-7.629-7.935-12.995-10.695c-5.369-2.76-11.884-4.14-19.55-4.14c-3.989,0-7.744,0.539-11.27,1.61
		c-3.529,1.074-6.785,2.454-9.775,4.14c-2.99,1.689-5.599,3.72-7.82,6.095c-2.225,2.38-4.024,4.794-5.404,7.245h-0.46v-15.87h-36.57
		v114.54h37.95v-62.1c0-3.22,0.42-6.325,1.265-9.315c0.841-2.989,2.106-5.635,3.795-7.935c1.686-2.3,3.795-4.101,6.325-5.405
		c2.53-1.301,5.48-1.955,8.855-1.955c3.37,0,6.17,0.654,8.395,1.955c2.221,1.305,3.946,3.069,5.175,5.29
		c1.226,2.225,2.106,4.794,2.646,7.705c0.535,2.915,0.805,5.98,0.805,9.2v62.56h37.95v-70.84
		C1018.31,447.368,1017.58,441.693,1016.124,436.02z"/>
</g>
</svg>
