<?xml version="1.0" encoding="utf-8"?>
<!-- Generator: Adobe Illustrator 16.0.0, SVG Export Plug-In . SVG Version: 6.00 Build 0)  -->
<!DOCTYPE svg PUBLIC "-//W3C//DTD SVG 1.1//EN" "http://www.w3.org/Graphics/SVG/1.1/DTD/svg11.dtd">
<svg version="1.1" id="lab_1_" xmlns="http://www.w3.org/2000/svg" xmlns:xlink="http://www.w3.org/1999/xlink" x="0px" y="0px"
	 width="290px" height="290px" viewBox="0 0 290 290" enable-background="new 0 0 290 290" xml:space="preserve">
<g id="lab">
	<g>
		<path d="M147.996,53.093c-0.729,0.728-1.09,1.634-1.09,2.723c0,1.09,0.361,2,1.09,2.724c0.723,0.728,1.633,1.089,2.723,1.089
			s1.996-0.361,2.723-1.089c0.725-0.724,1.09-1.634,1.09-2.724c0-1.089-0.365-1.995-1.09-2.723c-0.727-0.724-1.633-1.09-2.723-1.09
			S148.719,52.369,147.996,53.093z M135.469,55.815c1.089,0,1.996-0.361,2.723-1.089c0.724-0.724,1.089-1.634,1.089-2.724
			c0-1.089-0.366-1.995-1.089-2.723c-0.728-0.724-1.634-1.09-2.723-1.09s-2,0.366-2.723,1.09c-0.728,0.728-1.089,1.634-1.089,2.723
			c0,1.09,0.362,2,1.089,2.724C133.469,55.454,134.379,55.815,135.469,55.815z M150.582,46.284c1.541,0,2.902-0.544,4.086-1.634
			c1.178-1.089,1.77-2.45,1.77-4.085c0-1.634-0.592-2.995-1.77-4.084c-1.184-1.09-2.545-1.635-4.086-1.635
			c-1.544,0-2.859,0.545-3.948,1.635c-1.089,1.089-1.634,2.45-1.634,4.084c0,1.635,0.545,2.996,1.634,4.085
			C147.723,45.74,149.038,46.284,150.582,46.284z M157.799,118.994c-0.545,0.545-1.225,1.184-2.042,1.906
			c-0.817,0.728-2.498,1.184-5.038,1.362c-2.545,0.183-4.996-0.906-7.353-3.269c-2.362-2.357-4.676-3.493-6.944-3.403
			c-2.272,0.093-3.949,0.591-5.038,1.497c-1.089,0.911-1.634,1.545-1.634,1.906l-19.062,37.309
			c-0.183,0.906-0.047,1.812,0.409,2.723c0.451,0.906,1.225,1.541,2.314,1.906h62.906c1.09-0.365,1.859-1,2.315-1.906
			c0.45-0.91,0.587-1.816,0.408-2.723L157.799,118.994z M186.665,154.396l-30.5-51.196V72.972h2.179
			c1.634,0,2.996-0.544,4.085-1.634c1.089-1.089,1.634-2.45,1.634-4.085c0-1.634-0.545-2.995-1.634-4.084
			c-1.089-1.09-2.451-1.635-4.085-1.635h-30.5c-1.634,0-2.996,0.545-4.085,1.635c-1.089,1.089-1.634,2.45-1.634,4.084
			c0,1.635,0.544,2.996,1.634,4.085c1.089,1.09,2.451,1.634,4.085,1.634h1.906v29.956l-26.415,51.469
			c-0.911,2.901-0.545,5.761,1.089,8.578c1.634,2.812,3.991,4.582,7.08,5.31h66.992c3.084-0.728,5.445-2.497,7.08-5.31
			C187.21,160.157,187.571,157.298,186.665,154.396z M182.172,160.932c-1,1.812-2.498,2.996-4.493,3.54h-65.357
			c-2-0.544-3.54-1.728-4.629-3.54c-1.089-1.816-1.361-3.812-0.817-5.991l26.688-51.74V69.159h-5.719
			c-1.272,0-1.906-0.634-1.906-1.906c0-1.268,0.634-1.906,1.906-1.906h30.5c1.268,0,1.906,0.639,1.906,1.906
			c0,1.272-0.639,1.906-1.906,1.906h-5.719v33.769l30.228,52.285C183.397,157.209,183.168,159.115,182.172,160.932z
			 M114.371,236.479h5.508v-36.469h-5.508V236.479z M145.391,212.245c-1.68-1.438-4.168-2.156-7.465-2.156
			c-1.484,0-3.062,0.191-4.734,0.574c-1.672,0.384-3.211,0.941-4.617,1.676l1.781,3.938c1.125-0.53,2.297-0.992,3.516-1.383
			c1.219-0.39,2.492-0.586,3.82-0.586c1.625,0,2.824,0.41,3.598,1.23s1.16,2.06,1.16,3.715v1.383l-4.477,0.141
			c-4.062,0.126-7.086,0.867-9.07,2.227s-2.977,3.375-2.977,6.047c0,2.517,0.715,4.462,2.145,5.836
			c1.43,1.375,3.418,2.062,5.965,2.062c1.984,0,3.609-0.285,4.875-0.855s2.523-1.644,3.773-3.223h0.188l1.102,3.609h3.938v-17.461
			C147.91,215.94,147.07,213.684,145.391,212.245z M142.402,226.354c0,2.016-0.605,3.583-1.816,4.699
			c-1.211,1.117-2.816,1.676-4.816,1.676c-1.375,0-2.406-0.316-3.094-0.949s-1.031-1.526-1.031-2.684c0-1.594,0.59-2.777,1.77-3.551
			s3.066-1.207,5.66-1.301l3.328-0.141V226.354z M168.84,210.089c-3.406,0-5.984,1.289-7.734,3.867h-0.234
			c0.031-0.343,0.078-1.148,0.141-2.414s0.094-2.218,0.094-2.859v-8.672h-5.508v36.469h4.125l1.008-3.07h0.375
			c1.812,2.359,4.359,3.539,7.641,3.539c3.25,0,5.789-1.184,7.617-3.551s2.742-5.675,2.742-9.926c0-4.233-0.902-7.523-2.707-9.867
			S172.074,210.089,168.84,210.089z M171.945,230.128c-1.008,1.547-2.488,2.32-4.441,2.32c-2.266,0-3.898-0.706-4.898-2.121
			c-1-1.414-1.5-3.699-1.5-6.855v-0.375c0.031-3.062,0.535-5.246,1.512-6.551c0.977-1.304,2.574-1.957,4.793-1.957
			c4.031,0,6.047,2.945,6.047,8.836C173.457,226.347,172.953,228.581,171.945,230.128z"/>
	</g>
</g>
</svg>
