<?xml version="1.0" encoding="UTF-8" standalone="no"?>
<svg width="220px" height="220px" viewBox="0 0 220 220" version="1.1" xmlns="http://www.w3.org/2000/svg" xmlns:xlink="http://www.w3.org/1999/xlink" xmlns:sketch="http://www.bohemiancoding.com/sketch/ns">
    <title>Slice 1</title>
    <description>Created with Sketch (http://www.bohemiancoding.com/sketch)</description>
    <defs></defs>
    <g id="Page-1" stroke="none" stroke-width="1" fill="none" fill-rule="evenodd" sketch:type="MSPage">
        <g id="logo" sketch:type="MSLayerGroup" transform="translate(28.000000, 39.000000)" fill="#000000">
            <g id="mailer_1_" sketch:type="MSShapeGroup">
                <g id="mailer">
                    <path d="M90.259,71.068 L90.805,72.159 L90.259,71.068 C90.26,71.067 90.26,71.067 90.259,71.068 C90.259,71.068 90.26,71.067 90.259,71.068 L90.259,71.068 L90.259,71.068 Z M10.016,64.607 C8.742,65.88 7.528,67.125 6.377,68.337 C5.224,69.551 4.344,70.461 3.738,71.066 L4.284,72.158 C4.951,71.429 5.8,70.536 6.831,69.473 C7.862,68.412 8.954,67.335 10.106,66.244 C10.13,66.221 10.153,66.2 10.177,66.176 C10.213,65.549 10.267,64.927 10.32,64.305 C10.218,64.408 10.118,64.505 10.016,64.607 C10.016,64.607 10.118,64.505 10.016,64.607 L10.016,64.607 L10.016,64.607 Z M139.114,75.435 C142.207,72.584 144.769,70.339 146.802,68.702 C147.739,67.947 148.599,67.279 149.401,66.679 C149.328,65.204 149.195,63.746 149.031,62.297 C147.515,64.734 145.998,66.954 144.482,68.93 C142.783,71.144 140.994,73.312 139.114,75.435 C139.114,75.435 140.994,73.312 139.114,75.435 L139.114,75.435 L139.114,75.435 Z M43.042,71.068 L43.587,72.159 C43.587,72.159 43.587,72.159 43.587,72.158 L43.042,71.068 L43.042,71.068 L43.042,71.068 L43.042,71.068 Z M72.7,71.068 L73.245,72.159 L73.246,72.158 L72.7,71.068 C72.701,71.067 72.701,71.068 72.7,71.068 L72.7,71.068 L72.7,71.068 L72.7,71.068 Z M64.467,63.288 C64.8,62.53 64.695,61.818 64.149,61.15 C63.542,60.421 62.602,60.377 61.328,61.013 C60.055,61.65 58.69,62.682 57.234,64.107 C55.778,65.533 54.353,67.155 52.958,68.974 C51.562,70.793 50.411,72.522 49.5,74.16 C48.59,75.798 48.029,77.148 47.817,78.209 C47.604,79.271 48.013,79.741 49.046,79.619 C50.502,79.437 51.866,78.891 53.14,77.981 C54.413,77.072 55.642,75.95 56.825,74.615 C58.008,73.282 59.159,71.826 60.283,70.248 C61.405,68.672 62.542,67.155 63.695,65.699 C63.876,64.851 64.133,64.047 64.467,63.288 C64.467,63.288 64.133,64.047 64.467,63.288 L64.467,63.288 L64.467,63.288 Z M10.066,69.723 C9.715,70.186 9.373,70.654 9.014,71.113 C7.618,72.903 6.239,74.616 4.874,76.254 C3.509,77.892 2.281,79.317 1.189,80.53 C0.765,81.016 0.584,81.394 0.643,81.667 C0.704,81.94 0.886,82.168 1.189,82.35 C1.493,82.532 1.841,82.637 2.235,82.668 C2.63,82.698 2.948,82.652 3.19,82.531 C4.646,81.985 6.161,81.046 7.739,79.711 C8.643,78.946 9.53,78.115 10.405,77.23 C10.174,74.918 10.052,72.575 10.052,70.202 C10.054,70.04 10.065,69.882 10.066,69.723 C10.066,69.723 10.065,69.882 10.066,69.723 L10.066,69.723 L10.066,69.723 Z M135.475,81.257 C135.05,81.743 134.398,82.09 133.52,82.304 C132.639,82.515 131.823,82.607 131.063,82.576 C130.305,82.545 129.729,82.363 129.334,82.03 C128.939,81.697 129.016,81.197 129.562,80.529 C130.653,79.256 131.866,77.8 133.202,76.162 C134.535,74.524 135.886,72.827 137.25,71.067 C138.614,69.308 139.935,67.505 141.208,65.653 C142.481,63.803 143.603,62.059 144.574,60.422 C143.665,61.151 142.647,62.046 141.526,63.107 C140.403,64.169 139.282,65.245 138.16,66.336 C137.037,67.428 135.961,68.489 134.931,69.521 C133.898,70.553 133.051,71.431 132.384,72.159 L132.384,72.16 C129.593,75.071 126.954,77.315 124.468,78.892 C121.981,80.47 119.738,81.485 117.736,81.94 C115.734,82.395 114.051,82.364 112.687,81.849 C111.322,81.334 110.335,80.439 109.73,79.164 C109.062,77.769 108.912,76.147 109.275,74.297 C109.638,72.447 110.396,70.582 111.549,68.701 C111.063,69.065 110.532,69.536 109.956,70.111 C109.38,70.688 108.728,71.371 108.001,72.159 C104.847,75.98 102.133,78.664 99.858,80.211 C97.583,81.758 95.778,82.561 94.444,82.622 C93.11,82.682 92.245,82.181 91.852,81.12 C91.456,80.059 91.592,78.77 92.26,77.254 C93.231,74.949 94.246,72.659 95.309,70.385 C96.37,68.111 97.477,65.822 98.629,63.516 C97.415,64.912 96.096,66.398 94.672,67.974 C93.246,69.552 91.956,70.947 90.805,72.16 C89.168,73.92 87.712,75.435 86.438,76.709 C85.165,77.982 83.997,79.045 82.936,79.894 C81.874,80.744 80.873,81.38 79.934,81.804 C78.993,82.228 78.038,82.471 77.068,82.532 C74.762,82.653 73.429,82.032 73.065,80.668 C72.701,79.303 73.065,77.56 74.157,75.437 C74.642,74.527 75.279,73.466 76.068,72.252 C76.856,71.039 77.69,69.795 78.57,68.522 C79.448,67.249 80.313,66.02 81.163,64.837 C82.012,63.654 82.71,62.608 83.256,61.698 C82.104,62.79 81.177,63.699 80.481,64.427 C79.783,65.155 79.116,65.882 78.479,66.611 C77.842,67.339 77.129,68.128 76.341,68.976 C75.552,69.826 74.522,70.886 73.248,72.16 L73.248,72.161 C69.85,75.861 66.97,78.484 64.604,80.03 C62.239,81.577 60.419,82.381 59.145,82.441 C57.872,82.501 57.112,81.941 56.871,80.758 C56.628,79.575 56.931,78.105 57.781,76.345 C56.992,77.134 56.082,77.969 55.052,78.847 C54.02,79.727 52.914,80.485 51.731,81.121 C50.548,81.759 49.335,82.182 48.092,82.395 C46.848,82.607 45.62,82.47 44.407,81.985 C43.497,81.622 42.951,80.955 42.769,79.984 C42.587,79.014 42.694,77.861 43.087,76.527 C43.481,75.193 44.118,73.737 44.998,72.16 C45.876,70.583 46.954,69.036 48.228,67.519 C46.65,68.915 45.104,70.462 43.588,72.159 L43.588,72.16 C42.738,73.191 41.646,74.313 40.313,75.526 C38.978,76.74 37.584,77.877 36.128,78.937 C34.672,79.999 33.276,80.848 31.942,81.485 C30.608,82.122 29.485,82.38 28.576,82.258 C27.726,82.136 27.15,81.803 26.847,81.257 C26.543,80.711 26.634,79.862 27.12,78.71 C27.423,78.043 27.923,77.148 28.621,76.025 C29.318,74.904 30.091,73.705 30.941,72.431 C31.79,71.158 32.684,69.869 33.625,68.565 C34.565,67.261 35.399,66.063 36.127,64.971 C36.794,64.061 37.278,63.273 37.583,62.605 C37.886,61.939 37.947,61.513 37.765,61.332 C37.583,61.15 37.158,61.272 36.492,61.696 C35.824,62.121 34.854,62.969 33.58,64.243 C32.73,65.094 31.638,66.306 30.305,67.883 C28.971,69.461 27.544,71.128 26.029,72.887 C24.512,74.647 23.027,76.36 21.571,78.028 C20.115,79.697 18.901,81.016 17.932,81.985 C17.75,82.168 17.37,82.318 16.794,82.44 C16.217,82.561 15.671,82.591 15.156,82.531 C14.64,82.47 14.231,82.349 13.928,82.168 C13.624,81.985 13.624,81.683 13.928,81.258 C14.533,80.471 15.293,79.454 16.202,78.21 C17.112,76.968 18.081,75.633 19.114,74.207 C20.145,72.782 21.161,71.327 22.162,69.84 C23.162,68.355 24.027,67.02 24.755,65.837 C25.483,64.654 26.029,63.653 26.393,62.834 C26.757,62.016 26.817,61.546 26.575,61.424 C25.907,61.061 25.074,61.274 24.073,62.061 C23.072,62.85 21.949,63.926 20.707,65.291 C19.463,66.655 18.128,68.218 16.704,69.977 C15.278,71.737 13.823,73.465 12.337,75.163 C11.703,75.888 11.059,76.572 10.408,77.23 C13.932,112.433 43.642,139.919 79.774,139.919 C118.279,139.919 149.492,108.705 149.492,70.201 C149.492,69.641 149.463,69.089 149.45,68.532 C147.722,69.688 145.919,71.085 144.029,72.751 C141.722,74.783 138.871,77.618 135.475,81.257 C135.475,81.257 138.871,77.618 135.475,81.257 L135.475,81.257 L135.475,81.257 Z M16.384,60.422 C15.534,61.151 14.564,62.03 13.472,63.061 C12.404,64.071 11.303,65.111 10.177,66.178 C10.111,67.352 10.073,68.534 10.066,69.723 C11.079,68.382 12.071,67.03 13.018,65.654 C14.292,63.804 15.413,62.06 16.384,60.422 C16.384,60.422 15.413,62.06 16.384,60.422 L16.384,60.422 L16.384,60.422 Z M16.657,58.421 C17.262,57.936 17.899,57.692 18.568,57.692 C19.235,57.692 19.796,57.844 20.251,58.147 C20.706,58.452 20.993,58.891 21.115,59.466 C21.236,60.043 21.084,60.695 20.66,61.422 C20.296,62.029 19.947,62.591 19.614,63.106 C19.28,63.622 18.961,64.152 18.658,64.698 C20.355,62.576 22.13,60.832 23.98,59.467 C25.83,58.103 27.877,57.663 30.122,58.148 C30.668,58.27 31,58.603 31.122,59.149 C31.243,59.695 31.182,60.363 30.94,61.151 C30.697,61.94 30.317,62.849 29.803,63.88 C29.287,64.911 28.696,66.003 28.029,67.155 C29.667,65.457 31.228,63.94 32.715,62.605 C34.201,61.272 35.581,60.209 36.855,59.421 C38.129,58.633 39.312,58.178 40.403,58.056 C41.495,57.935 42.465,58.208 43.315,58.875 C43.861,59.3 44.027,59.998 43.815,60.967 C43.602,61.939 43.178,63.015 42.542,64.197 C41.905,65.38 41.116,66.624 40.176,67.926 C39.235,69.232 38.311,70.474 37.401,71.656 C36.491,72.838 35.672,73.901 34.944,74.841 C34.216,75.782 33.761,76.464 33.579,76.888 C33.336,77.434 33.336,77.798 33.579,77.98 C33.821,78.163 34.321,78.057 35.08,77.662 C35.838,77.268 36.868,76.557 38.173,75.524 C39.477,74.493 41.098,73.007 43.04,71.067 L43.04,71.066 C43.768,70.337 44.86,69.277 46.315,67.881 C47.771,66.486 49.393,65.092 51.182,63.695 C52.971,62.3 54.836,61.043 56.778,59.92 C58.718,58.798 60.599,58.116 62.419,57.873 C64.359,57.631 65.785,57.782 66.695,58.328 C67.605,58.874 68.21,59.724 68.514,60.875 C68.817,60.634 69.136,60.406 69.47,60.192 C69.803,59.981 70.152,59.814 70.516,59.692 C70.819,59.571 71.258,59.526 71.835,59.555 C72.411,59.586 72.927,59.677 73.382,59.828 C73.837,59.98 74.17,60.223 74.383,60.556 C74.594,60.89 74.488,61.27 74.064,61.694 C72.608,63.271 71.365,64.546 70.334,65.515 C69.302,66.486 68.347,67.487 67.468,68.517 C66.588,69.549 65.678,70.746 64.739,72.111 C63.798,73.476 62.692,75.34 61.418,77.707 C60.75,78.921 60.629,79.633 61.054,79.845 C61.478,80.058 62.251,79.845 63.374,79.208 C64.496,78.571 65.876,77.556 67.514,76.16 C69.151,74.765 70.88,73.067 72.699,71.066 L72.699,71.065 C74.883,68.76 76.944,66.456 78.886,64.15 C80.826,61.845 82.948,59.692 85.255,57.69 C85.8,57.267 86.588,56.994 87.62,56.872 C88.65,56.751 89.591,56.797 90.44,57.009 C91.289,57.222 91.85,57.6 92.124,58.146 C92.396,58.692 92.047,59.36 91.077,60.148 C89.985,61.18 88.878,62.377 87.757,63.742 C86.634,65.106 85.542,66.562 84.482,68.109 C83.42,69.656 82.389,71.217 81.388,72.795 C80.387,74.373 79.432,75.858 78.522,77.253 C77.794,78.467 77.535,79.3 77.749,79.755 C77.961,80.21 78.598,80.226 79.66,79.8 C80.721,79.377 82.146,78.467 83.935,77.071 C85.724,75.676 87.831,73.675 90.258,71.067 L90.258,71.066 C90.863,70.461 91.653,69.641 92.623,68.609 C93.593,67.579 94.625,66.425 95.717,65.152 C96.809,63.879 97.931,62.513 99.083,61.058 C100.234,59.602 101.357,58.086 102.449,56.508 C104.511,52.687 106.589,49.048 108.681,45.59 C110.774,42.133 112.729,38.994 114.549,36.174 C116.368,33.354 117.961,30.912 119.325,28.85 C120.689,26.788 121.705,25.302 122.373,24.392 C123.222,23.179 124.223,22.406 125.375,22.072 C126.527,21.74 127.514,21.724 128.332,22.027 C129.151,22.331 129.666,22.891 129.879,23.71 C130.091,24.529 129.652,25.516 128.561,26.667 C125.041,30.429 121.887,34.204 119.098,37.994 C116.307,41.786 113.685,45.743 111.229,49.867 C108.772,53.993 106.391,58.345 104.086,62.923 C101.78,67.504 99.356,72.431 96.808,77.708 C96.322,78.74 96.246,79.361 96.58,79.573 C96.912,79.786 97.564,79.604 98.536,79.027 C99.506,78.451 100.75,77.511 102.265,76.206 C103.781,74.903 105.509,73.189 107.451,71.067 L107.451,71.066 C108.18,70.337 108.908,69.595 109.635,68.837 C110.364,68.079 111.151,67.321 112.001,66.563 C112.85,65.805 113.775,65.002 114.775,64.152 C115.776,63.303 116.943,62.393 118.279,61.423 C119.552,60.514 120.901,59.74 122.327,59.103 C123.752,58.466 125.223,58.057 126.74,57.875 C128.862,57.633 130.393,58.103 131.334,59.285 C132.273,60.468 132.229,62.121 131.197,64.243 C130.591,65.517 129.651,66.654 128.377,67.655 C127.104,68.656 125.693,69.551 124.147,70.339 C122.6,71.128 121.039,71.78 119.461,72.295 C117.883,72.812 116.459,73.221 115.186,73.524 C114.518,75.648 114.488,77.209 115.094,78.21 C115.699,79.211 116.791,79.62 118.369,79.439 C119.946,79.257 121.902,78.484 124.238,77.119 C126.572,75.755 129.105,73.738 131.834,71.07 L131.834,71.069 C132.38,70.464 133.244,69.553 134.427,68.34 C135.61,67.127 136.852,65.883 138.157,64.61 C139.461,63.337 140.719,62.124 141.932,60.97 C143.145,59.819 144.084,58.969 144.753,58.423 C145.358,57.938 146.04,57.694 146.8,57.694 C147.401,57.694 147.932,57.794 148.399,57.984 C142.62,25.309 114.104,0.484 79.77,0.484 C43.252,0.484 13.312,28.565 10.318,64.309 C11.484,63.147 12.628,62.03 13.743,60.97 C14.958,59.816 15.929,58.967 16.657,58.421 C16.657,58.421 15.929,58.967 16.657,58.421 L16.657,58.421 L16.657,58.421 Z M93.262,45.046 C93.867,43.713 94.959,42.317 96.537,40.861 C97.142,40.315 97.916,39.966 98.857,39.815 C99.796,39.664 100.615,39.71 101.313,39.951 C102.009,40.194 102.405,40.634 102.496,41.27 C102.588,41.907 102.087,42.711 100.995,43.681 C100.752,43.863 100.389,44.258 99.903,44.864 C99.417,45.471 98.857,46.062 98.22,46.638 C97.583,47.215 96.914,47.67 96.218,48.002 C95.52,48.336 94.867,48.32 94.262,47.957 C92.988,47.353 92.654,46.381 93.262,45.046 C93.262,45.046 92.654,46.381 93.262,45.046 L93.262,45.046 L93.262,45.046 Z M123.193,68.064 C124.224,67.155 125.027,66.124 125.604,64.971 C126.179,63.819 126.377,62.545 126.195,61.15 C126.074,60.421 125.604,60.271 124.785,60.695 C123.967,61.12 122.996,61.893 121.875,63.015 C120.752,64.138 119.629,65.502 118.508,67.109 C117.385,68.716 116.461,70.37 115.733,72.067 C117.067,71.644 118.386,71.098 119.692,70.429 C120.994,69.764 122.162,68.975 123.193,68.064 C123.193,68.064 122.162,68.975 123.193,68.064 L123.193,68.064 L123.193,68.064 Z M107.453,71.068 L108,72.159 L107.453,71.068 C107.454,71.067 107.454,71.067 107.453,71.068 C107.453,71.068 107.454,71.067 107.453,71.068 L107.453,71.068 L107.453,71.068 Z M149.577,61.423 C150.001,60.695 150.107,60.044 149.895,59.467 C149.682,58.892 149.304,58.452 148.757,58.148 C148.644,58.085 148.523,58.033 148.401,57.982 C148.653,59.406 148.868,60.843 149.031,62.296 C149.214,62.004 149.396,61.722 149.577,61.423 C149.577,61.423 149.396,61.722 149.577,61.423 L149.577,61.423 L149.577,61.423 Z M160.495,59.058 C160.07,58.573 159.478,58.346 158.721,58.375 C157.962,58.406 157.083,58.784 156.082,59.513 C155.082,60.241 154.004,61.485 152.853,63.242 C152.67,63.547 152.503,63.834 152.352,64.107 C152.201,64.379 152.064,64.638 151.944,64.879 C151.191,65.37 150.339,65.975 149.402,66.677 C149.432,67.291 149.434,67.912 149.449,68.531 C149.828,68.277 150.208,68.021 150.579,67.792 C149.85,69.793 149.683,71.386 150.079,72.568 C150.472,73.751 151.184,74.509 152.217,74.842 C153.247,75.176 154.431,75.114 155.765,74.66 C157.099,74.205 158.372,73.372 159.586,72.158 L159.04,71.066 C157.706,72.339 156.493,73.158 155.401,73.522 C154.309,73.886 153.49,73.827 152.944,73.34 C152.398,72.855 152.201,71.975 152.352,70.701 C152.503,69.427 153.125,67.821 154.217,65.879 C155.309,65.455 156.492,65.001 157.766,64.515 C158.917,64.151 159.752,63.62 160.268,62.922 C160.783,62.226 161.055,61.527 161.086,60.83 C161.116,60.135 160.918,59.544 160.495,59.058 C160.495,59.058 160.918,59.544 160.495,59.058 L160.495,59.058 L160.495,59.058 Z M132.383,72.158 L131.837,71.067 C131.837,71.067 131.837,71.067 131.836,71.068 L132.383,72.158 C132.382,72.159 132.382,72.159 132.383,72.158 C132.383,72.158 132.382,72.159 132.383,72.158 L132.383,72.158 L132.383,72.158 Z M132.383,72.158" id="Shape"></path>
                </g>
            </g>
        </g>
    </g>
</svg>