<?xml version="1.0" encoding="utf-8"?>
<!-- Generator: Adobe Illustrator 16.0.0, SVG Export Plug-In . SVG Version: 6.00 Build 0)  -->
<!DOCTYPE svg PUBLIC "-//W3C//DTD SVG 1.1//EN" "http://www.w3.org/Graphics/SVG/1.1/DTD/svg11.dtd">
<svg version="1.1" id="timewasted_x0D_" xmlns="http://www.w3.org/2000/svg" xmlns:xlink="http://www.w3.org/1999/xlink" x="0px"
	 y="0px" width="290px" height="290px" viewBox="0 0 290 290" enable-background="new 0 0 290 290" xml:space="preserve">
<g>
	<path d="M24.594,153.995c1.344,0,2.688-0.211,4.031-0.633v4.148c-0.609,0.267-1.395,0.488-2.355,0.668s-1.957,0.27-2.988,0.27
		c-5.219,0-7.828-2.75-7.828-8.25v-13.969h-3.539v-2.438l3.797-2.016l1.875-5.484h3.398v5.766h7.383v4.172h-7.383v13.875
		c0,1.328,0.332,2.309,0.996,2.941S23.516,153.995,24.594,153.995z"/>
	<path d="M31.557,125.19c0-0.984,0.27-1.742,0.809-2.273c0.539-0.531,1.309-0.797,2.309-0.797c0.969,0,1.723,0.266,2.262,0.797
		c0.539,0.532,0.809,1.289,0.809,2.273c0,0.938-0.27,1.676-0.809,2.215s-1.293,0.809-2.262,0.809c-1,0-1.77-0.27-2.309-0.809
		S31.557,126.128,31.557,125.19z M37.393,157.979h-5.508v-25.922h5.508V157.979z"/>
	<path d="M65.191,157.979H59.66v-15.984c0-1.984-0.375-3.464-1.125-4.441c-0.75-0.976-1.922-1.465-3.516-1.465
		c-2.125,0-3.684,0.691-4.676,2.074c-0.993,1.383-1.488,3.684-1.488,6.902v12.914h-5.508v-25.922h4.312l0.773,3.398h0.281
		c0.718-1.234,1.761-2.187,3.129-2.859c1.367-0.671,2.871-1.008,4.512-1.008c3.984,0,6.625,1.359,7.922,4.078h0.375
		c0.765-1.281,1.843-2.281,3.234-3c1.39-0.718,2.984-1.078,4.781-1.078c3.094,0,5.347,0.782,6.762,2.344
		c1.414,1.563,2.121,3.946,2.121,7.148v16.898h-5.508v-15.984c0-1.984-0.379-3.464-1.137-4.441
		c-0.758-0.976-1.934-1.465-3.527-1.465c-2.141,0-3.708,0.668-4.699,2.004c-0.993,1.336-1.488,3.387-1.488,6.152V157.979z"/>
	<path d="M98.639,158.448c-4.031,0-7.184-1.175-9.457-3.527c-2.273-2.352-3.41-5.59-3.41-9.715c0-4.234,1.055-7.562,3.164-9.984
		c2.109-2.421,5.007-3.633,8.695-3.633c3.422,0,6.125,1.04,8.109,3.117c1.984,2.079,2.977,4.938,2.977,8.578v2.977H91.443
		c0.078,2.517,0.757,4.45,2.039,5.801c1.281,1.352,3.085,2.027,5.414,2.027c1.531,0,2.957-0.144,4.277-0.434
		c1.32-0.289,2.738-0.77,4.254-1.441v4.477c-1.344,0.642-2.704,1.094-4.078,1.359C101.974,158.315,100.404,158.448,98.639,158.448z
		 M97.631,135.761c-1.75,0-3.152,0.555-4.207,1.664c-1.055,1.11-1.684,2.727-1.887,4.852h11.766
		c-0.032-2.14-0.547-3.762-1.547-4.863C100.755,136.312,99.38,135.761,97.631,135.761z"/>
	<path d="M135.132,157.979l-3-12.656l-0.703-3.82l-0.469-3.07h-0.141c-0.766,4.375-1.281,7.134-1.547,8.273l-2.695,11.273h-9.633
		l-7.242-26.555h9.023l2.156,10.195c0.688,3.501,1.086,6.407,1.195,8.719h0.141c0.047-1.438,0.477-4.172,1.289-8.203l2.461-10.711
		h10.125l2.25,10.852c0.719,3.454,1.172,6.141,1.359,8.062h0.141c0.094-1.187,0.25-2.668,0.469-4.441
		c0.219-1.773,0.461-3.199,0.727-4.277l2.344-10.195h8.836l-7.29,26.555H135.132z"/>
	<path d="M171.369,157.979l-1.758-3.516h-0.188c-1.235,1.532-2.493,2.578-3.773,3.141c-1.282,0.562-2.938,0.844-4.969,0.844
		c-2.501,0-4.47-0.75-5.906-2.25c-1.438-1.5-2.156-3.609-2.156-6.328c0-2.827,0.984-4.934,2.953-6.316s4.819-2.16,8.555-2.332
		l4.43-0.141v-0.375c0-2.187-1.078-3.281-3.234-3.281c-1.938,0-4.399,0.656-7.383,1.969l-2.648-6.047
		c3.094-1.594,6.999-2.391,11.719-2.391c3.405,0,6.042,0.844,7.91,2.531c1.866,1.688,2.801,4.047,2.801,7.078v17.414H171.369z
		 M164.572,151.979c1.108,0,2.058-0.352,2.848-1.055c0.788-0.703,1.184-1.617,1.184-2.742v-2.062l-2.109,0.094
		c-3.017,0.109-4.523,1.219-4.523,3.328C161.971,151.168,162.838,151.979,164.572,151.979z"/>
	<path d="M202.543,149.823c0,2.845-0.97,4.992-2.906,6.445c-1.938,1.453-4.72,2.18-8.344,2.18c-1.969,0-3.68-0.105-5.133-0.316
		s-2.938-0.598-4.453-1.16v-7.336c1.421,0.625,2.979,1.141,4.676,1.547c1.694,0.407,3.206,0.609,4.535,0.609
		c1.983,0,2.977-0.453,2.977-1.359c0-0.469-0.278-0.887-0.832-1.254c-0.556-0.366-2.168-1.081-4.84-2.145
		c-2.438-0.999-4.142-2.136-5.109-3.41c-0.97-1.273-1.453-2.886-1.453-4.84c0-2.468,0.952-4.39,2.859-5.766
		c1.905-1.375,4.601-2.062,8.086-2.062c1.749,0,3.394,0.192,4.934,0.574c1.538,0.383,3.136,0.942,4.793,1.676l-2.484,5.906
		c-1.219-0.546-2.508-1.011-3.867-1.395c-1.359-0.382-2.47-0.574-3.328-0.574c-1.5,0-2.25,0.368-2.25,1.102
		c0,0.454,0.261,0.84,0.785,1.16c0.522,0.321,2.034,0.973,4.535,1.957c1.858,0.766,3.246,1.516,4.16,2.25
		c0.914,0.735,1.585,1.598,2.016,2.59C202.327,147.195,202.543,148.402,202.543,149.823z"/>
	<path d="M218.716,151.206c1.234,0,2.711-0.305,4.43-0.914v6.68c-1.234,0.531-2.41,0.911-3.527,1.137
		c-1.117,0.227-2.426,0.34-3.926,0.34c-3.078,0-5.297-0.753-6.656-2.262c-1.359-1.508-2.039-3.823-2.039-6.949v-10.945h-3.211
		v-3.727l4.078-2.883l2.367-5.578h6v5.32h6.516v6.867h-6.516v10.336C216.231,150.348,217.06,151.206,218.716,151.206z"/>
	<path d="M238.687,158.448c-4.422,0-7.855-1.175-10.301-3.527c-2.445-2.352-3.668-5.698-3.668-10.043
		c0-4.484,1.133-7.925,3.398-10.324c2.266-2.398,5.5-3.598,9.703-3.598c4,0,7.09,1.043,9.27,3.129s3.27,5.09,3.27,9.012v4.078
		h-16.383c0.062,1.485,0.605,2.648,1.629,3.492s2.418,1.266,4.184,1.266c1.609,0,3.09-0.152,4.441-0.457s2.816-0.823,4.395-1.559
		v6.586c-1.438,0.735-2.922,1.242-4.453,1.523S240.812,158.448,238.687,158.448z M238.147,137.19c-1.078,0-1.98,0.34-2.707,1.02
		s-1.152,1.746-1.277,3.199h7.875c-0.031-1.281-0.395-2.304-1.09-3.07C240.253,137.574,239.319,137.19,238.147,137.19z"/>
	<path d="M261.868,158.448c-1.891,0-3.543-0.539-4.957-1.617s-2.508-2.663-3.281-4.758c-0.773-2.094-1.16-4.538-1.16-7.336
		c0-4.312,0.867-7.688,2.602-10.125s4.117-3.656,7.148-3.656c1.484,0,2.785,0.297,3.902,0.891c1.117,0.594,2.137,1.594,3.059,3
		h0.188c-0.297-2.078-0.445-4.156-0.445-6.234v-7.102h9.234v36.469h-6.914l-1.969-3.352h-0.352
		C267.345,157.175,264.993,158.448,261.868,158.448z M265.618,151.206c1.469,0,2.504-0.46,3.105-1.383
		c0.602-0.922,0.926-2.344,0.973-4.266v-0.727c0-2.344-0.336-4.011-1.008-5.004c-0.672-0.992-1.727-1.488-3.164-1.488
		c-1.203,0-2.137,0.567-2.801,1.699c-0.664,1.133-0.996,2.747-0.996,4.84c0,2.062,0.336,3.633,1.008,4.711
		S264.368,151.206,265.618,151.206z"/>
</g>
</svg>
