<?xml version="1.0" encoding="utf-8"?>
<!-- Generator: Adobe Illustrator 16.0.0, SVG Export Plug-In . SVG Version: 6.00 Build 0)  -->
<!DOCTYPE svg PUBLIC "-//W3C//DTD SVG 1.1//EN" "http://www.w3.org/Graphics/SVG/1.1/DTD/svg11.dtd">
<svg version="1.1" id="dropbox_x2B_scriptogram_1_" xmlns="http://www.w3.org/2000/svg" xmlns:xlink="http://www.w3.org/1999/xlink"
	 x="0px" y="0px" width="736px" height="416px" viewBox="0 0 736 416" enable-background="new 0 0 736 416" xml:space="preserve">
<g id="a">
	<g>
		<path fill="#FFFFFF" d="M374.094,178.345c2.561-1.312,4.717-3.029,6.469-5.156c3.999-4.749,5.687-9.873,5.062-15.375
			c-2.376,0.126-4.907,0.876-7.594,2.25c-2.689,1.377-4.846,3.064-6.469,5.062c-4.125,4.752-5.877,9.688-5.25,14.812
			C368.938,180.19,371.53,179.657,374.094,178.345z M403.906,227.47c-0.562-0.311-1.564-1.031-3-2.156
			c-1.438-1.125-2.719-2.344-3.844-3.656s-2.127-3.123-3-5.438c-0.876-2.312-1.312-4.781-1.312-7.406
			c-0.126-7.623,3.311-13.688,10.312-18.188c-4.125-6.123-10.002-9.311-17.625-9.562c-2.877-0.249-6.439,0.407-10.688,1.969
			c-4.251,1.564-6.814,2.344-7.688,2.344c-1.002,0-3.313-0.686-6.938-2.062c-3.627-1.374-6.562-2.062-8.812-2.062
			c-4.125,0.126-7.939,1.251-11.438,3.375c-3.501,2.127-6.313,5.001-8.438,8.625c-2.625,4.626-3.938,10.063-3.938,16.312
			c0,6.252,0.938,12.094,2.812,17.531s4.248,10.283,7.125,14.531c1.749,2.502,3.249,4.5,4.5,6c1.248,1.5,2.874,2.936,4.875,4.312
			c1.998,1.374,3.938,1.998,5.812,1.875c1.875-0.126,4.312-0.814,7.312-2.062c3-1.251,5.812-1.875,8.438-1.875
			c2.499,0,5.25,0.656,8.25,1.969s5.561,1.904,7.688,1.781c1.998,0,3.967-0.656,5.906-1.969c1.937-1.312,3.437-2.625,4.5-3.938
			c1.061-1.312,2.467-3.281,4.219-5.906c2.748-3.873,4.937-8.373,6.562-13.5C404.999,228.064,404.469,227.783,403.906,227.47z"/>
	</g>
</g>
</svg>
