<?xml version="1.0" encoding="utf-8"?>
<!-- Generator: Adobe Illustrator 16.0.0, SVG Export Plug-In . SVG Version: 6.00 Build 0)  -->
<!DOCTYPE svg PUBLIC "-//W3C//DTD SVG 1.1//EN" "http://www.w3.org/Graphics/SVG/1.1/DTD/svg11.dtd">
<svg version="1.1" id="j_1_" xmlns="http://www.w3.org/2000/svg" xmlns:xlink="http://www.w3.org/1999/xlink" x="0px" y="0px"
	 width="736px" height="416px" viewBox="0 0 736 416" enable-background="new 0 0 736 416" xml:space="preserve">
<g id="j">
	<g>
		<path fill="#FFFFFF" d="M414.145,181.82c-1.239-1.236-2.704-1.855-4.395-1.855h-24.714V173c0-1.69-0.62-3.869-1.855-5.108
			c-1.239-1.236-2.99-1.855-4.681-1.855h-25c-1.693,0-3.444,0.619-4.681,1.855c-1.238,1.239-1.855,3.418-1.855,5.108v6.965H322.25
			c-1.693,0-3.158,0.619-4.395,1.855c-1.239,1.239-1.855,1.989-1.855,3.68v56.25c0,1.694,0.616,3.159,1.855,4.395
			c1.236,1.239,2.701,1.856,4.395,1.856h87.5c1.69,0,3.155-0.617,4.395-1.856c1.236-1.235,1.855-2.7,1.855-4.395V185.5
			C416,183.81,415.381,183.06,414.145,181.82z M354.071,173h23.857v6.965h-23.857V173z M409.036,204.965h-11.072v8.946
			c0,0.912-0.293,1.66-0.879,2.246s-1.336,0.879-2.246,0.879h-7.678c-0.913,0-1.66-0.293-2.246-0.879s-0.879-1.334-0.879-2.246
			v-8.946h-36.072v8.66c0,0.913-0.293,1.946-0.879,2.532s-1.336,0.879-2.246,0.879h-7.678c-0.913,0-1.66-0.293-2.246-0.879
			s-0.879-1.619-0.879-2.532v-8.66h-10.929V198h85.929V204.965z"/>
	</g>
</g>
</svg>
