<?xml version="1.0" encoding="utf-8"?>
<!-- Generator: Adobe Illustrator 16.0.0, SVG Export Plug-In . SVG Version: 6.00 Build 0)  -->
<!DOCTYPE svg PUBLIC "-//W3C//DTD SVG 1.1//EN" "http://www.w3.org/Graphics/SVG/1.1/DTD/svg11.dtd">
<svg version="1.1" id="b_1_" xmlns="http://www.w3.org/2000/svg" xmlns:xlink="http://www.w3.org/1999/xlink" x="0px" y="0px"
	 width="736px" height="416px" viewBox="0 0 736 416" enable-background="new 0 0 736 416" xml:space="preserve">
<g id="b">
	<g>
		<path fill="#FFFFFF" d="M343.454,206.764l12.314,12.642c2.598-2.854,5.404-5.98,8.415-9.38l-11.083-11.01
			C348.447,202.686,345.231,205.27,343.454,206.764z M325.394,237.552c0.82,4.215,2.052,7.885,3.694,11.01
			c-0.138-0.271-0.205-0.713-0.205-1.325c0-0.611,0.134-1.732,0.41-3.364c0.272-1.631,0.718-3.023,1.334-4.18
			c0.615-1.153,1.744-2.243,3.387-3.263c1.642-1.02,3.694-1.528,6.157-1.528c2.324,0,4.377-0.44,6.157-1.326
			c1.776-0.882,3.11-1.901,4.002-3.058c0.889-1.153,1.642-2.479,2.258-3.977c0.615-1.494,0.955-2.58,1.026-3.262
			c0.067-0.679,0.17-1.224,0.308-1.632l-12.725-13.049C327.24,212.269,321.975,221.922,325.394,237.552z M378.971,198.815
			l-11.07,11.05c3.008,3.411,5.811,6.548,8.405,9.412l12.301-12.687C386.832,205.091,383.619,202.498,378.971,198.815z
			 M390.862,208.433l-12.712,13.096c0.139,0.409,0.24,0.956,0.308,1.637c0.071,0.685,0.41,1.774,1.025,3.274
			c0.615,1.503,1.368,2.833,2.255,3.99c0.891,1.16,2.224,2.184,3.998,3.069c1.778,0.889,3.828,1.33,6.15,1.33
			c2.461,0,4.511,0.512,6.15,1.534c1.641,1.023,2.769,2.117,3.383,3.274c0.615,1.16,1.061,2.558,1.333,4.194
			c0.275,1.638,0.41,2.763,0.41,3.377c0,0.613-0.067,1.058-0.205,1.33c1.641-3.137,2.87-6.82,3.69-11.05
			C410.063,221.804,404.803,212.115,390.862,208.433z M376.716,196.974c-0.16-0.132-0.311-0.256-0.469-0.387
			c6.349-7.097,10.743-11.998,13.181-14.698c3.419-3.941,6.02-7.407,7.8-10.398c1.776-2.989,2.258-4.824,1.437-5.506
			c-0.275-0.407-1.062-0.372-2.36,0.103c-1.302,0.478-3.114,1.427-5.438,2.854c-2.328,1.427-4.791,3.16-7.389,5.199
			c-2.801,2.286-8.573,7.012-17.289,14.158c-8.871-7.308-14.73-12.128-17.56-14.448c-2.595-2.046-5.055-3.785-7.38-5.218
			c-2.323-1.433-4.133-2.385-5.434-2.864c-1.297-0.477-2.082-0.512-2.357-0.103c-0.82,0.684-0.34,2.525,1.436,5.524
			c1.777,3.003,4.375,6.481,7.79,10.437c2.461,2.739,6.92,7.735,13.373,14.981c-0.235,0.193-0.459,0.377-0.697,0.572l9.103,8.872
			c0.46,0.518,0.916,1.029,1.389,1.562l0.106-0.104l0.28,0.273c1.364-1.527,2.668-2.985,3.923-4.389L376.716,196.974z"/>
	</g>
</g>
</svg>
