<?xml version="1.0" encoding="utf-8"?>
<!-- Generator: Adobe Illustrator 16.0.0, SVG Export Plug-In . SVG Version: 6.00 Build 0)  -->
<!DOCTYPE svg PUBLIC "-//W3C//DTD SVG 1.1//EN" "http://www.w3.org/Graphics/SVG/1.1/DTD/svg11.dtd">
<svg version="1.1" id="c_1_" xmlns="http://www.w3.org/2000/svg" xmlns:xlink="http://www.w3.org/1999/xlink" x="0px" y="0px"
	 width="736px" height="416px" viewBox="0 0 736 416" enable-background="new 0 0 736 416" xml:space="preserve">
<g id="c">
	<g>
		<path fill="#FFFFFF" d="M369.016,180.94h-7.031v27.677l16.992,17.188l5.078-5.078l-15.039-14.844V180.94z M398.117,174.633
			c-8.984-8.984-19.857-13.476-32.617-13.476c-12.763,0-23.633,4.491-32.617,13.476c-8.984,8.985-13.477,19.858-13.477,32.618
			c0,12.762,4.492,23.632,13.477,32.617c8.984,8.983,19.854,13.476,32.617,13.476c12.76,0,23.633-4.492,32.617-13.476
			c8.984-8.985,13.477-19.855,13.477-32.617C411.594,194.491,407.102,183.618,398.117,174.633z M390.891,232.642
			c-7.031,7.031-15.497,10.546-25.391,10.546c-9.896,0-18.359-3.515-25.391-10.546c-7.031-7.032-10.547-15.494-10.547-25.391
			c0-9.895,3.516-18.359,10.547-25.391c7.031-7.032,15.494-10.547,25.391-10.547c9.894,0,18.359,3.515,25.391,10.547
			c7.031,7.031,10.547,15.496,10.547,25.391C401.438,217.147,397.922,225.609,390.891,232.642z"/>
	</g>
</g>
</svg>
