<?xml version="1.0" encoding="utf-8"?>
<!-- Generator: Adobe Illustrator 16.0.0, SVG Export Plug-In . SVG Version: 6.00 Build 0)  -->
<!DOCTYPE svg PUBLIC "-//W3C//DTD SVG 1.1//EN" "http://www.w3.org/Graphics/SVG/1.1/DTD/svg11.dtd">
<svg version="1.1" id="cookie_1_" xmlns="http://www.w3.org/2000/svg" xmlns:xlink="http://www.w3.org/1999/xlink" x="0px" y="0px"
	 width="736px" height="416px" viewBox="0 0 736 416" enable-background="new 0 0 736 416" xml:space="preserve">
<g id="cookie">
	<g>
		<path fill="#FFFFFF" d="M401,226l-6.833,3.333l2.5-6.166L389,219.833l4.167-5.666L387.833,208l4.5-5.167L386.5,197l5.5-3
			l-1.333-8.667L398,187.5l2.428-7.834c-8.096-9.957-20.438-16.322-34.271-16.322c-24.387,0-44.156,19.77-44.156,44.156
			s19.77,44.156,44.156,44.156c16.533,0,30.934-9.092,38.502-22.543L401,226z M379.423,177.863l2.411,4.38l-5.257,2.894l-2.411-4.38
			L379.423,177.863z M368.787,168.765l0.406,4.983l-5.98,0.487l-0.406-4.983L368.787,168.765z M334.036,210.832l-5.681-1.93
			l1.608-4.734l5.681,1.93L334.036,210.832z M332.213,194.235l-0.406-4.983l5.98-0.487l0.406,4.983L332.213,194.235z
			 M338.579,219.617l5.891-1.143l0.951,4.908l-5.891,1.143L338.579,219.617z M349.696,238.018l-5.462-2.483l2.069-4.552l5.462,2.483
			L349.696,238.018z M347.577,209.137l-2.411-4.38l5.257-2.894l2.411,4.38L347.577,209.137z M352.626,186.391l-5.942-0.829
			l0.69-4.952l5.942,0.829L352.626,186.391z M359.962,187.169l5.683,1.928l-1.606,4.734l-5.683-1.928L359.962,187.169z
			 M360.234,215.534l2.069-4.552l5.462,2.483l-2.069,4.552L360.234,215.534z M366.213,234.235l-0.406-4.983l5.98-0.487l0.406,4.983
			L366.213,234.235z M373.357,198.625l5.947,0.794l-0.662,4.956l-5.947-0.794L373.357,198.625z M378.213,218.235l-0.406-4.983
			l5.98-0.487l0.406,4.983L378.213,218.235z"/>
	</g>
</g>
</svg>
