<?xml version="1.0" encoding="utf-8"?>
<!-- Generator: Adobe Illustrator 16.0.0, SVG Export Plug-In . SVG Version: 6.00 Build 0)  -->
<!DOCTYPE svg PUBLIC "-//W3C//DTD SVG 1.1//EN" "http://www.w3.org/Graphics/SVG/1.1/DTD/svg11.dtd">
<svg version="1.1" id="Shape_4_1_" xmlns="http://www.w3.org/2000/svg" xmlns:xlink="http://www.w3.org/1999/xlink" x="0px" y="0px"
	 width="736px" height="416px" viewBox="0 0 736 416" enable-background="new 0 0 736 416" xml:space="preserve">
<g id="Shape_4">
	<g>
		<path fill="#FFFFFF" d="M276.5,208c-11.322,0-20.5,9.178-20.5,20.5s9.178,20.5,20.5,20.5s20.5-9.178,20.5-20.5
			S287.822,208,276.5,208z M276.5,235c-3.59,0-6.5-2.91-6.5-6.5s2.91-6.5,6.5-6.5s6.5,2.91,6.5,6.5S280.09,235,276.5,235z M414,168
			h-53l-40,18v5l93-2V168z M452.5,208c-11.322,0-20.5,9.178-20.5,20.5s9.178,20.5,20.5,20.5s20.5-9.178,20.5-20.5
			S463.822,208,452.5,208z M452.5,235c-3.59,0-6.5-2.91-6.5-6.5s2.91-6.5,6.5-6.5s6.5,2.91,6.5,6.5S456.09,235,452.5,235z M513,170
			v-2h-6v-8l-28,15l-0.178,0.354l-4.877-1.519l20.606-11.917l-1.561-2.562l-22.94,13.267L461.632,170H462v-23h-10v20h-13v-6h-22v3
			h10v3h-1l80,18.766V186h7v-2h-6v-6h6v-2h-6v-6H513z M506,189l-188,4v-6l-66,6l-21,6l-10,9l-5,3v7l15,13l-5,4l27.656-0.656
			c-0.477-1.868-0.731-3.826-0.731-5.844c0-13.021,10.555-23.575,23.575-23.575s23.575,10.555,23.575,23.575
			c0,1.629-0.166,3.219-0.48,4.755l129.396-3.069c-0.039-0.557-0.066-1.118-0.066-1.686c0-13.021,10.555-23.575,23.575-23.575
			s23.575,10.555,23.575,23.575c0,0.191-0.01,0.38-0.015,0.569L479,229l23-9l10-16h-6V189z M417,168v21l87-2L417,168z"/>
	</g>
</g>
</svg>
