<?xml version="1.0" encoding="utf-8"?>
<!-- Generator: Adobe Illustrator 16.0.0, SVG Export Plug-In . SVG Version: 6.00 Build 0)  -->
<!DOCTYPE svg PUBLIC "-//W3C//DTD SVG 1.1//EN" "http://www.w3.org/Graphics/SVG/1.1/DTD/svg11.dtd">
<svg version="1.1" id="dropbox_x2B_github_1_" xmlns="http://www.w3.org/2000/svg" xmlns:xlink="http://www.w3.org/1999/xlink"
	 x="0px" y="0px" width="736px" height="416px" viewBox="0 0 736 416" enable-background="new 0 0 736 416" xml:space="preserve">
<g id="_x2B_">
	<g>
		<path fill="#FFFFFF" d="M278.044,228.232l27-17.7l-16.65-13.35l-27.3,16.95L278.044,228.232z M242.344,164.332l-27.3,17.101
			l18.75,15.75l27.3-17.851L242.344,164.332z M277.594,236.782c-0.501,0-0.952-0.199-1.35-0.6l-15.15-12.601l-15.15,12.75
			c-0.401,0.301-0.851,0.45-1.35,0.45c-0.501,0-0.9-0.099-1.2-0.3l-11.25-7.5v4.35l28.95,18.301l28.95-18.301v-4.35l-11.25,7.5
			C278.494,236.684,278.093,236.782,277.594,236.782z M217.144,210.532l27,17.7l16.95-14.1l-27.3-16.95L217.144,210.532z
			 M279.844,164.332l-18.75,15l27.3,17.851l18.75-15.75L279.844,164.332z M502.957,177.101c-8.476-8.473-18.738-12.71-30.79-12.71
			c-12.054,0-22.317,4.237-30.79,12.71c-8.475,8.475-12.71,18.738-12.71,30.79c0,12.054,4.235,22.316,12.71,30.79
			c8.473,8.473,18.736,12.71,30.79,12.71c12.052,0,22.314-4.237,30.79-12.71c8.473-8.474,12.71-18.736,12.71-30.79
			C515.667,195.839,511.43,185.575,502.957,177.101z M497.995,233.719c-3.354,3.354-7.205,5.981-11.555,7.884
			c-1.179,0.455-2.312,0.862-3.398,1.224v-6.524c0-3.443-1.179-5.981-3.534-7.613c1.448-0.089,2.786-0.271,4.01-0.543
			c1.224-0.272,2.536-0.657,3.942-1.156c1.403-0.497,2.65-1.063,3.738-1.699c1.087-0.633,2.128-1.495,3.126-2.582
			c0.996-1.088,1.836-2.312,2.515-3.671c0.68-1.359,1.224-2.967,1.632-4.825c0.407-1.856,0.611-3.919,0.611-6.186
			c0-4.35-1.45-8.109-4.35-11.283c1.268-3.352,1.132-7.021-0.408-11.011l-1.087-0.136c-0.727-0.089-2.039,0.228-3.942,0.951
			c-1.903,0.727-4.033,1.858-6.39,3.398c-3.444-0.904-6.979-1.359-10.603-1.359c-3.626,0-7.068,0.455-10.331,1.359
			c-1.542-0.996-2.991-1.835-4.351-2.515s-2.446-1.132-3.262-1.359c-0.816-0.225-1.563-0.361-2.243-0.407
			c-0.68-0.045-1.111-0.045-1.292,0c-0.183,0.046-0.318,0.067-0.407,0.067c-1.632,3.989-1.768,7.659-0.408,11.011
			c-2.901,3.082-4.35,6.844-4.35,11.283c0,2.267,0.203,4.329,0.611,6.186c0.408,1.858,0.951,3.466,1.632,4.825
			c0.679,1.359,1.516,2.583,2.515,3.671c0.996,1.087,2.039,1.949,3.126,2.582c1.088,0.636,2.312,1.202,3.671,1.699
			c1.359,0.499,2.672,0.884,3.941,1.156c1.269,0.271,2.628,0.454,4.079,0.543c-2.358,1.632-3.535,4.17-3.535,7.613v6.66
			c-1.27-0.452-2.538-0.904-3.806-1.359c-4.351-1.902-8.203-4.53-11.555-7.884c-3.354-3.352-5.981-7.205-7.885-11.555
			c-1.903-4.531-2.854-9.289-2.854-14.273c0-4.983,0.951-9.741,2.854-14.273c1.903-4.351,4.53-8.201,7.885-11.555
			c3.352-3.352,7.204-5.981,11.555-7.885c4.53-1.903,9.288-2.854,14.273-2.854c4.982,0,9.74,0.951,14.273,2.854
			c4.35,1.903,8.2,4.533,11.555,7.885c3.352,3.354,5.981,7.204,7.884,11.555c1.903,4.532,2.855,9.29,2.855,14.273
			c0,4.984-0.952,9.742-2.855,14.273C503.977,226.514,501.347,230.367,497.995,233.719z M369.034,193.981h-5.066v10.983h-10.034
			v5.117h10.034V221h5.066v-10.918h9.951v-5.117h-9.951V193.981z"/>
	</g>
</g>
</svg>
