<?xml version="1.0" encoding="utf-8"?>
<!-- Generator: Adobe Illustrator 16.0.0, SVG Export Plug-In . SVG Version: 6.00 Build 0)  -->
<!DOCTYPE svg PUBLIC "-//W3C//DTD SVG 1.1//EN" "http://www.w3.org/Graphics/SVG/1.1/DTD/svg11.dtd">
<svg version="1.1" id="lessons_1_" xmlns="http://www.w3.org/2000/svg" xmlns:xlink="http://www.w3.org/1999/xlink" x="0px" y="0px"
	 width="736px" height="416px" viewBox="0 0 736 416" enable-background="new 0 0 736 416" xml:space="preserve">
<g id="lessons">
	<g>
		<path fill="#FFFFFF" d="M354.979,218.578l-19.992-8.008v6.837l19.992,8.007V218.578z M354.979,197.875l-19.992-8.008v6.642
			l19.992,8.008V197.875z M396.972,189.867l-19.867,8.008v6.642l19.867-8.008V189.867z M408.94,163.109
			c-1.435-1.04-2.997-1.235-4.688-0.586l-38.086,15.43l-38.086-15.43c-1.694-0.649-3.507-0.454-4.938,0.586
			c-1.435,1.044-2.148,2.411-2.148,4.102v64.062c0,2.216,1.04,3.778,3.125,4.688l40.094,15.82c0.519,0.26,0.845,0.392,0.977,0.392
			h1.953l0.977-0.392l39.844-15.82c2.081-0.909,3.125-2.472,3.125-4.688v-64.062C411.089,165.521,410.371,164.153,408.94,163.109z
			 M360.964,242.017l-31.961-12.892v-55.859l31.961,12.695V242.017z M403.081,229.321l-32.086,12.695v-56.056l32.086-12.695V229.321
			z M396.972,210.57l-19.867,8.008v6.836l19.867-8.007V210.57z"/>
	</g>
</g>
</svg>
