<?xml version="1.0" encoding="utf-8"?>
<!-- Generator: Adobe Illustrator 16.0.0, SVG Export Plug-In . SVG Version: 6.00 Build 0)  -->
<!DOCTYPE svg PUBLIC "-//W3C//DTD SVG 1.1//EN" "http://www.w3.org/Graphics/SVG/1.1/DTD/svg11.dtd">
<svg version="1.1" id="mask_1_" xmlns="http://www.w3.org/2000/svg" xmlns:xlink="http://www.w3.org/1999/xlink" x="0px" y="0px"
	 width="736px" height="416px" viewBox="0 0 736 416" enable-background="new 0 0 736 416" xml:space="preserve">
<g id="mask">
	<g>
		<path fill="#FFFFFF" d="M366.172,185.177c-26.604,0-48.172,4.49-48.172,26.495c0,12.991,13.881,20.682,33.102,23.218
			l15.403-15.403l15.323,15.324c18.916-2.615,32.516-10.279,32.516-23.139C414.344,189.667,392.776,185.177,366.172,185.177z
			 M345.8,213.7c-5.854,0-10.6-2.597-10.6-5.8c0-3.204,4.745-5.801,10.6-5.801s10.601,2.597,10.601,5.801
			C356.4,211.104,351.654,213.7,345.8,213.7z M387.8,213.7c-5.854,0-10.6-2.597-10.6-5.8c0-3.204,4.745-5.801,10.6-5.801
			s10.601,2.597,10.601,5.801C398.4,211.104,393.654,213.7,387.8,213.7z"/>
	</g>
</g>
</svg>
