<?xml version="1.0" encoding="utf-8"?>
<!-- Generator: Adobe Illustrator 16.0.0, SVG Export Plug-In . SVG Version: 6.00 Build 0)  -->
<!DOCTYPE svg PUBLIC "-//W3C//DTD SVG 1.1//EN" "http://www.w3.org/Graphics/SVG/1.1/DTD/svg11.dtd">
<svg version="1.1" id="minion_1_" xmlns="http://www.w3.org/2000/svg" xmlns:xlink="http://www.w3.org/1999/xlink" x="0px" y="0px"
	 width="736px" height="405px" viewBox="0 0 736 405" enable-background="new 0 0 736 405" xml:space="preserve">
<g id="merged">
	<g>
		<path fill="#FFFFFF" d="M377.344,269.471c-4.262,0-7.716,1.403-7.716,3.136c0,1.731,3.454,3.136,7.716,3.136
			c4.261,0,7.715-1.404,7.715-3.136C385.059,270.874,381.604,269.471,377.344,269.471z M410.65,249.082H399v7.524
			c0.024,0.01,0.047,0.025,0.071,0.035l-0.25,1.167c-0.205-0.027-0.413-0.046-0.625-0.046c-2.649,0-4.797,2.153-4.797,4.809
			c0,1.646,0.827,3.099,2.086,3.966v0.007c0,2.078,1.681,3.763,3.753,3.763h1.251c1.881,0,3.434-1.388,3.707-3.196
			c0.47,0.174,0.977,0.27,1.507,0.27c2.418,0,4.379-1.966,4.379-4.391c0-1.111-0.416-2.123-1.095-2.896L410.65,249.082z
			 M382.765,159.397c-7.313,0-13.243,5.945-13.243,13.278c0,7.332,5.93,13.277,13.243,13.277c7.314,0,13.244-5.945,13.244-13.277
			C396.009,165.343,390.079,159.397,382.765,159.397z M379.012,178.738c-2.419,0-4.379-1.966-4.379-4.391s1.96-4.39,4.379-4.39
			c2.418,0,4.379,1.965,4.379,4.39S381.43,178.738,379.012,178.738z M328.469,169.017h4.164c1.966-7.914,9.1-14.529,17.603-14.529
			c7.133,0,13.301,4.129,16.265,10.131c2.964-6.002,9.132-10.131,16.265-10.131c8.503,0,15.637,6.615,17.603,14.529h4.266
			c-2.628-18.233-18.011-33.068-36.77-33.724c9.668-3.65,20.13-2.138,26.408,4.729h4.654c-0.157-0.229-0.312-0.459-0.48-0.684
			c-6.915-9.246-20.586-10.683-31.955-4.235c-11.366-6.437-25.023-4.756-31.936,4.485c-0.168,0.225-0.323,0.204-0.48,0.434h4.654
			c6.273-6.862,16.727-8.376,26.39-4.736C346.354,135.948,331.158,150.79,328.469,169.017z M397.046,246.999h12.683l0.437-11.396
			h-0.033c0.02-0.621,0.033-1.247,0.033-1.882c0-8.815-2.238-16.483-5.166-20.411v-37.351h-4.546
			c-1.83,8.103-9.052,14.904-17.688,14.904c-7.133,0-13.301-4.129-16.265-10.131c-2.964,6.002-9.132,10.131-16.265,10.131
			c-8.637,0-15.858-6.802-17.688-14.904h-4.546v38.078c-2.651,4.101-5.166,11.381-5.166,19.684c0,0.635,0.014,1.261,0.033,1.882
			h-0.033l0.437,11.396h12.683v9.072c2.638,1.391,6.061,2.604,9.65,3.575l1.503,8.376h16.265l1.027-5.819
			c0.696,0.017,1.396,0.026,2.101,0.026c0.565,0,1.126-0.008,1.685-0.018l1.026,5.811h16.265l1.481-8.263
			c3.77-0.989,7.344-2.244,10.089-3.689V246.999z M366.5,203.825c-2.648,0-4.796-0.562-4.796-1.254c0-0.693,2.147-1.255,4.796-1.255
			s4.796,0.562,4.796,1.255C371.296,203.264,369.148,203.825,366.5,203.825z M355.239,269.471c-4.261,0-7.715,1.403-7.715,3.136
			c0,1.731,3.454,3.136,7.715,3.136c4.262,0,7.716-1.404,7.716-3.136C362.955,270.874,359.501,269.471,355.239,269.471z
			 M350.235,159.397c-7.314,0-13.244,5.945-13.244,13.278c0,7.332,5.93,13.277,13.244,13.277c7.313,0,13.243-5.945,13.243-13.277
			C363.479,165.343,357.549,159.397,350.235,159.397z M353.988,178.738c-2.418,0-4.379-1.966-4.379-4.391s1.961-4.39,4.379-4.39
			c2.419,0,4.379,1.965,4.379,4.39S356.407,178.738,353.988,178.738z M334.804,257.763c-0.212,0-0.42,0.019-0.625,0.046v-1.167
			c0.024-0.01-0.203-0.025-0.179-0.035v-7.524h-11.65l1.663,11.011c-0.679,0.773-1.095,1.785-1.095,2.896
			c0,2.425,1.961,4.391,4.379,4.391c0.53,0,1.037-0.096,1.507-0.27c0.273,1.809,1.826,3.196,3.707,3.196h1.251
			c2.073,0,3.753-1.685,3.753-3.763v-0.007c1.259-0.867,2.086-2.319,2.086-3.966C339.601,259.916,337.453,257.763,334.804,257.763z"
			/>
	</g>
</g>
</svg>
