<?xml version="1.0" encoding="utf-8"?>
<!-- Generator: Adobe Illustrator 16.0.0, SVG Export Plug-In . SVG Version: 6.00 Build 0)  -->
<!DOCTYPE svg PUBLIC "-//W3C//DTD SVG 1.1//EN" "http://www.w3.org/Graphics/SVG/1.1/DTD/svg11.dtd">
<svg version="1.1" id="s_1_" xmlns="http://www.w3.org/2000/svg" xmlns:xlink="http://www.w3.org/1999/xlink" x="0px" y="0px"
	 width="736px" height="416px" viewBox="0 0 736 416" enable-background="new 0 0 736 416" xml:space="preserve">
<g id="s">
	<g>
		<path fill="#FFFFFF" d="M391.328,181.516c-5.729-5.728-12.598-8.593-20.605-8.593s-14.874,2.865-20.605,8.593
			c-5.729,5.731-8.594,12.632-8.594,20.703c0,4.429,0.977,8.726,2.93,12.891l-11.719,11.719l0.195,0.195
			c-1.822,1.694-2.734,3.809-2.734,6.348s0.912,4.722,2.734,6.543c1.825,1.825,4.004,2.734,6.543,2.734s4.657-0.909,6.348-2.734
			l0.195,0.195l11.719-11.718c4.169,1.952,8.466,2.93,12.891,2.93c8.075,0,14.975-2.863,20.703-8.595
			c5.731-5.728,8.594-12.598,8.594-20.604C399.922,194.114,397.06,187.247,391.328,181.516z M382.539,213.938
			c-3.253,3.257-7.193,4.883-11.816,4.883c-4.62,0-8.561-1.626-11.816-4.883c-3.253-3.253-4.883-7.192-4.883-11.815
			c0-4.621,1.63-8.561,4.883-11.816c3.256-3.254,7.196-4.883,11.816-4.883c4.623,0,8.563,1.629,11.816,4.883
			c3.256,3.256,4.883,7.195,4.883,11.816C387.422,206.745,385.795,210.685,382.539,213.938z"/>
	</g>
</g>
</svg>
