<?xml version="1.0" encoding="utf-8"?>
<!-- Generator: Adobe Illustrator 16.0.0, SVG Export Plug-In . SVG Version: 6.00 Build 0)  -->
<!DOCTYPE svg PUBLIC "-//W3C//DTD SVG 1.1//EN" "http://www.w3.org/Graphics/SVG/1.1/DTD/svg11.dtd">
<svg version="1.1" id="A_1_" xmlns="http://www.w3.org/2000/svg" xmlns:xlink="http://www.w3.org/1999/xlink" x="0px" y="0px"
	 width="736px" height="416px" viewBox="0 0 736 416" enable-background="new 0 0 736 416" xml:space="preserve">
<g id="A">
	<g>
		<path fill="#FFFFFF" d="M347.362,249.047c-0.37-0.312-0.766-0.596-1.191-0.851c-0.425-0.256-0.695-0.439-0.808-0.554l-0.681-0.425
			c-0.795-0.794-1.306-1.417-1.531-1.872l-0.426-1.531l0.511-0.425l-0.255-1.191c-0.228-0.396-0.397-0.68-0.511-0.851
			c-0.057-0.17-0.057-0.736,0-1.701c0-0.17-0.057-0.453-0.17-0.851l-0.17-0.511c-0.058-0.793-0.086-1.416-0.086-1.871
			c0-0.056-0.042-0.184-0.127-0.383c-0.085-0.198-0.128-0.354-0.128-0.468c0-0.056-0.029-0.24-0.085-0.553
			c-0.057-0.312-0.128-0.651-0.213-1.021c-0.085-0.368-0.127-0.694-0.127-0.979c-0.171-0.681-0.482-1.984-0.937-3.913l-0.766-3.147
			c-0.737-4.254-1.135-6.493-1.19-6.721v-0.68c0-0.227,0.027-0.511,0.085-0.852v-0.425c0-0.056-0.058-0.283-0.17-0.681l-0.17-0.596
			l-0.171-0.51c-0.057-0.341-0.085-0.566-0.085-0.681l-0.34-0.936c0.226-0.341,0.396-0.596,0.511-0.766l0.255-0.341
			c0.226-0.17,0.34-0.34,0.34-0.51l0.341-1.361c0.056-0.056,0.141-0.141,0.255-0.256l0.255-0.51
			c1.531-1.361,2.382-2.154,2.553-2.382c0.17-0.056,0.453-0.383,0.851-0.979c0.396-0.596,0.623-0.894,0.681-0.894
			c0.056,0,0.24-0.197,0.553-0.595c0.311-0.396,0.608-0.766,0.893-1.106c0.283-0.34,0.481-0.595,0.596-0.766
			c0.736-1.076,1.219-1.842,1.446-2.297c0.681-1.304,0.991-2.239,0.936-2.807c0-0.906-0.284-1.645-0.851-2.212
			c-0.908-0.906-1.956-1.389-3.147-1.446c-0.795-0.056-1.646,0.228-2.552,0.851c-0.058,0-0.284,0.058-0.681,0.171
			c-0.397,0.114-0.652,0.227-0.766,0.34l-1.531,1.105c-0.397,0.228-0.71,0.37-0.936,0.426c-0.681,0.228-1.306,0.596-1.872,1.105
			c-0.17,0.058-0.454,0.143-0.851,0.256l-1.105,0.425c0-0.17-0.085-0.311-0.255-0.425l-0.426-0.256
			c-0.057-0.681-0.143-1.134-0.255-1.36c0-0.511-0.17-1.106-0.511-1.787c-0.737-1.36-1.135-2.268-1.19-2.722
			c-0.341-0.906-0.71-2.522-1.106-4.849c-0.34-1.872-0.71-3.459-1.105-4.764c-0.17-0.227-0.383-0.539-0.638-0.937
			c-0.256-0.396-0.497-0.65-0.724-0.765l-0.34-0.426c-0.567-0.396-1.73-0.906-3.488-1.531c-0.057,0-0.354-0.113-0.893-0.34
			c-0.54-0.227-0.838-0.368-0.894-0.426c-0.397-0.056-0.851-0.311-1.361-0.766v-2.382c0.511-0.736,0.821-1.332,0.937-1.786v-2.042
			c0.056,0,0.141-0.042,0.255-0.127c0.112-0.086,0.112-0.354,0-0.809v-1.276c0-0.565-0.029-0.936-0.085-1.105
			c-0.058-0.056-0.17-0.085-0.341-0.085h-0.17c-0.34-2.098-0.979-3.544-1.914-4.339c-0.936-0.793-2.368-1.076-4.296-0.851
			c-0.681,0.058-1.418,0.426-2.212,1.106c-0.795,0.681-1.275,1.305-1.445,1.871c-0.171,0.397-0.228,1.135-0.171,2.212l0.171,2.042
			c-0.228,0.057-0.285,0.396-0.171,1.021c0.057,0.057,0.156,0.213,0.298,0.468s0.269,0.412,0.383,0.468
			c0.17,0.511,0.368,0.88,0.596,1.105l0.34,0.171c0.227,0.397,0.396,0.709,0.511,0.936l0.34,0.766v1.19l-0.51,0.766
			c-1.701,0.795-2.837,1.276-3.402,1.446c-2.1,0.795-3.205,1.248-3.318,1.361c-0.397,0.228-0.765,0.539-1.105,0.936
			c-0.057,0.058-0.17,0.213-0.34,0.468s-0.34,0.511-0.51,0.766c-0.17,0.255-0.285,0.44-0.34,0.553
			c-0.057,0.114-0.17,0.455-0.34,1.021c-0.17,0.567-0.34,1.105-0.51,1.616L303,186.226c0,1.928,0.113,4.027,0.34,6.295
			c0.056,0.34,0.198,1.062,0.425,2.169c0.226,1.105,0.368,1.943,0.425,2.509c0.17,1.248,0.596,2.439,1.276,3.573
			c-0.227,3.743-0.397,5.927-0.51,6.55c-0.227,1.646-0.397,3.177-0.51,4.594c-0.908,11.514-1.276,18.63-1.106,21.352l0.51,0.341
			l0.51-0.171c0.737-7.031,1.191-11.029,1.361-11.994c0.793-5.217,1.219-7.826,1.276-7.826c0.17-0.51,0.426-0.793,0.766-0.851h1.361
			l2.722,2.552l0.426,27.222c0.056,0.17,0.255,0.255,0.596,0.255c0.226,0,0.453-0.085,0.68-0.255l1.446-25.18
			c0.17-0.34,0.283-0.538,0.341-0.596l0.851-0.085l5.784-0.17c0.396,0.908,0.936,1.646,1.616,2.212
			c0.226,0.227,0.538,0.454,0.936,0.681c0.396,0.227,0.709,0.34,0.936,0.34l0.426,0.085c0.511-0.056,0.964,0.029,1.361,0.255
			c0.226,0.058,0.651,0.426,1.275,1.106c0,0.228,0.043,0.51,0.128,0.851c0.085,0.34,0.198,0.667,0.34,0.979
			c0.142,0.312,0.213,0.524,0.213,0.638c0,0.34,0.056,1.503,0.17,3.487c0.057,0.681,0.426,1.986,1.106,3.913
			c0.793,2.439,1.304,3.913,1.531,4.424c0.056,0.057,0.085,0.412,0.085,1.063v1.19c0,0.143,0.056,0.397,0.17,0.766
			c0.113,0.37,0.17,0.582,0.17,0.639c0.227,0.737,0.368,1.646,0.426,2.722c0,0.567,0.112,0.965,0.34,1.191l0.085,1.105h0.426v1.19
			l-0.17,0.171l-0.085,1.445l0.34,0.596c0.056,0.058,0.141,0.143,0.255,0.256c0.341,0.34,0.822,0.595,1.446,0.766l0.851,0.255
			c0.056,0,0.283,0.242,0.681,0.723c0.396,0.481,0.864,0.992,1.403,1.531c0.539,0.538,1.119,0.864,1.744,0.979
			c3.118,0.794,5.047,1.049,5.784,0.766c1.872-0.908,2.808-1.503,2.808-1.786c0-0.341-0.143-0.681-0.426-1.021
			C348.056,249.685,347.73,249.357,347.362,249.047z M369.521,193.03h-3.913v5.274h-5.273v3.913h5.273v5.104h3.913v-5.104h5.104
			v-3.913h-5.104V193.03z M427.877,212l-1.021-22.287h-3.062c0-0.056,0.043-0.326,0.128-0.809c0.085-0.48,0.127-0.793,0.127-0.936
			c0-0.141-0.085-0.581-0.255-1.318c-0.17-0.736-0.284-1.134-0.34-1.19c-0.171-0.964-0.256-1.56-0.256-1.787
			c0-0.226-0.17-0.565-0.51-1.021c-0.058-0.056-0.171-0.255-0.341-0.596c-0.17-0.34-0.284-0.595-0.34-0.766
			c-0.17-0.226-0.582-0.58-1.233-1.063c-0.653-0.48-1.063-0.778-1.233-0.893c-0.058,0-0.383-0.184-0.979-0.553
			c-0.596-0.368-1.008-0.581-1.233-0.639c-0.058-0.056-0.71-0.255-1.957-0.595c-0.057,0-0.412-0.128-1.062-0.383
			c-0.653-0.256-1.063-0.411-1.234-0.469c-0.567-0.056-0.992-0.282-1.275-0.68c-0.058-0.566-0.085-0.937-0.085-1.106
			c0-0.056,0.056-0.141,0.17-0.255c0.113-0.113,0.17-0.226,0.17-0.341l0.085-0.51c0.056-0.283,0.085-0.523,0.085-0.724v-0.553
			l0.085-1.105l-0.085-0.851l0.256-0.681c-0.058-0.341-0.114-0.566-0.171-0.681v-0.766c-0.057-0.511-0.227-0.964-0.51-1.361
			l-0.17-0.255c-0.114-0.226-0.213-0.426-0.298-0.596s-0.128-0.283-0.128-0.34c-0.057-0.511-0.143-0.766-0.255-0.766l-0.596-0.426
			l-0.085-0.425c-0.17,0.057-0.312,0.057-0.426,0l-0.425-0.426c-0.228,0.058-0.397,0.058-0.511,0l-0.255-0.51l-0.511,0.255
			l-0.255-0.426l-0.341,0.171c-0.057,0-0.17-0.043-0.34-0.128s-0.312-0.128-0.426-0.128h-1.021c-0.057,0-0.156,0.043-0.298,0.128
			s-0.27,0.128-0.383,0.128c-0.057,0-0.212,0.015-0.468,0.042c-0.255,0.029-0.412,0.043-0.468,0.043
			c-0.228,0-0.425,0.057-0.596,0.17c-0.34,0.228-0.595,0.397-0.766,0.511l-0.212,0.212c-0.085,0.085-0.186,0.128-0.298,0.128
			l-0.851,0.511l-0.341,0.68c-0.34,0-0.539,0.058-0.595,0.171v0.085l0.255,0.085v0.17c-0.058,0-0.143,0.029-0.255,0.085
			c-0.341,0.567-0.568,0.851-0.681,0.851c-0.058,0.058-0.085,0.37-0.085,0.937c0,0.057,0.056,0.27,0.17,0.638
			c0.112,0.369,0.17,0.596,0.17,0.681s0.028,0.284,0.085,0.595c0.056,0.312,0.085,0.525,0.085,0.639l0.256,1.105
			c-0.058,0.058-0.115,0.17-0.171,0.341l0.085,0.425c0.057,0.341,0.086,0.54,0.086,0.596c0,0.057,0.056,0.242,0.17,0.553
			c0.112,0.312,0.17,0.525,0.17,0.638l0.596,1.106l0.595,0.51c0,0.058,0.142,0.37,0.426,0.937c0.34,0.737,0.481,1.19,0.425,1.36
			c0,0.058-0.114,0.143-0.34,0.256c-0.228,0-0.397,0.029-0.511,0.085c-0.17,0.057-0.68,0.482-1.53,1.275l-1.702,0.937
			c-0.681,0.34-1.05,0.539-1.105,0.595c-0.058,0.058-0.242,0.298-0.553,0.724c-0.312,0.425-0.482,0.681-0.511,0.766
			c-0.029,0.085-0.213,0.327-0.553,0.723c-0.341,0.397-0.567,0.681-0.681,0.851c-0.114,0.17-0.199,0.54-0.255,1.106
			c-0.058,0.567-0.085,0.907-0.085,1.021c-0.228,0.681-0.341,1.105-0.341,1.275c0,0.171-0.242,0.625-0.723,1.361
			c-0.482,0.738-0.724,1.163-0.724,1.276c-0.397,0.907-0.624,1.461-0.681,1.658c-0.057,0.2-0.199,0.78-0.425,1.744
			c-0.228,0.965-0.341,1.503-0.341,1.616c0,0.114-0.127,0.567-0.383,1.361c-0.255,0.795-0.411,1.276-0.468,1.446l0.086,1.701
			c-0.511,0.397-0.766,0.681-0.766,0.851c0,0.057-0.101,0.327-0.298,0.809c-0.199,0.482-0.327,0.779-0.383,0.893
			c-0.17,0.17-0.17,0.625,0,1.361c0,0.057,0.085,0.114,0.255,0.17c0.17,0.058,0.325,0.1,0.468,0.128
			c0.141,0.029,0.269,0.042,0.383,0.042c-0.057,0.058-0.284,0.213-0.681,0.468c-0.397,0.256-0.822,0.511-1.275,0.766
			c-0.455,0.256-0.71,0.412-0.766,0.468c-0.397,0.228-1.136,1.078-2.212,2.553c-0.341,0.51-0.511,1.39-0.511,2.637
			c0,0.228-0.029,0.851-0.085,1.871c-0.057,0.171-0.071,0.525-0.042,1.063c0.027,0.54,0.042,0.979,0.042,1.318
			c0.056,0.171,0.155,0.766,0.298,1.787c0.141,1.021,0.24,1.646,0.298,1.871c0.226,0.397,0.425,1.248,0.596,2.552
			c0.056,0.058,0.112,1.233,0.17,3.53c0.056,2.297,0.17,3.645,0.34,4.041c0.056,0.34,0.128,0.795,0.213,1.361
			c0.085,0.567,0.17,1.092,0.255,1.573c0.085,0.482,0.128,0.78,0.128,0.894c0.056,0.17,0.014,0.454-0.128,0.851
			c-0.142,0.397-0.212,0.652-0.212,0.766l-0.086,1.446c0.227,0.34,0.369,0.539,0.426,0.595c-0.397,0.511-1.078,1.051-2.042,1.616
			c-0.397,0.341-0.766,0.568-1.105,0.681l-1.956,1.276l-0.086,1.531c0.057,0.228,0.766,0.596,2.127,1.105
			c1.701,0.681,3.261,0.851,4.679,0.511c1.134-0.227,2.637-0.964,4.509-2.212c0.17-0.17,0.708-0.396,1.616-0.681
			c0.906-0.283,1.389-0.453,1.446-0.51l1.021-0.852l-0.17-1.36h-0.085c0-0.396-0.171-1.106-0.511-2.127l-0.17-0.34
			c-0.058-0.227-0.085-0.396-0.085-0.511l-0.086-0.426c-0.113-0.282-0.185-0.468-0.212-0.553c-0.029-0.085-0.043-0.325-0.043-0.723
			v-0.681c-0.17-0.681-0.255-1.134-0.255-1.361v-0.681c0.056-0.453,0.085-0.708,0.085-0.766c0-0.396-0.029-1.134-0.085-2.211v-1.106
			l0.085-0.851c0-1.871,0.056-2.863,0.17-2.978v-1.828c0-0.879-0.057-1.375-0.17-1.489c-0.17-0.566-0.255-1.247-0.255-2.041
			c0-0.057,0.17-0.256,0.51-0.596c0.057-0.056,0.113-0.113,0.17-0.17v-1.191c0.057-0.056,0.171-0.085,0.341-0.085h1.19
			c0.171-0.056,0.426-0.155,0.766-0.298c0.341-0.141,0.539-0.213,0.596-0.213h1.361l1.021-0.255l-0.681,22.713
			c0.227,0.17,0.453,0.255,0.681,0.255h0.426c1.076-11.172,1.786-18.26,2.126-21.267l0.426,0.341l0.17,13.695
			c0.17,0.17,0.341,0.255,0.511,0.255l0.425-0.255l0.766-12.59c0.227,0.567,0.396,0.908,0.511,1.021l-0.085,0.681
			c-0.114,0.511-0.17,0.851-0.17,1.021c0.17,0.738,0.453,1.504,0.851,2.297v1.872c0,1.19,0.027,1.844,0.085,1.956
			c0.17,1.929,0.255,3.347,0.255,4.254v5.784c-0.057,0.057-0.27,0.327-0.638,0.808c-0.369,0.483-0.61,0.865-0.724,1.148
			c-0.057,0.285,0.113,0.993,0.511,2.127c0.056,0.228,0.099,0.455,0.128,0.681c0.027,0.228-0.015,0.425-0.128,0.596v0.34l0.596,0.17
			c-0.058,0.228-0.085,0.455-0.085,0.681c0,0.058-0.1,0.284-0.298,0.681c-0.199,0.397-0.44,0.78-0.724,1.148
			c-0.284,0.369-0.482,0.61-0.595,0.723c-0.567,1.078-0.936,1.616-1.106,1.616v0.171c-0.057,0.114-0.142,0.17-0.255,0.17
			c-0.511,0.228-0.737,0.511-0.681,0.851l-0.255,1.871c0.056,0.171,0.523,0.354,1.403,0.554c0.879,0.197,1.432,0.297,1.659,0.297
			c0.056,0,0.693,0.057,1.914,0.171c1.219,0.112,2.055,0.17,2.509,0.17c0.794,0,1.729-0.397,2.808-1.191
			c0.51-0.397,0.991-1.219,1.446-2.467l0.17-0.255l0.511-0.511c0.17-0.226,0.311-0.396,0.425-0.51l0.511-1.361l-0.256-1.106h-0.255
			l-0.34-1.701c0.056-0.396,0.085-0.651,0.085-0.766l0.34-0.851c0.283-0.566,0.426-0.906,0.426-1.021
			c0-0.113-0.043-0.311-0.128-0.596c-0.085-0.283-0.128-0.48-0.128-0.596v-1.36l0.086-2.382c0-0.056-0.058-0.283-0.171-0.681
			c-0.114-0.396-0.199-0.651-0.255-0.766c-0.058-0.113,0-0.523,0.17-1.233c0.17-0.709,0.256-1.077,0.256-1.106
			c0-0.027,0.07-0.41,0.212-1.147s0.213-1.191,0.213-1.361s0.014-0.468,0.043-0.894c0.027-0.425,0.056-0.893,0.085-1.403
			c0.027-0.511,0.042-0.794,0.042-0.851v-3.232c0-0.056,0.043-0.256,0.128-0.596c0.085-0.341,0.128-0.566,0.128-0.681l-0.256-1.361
			c0.056-0.51,0.142-0.878,0.256-1.105c0-0.056,0.027-0.255,0.085-0.596c0.056-0.34,0.085-0.566,0.085-0.681
			c0-0.056-0.17-0.368-0.511-0.936l0.255-0.34c0.171-0.056,0.256-0.142,0.256-0.256l0.596-0.51c0.17-0.056,0.368-0.17,0.595-0.341
			l5.02,0.256c0.34,0.17,0.595,0.284,0.766,0.34l0.34,0.511c0.681,14.916,1.049,22.486,1.105,22.712l0.937-0.085l0.681-25.689
			L427.877,212z"/>
	</g>
</g>
</svg>
