<?xml version="1.0" encoding="utf-8"?>
<!-- Generator: Adobe Illustrator 17.1.0, SVG Export Plug-In . SVG Version: 6.00 Build 0)  -->
<!DOCTYPE svg PUBLIC "-//W3C//DTD SVG 1.1//EN" "http://www.w3.org/Graphics/SVG/1.1/DTD/svg11.dtd">
<svg version="1.1" id="Rectangle_1_1_" xmlns="http://www.w3.org/2000/svg" xmlns:xlink="http://www.w3.org/1999/xlink" x="0px"
	 y="0px" viewBox="0 0 736 416" enable-background="new 0 0 736 416" xml:space="preserve">
<g id="Rectangle_1">
	<g>
		<path fill="#FFFFFF" d="M366.5,164c-24,0-43.5,19.5-43.5,43.5s19.5,43.5,43.5,43.5s43.5-19.5,43.5-43.5S390.5,164,366.5,164
			L366.5,164z M366.5,241.6c-18.8,0-34.1-15.3-34.1-34.1s15.3-34.1,34.1-34.1c18.8,0,34.1,15.3,34.1,34.1S385.3,241.6,366.5,241.6
			L366.5,241.6z M366.5,176.9l-4.5,29.3c-0.1,0.4-0.2,0.8-0.2,1.3c0,2.5,2,4.5,4.4,4.7l0,0.1l0.8-0.2c0.3,0,0.5-0.1,0.8-0.2
			l23.4-4.5l-20.6-4L366.5,176.9L366.5,176.9z"/>
	</g>
</g>
</svg>
