<?xml version="1.0" encoding="utf-8"?>
<!-- Generator: Adobe Illustrator 16.0.0, SVG Export Plug-In . SVG Version: 6.00 Build 0)  -->
<!DOCTYPE svg PUBLIC "-//W3C//DTD SVG 1.1//EN" "http://www.w3.org/Graphics/SVG/1.1/DTD/svg11.dtd">
<svg version="1.1" id="p_1_" xmlns="http://www.w3.org/2000/svg" xmlns:xlink="http://www.w3.org/1999/xlink" x="0px" y="0px"
	 width="736px" height="416px" viewBox="0 0 736 416" enable-background="new 0 0 736 416" xml:space="preserve">
<g id="p">
	<g>
		<path fill="#FFFFFF" d="M400.056,233.955c-4.245-3.626-8.66-6.501-13.245-8.625c-4.589-2.121-8.183-3.388-10.781-3.799
			c-0.549,0-0.995-0.479-1.335-1.438c-0.344-0.956-0.514-1.916-0.514-2.875v-1.438c3.831-3.831,6.161-8.349,6.982-13.554
			c1.777,0,3.01-1.47,3.696-4.415c0.684-2.942,0.205-5.166-1.438-6.674c0-0.135,0.032-0.786,0.103-1.951
			c0.067-1.161,0.135-2.224,0.205-3.183c0.067-0.957,0.032-2.224-0.103-3.8c-0.138-1.572-0.378-2.978-0.719-4.21
			c-0.343-1.231-0.959-2.566-1.848-4.004c-0.893-1.438-1.951-2.635-3.184-3.594c-1.231-0.956-2.843-1.746-4.825-2.361
			c-1.986-0.616-4.281-0.925-6.88-0.925c-2.603,0-4.896,0.309-6.88,0.925c-1.985,0.615-3.594,1.405-4.825,2.361
			c-1.232,0.959-2.295,2.156-3.184,3.594c-0.892,1.438-1.508,2.772-1.848,4.004c-0.344,1.232-0.584,2.638-0.719,4.21
			c-0.139,1.576-0.174,2.843-0.103,3.8c0.067,0.959,0.135,2.021,0.205,3.183c0.067,1.165,0.103,1.816,0.103,1.951
			c-1.643,1.508-2.124,3.731-1.438,6.674c0.684,2.945,1.916,4.415,3.696,4.415c0.411,2.33,1.197,4.621,2.361,6.88
			c1.162,2.259,2.224,3.937,3.184,5.031l1.438,1.643c0,3.696-0.616,5.615-1.849,5.75c-2.602,0.411-6.195,1.678-10.781,3.799
			c-4.588,2.124-9.003,4.999-13.245,8.625c-4.245,3.626-6.366,7.22-6.366,10.781h80.5
			C406.422,241.175,404.298,237.581,400.056,233.955z"/>
	</g>
</g>
</svg>
