<?xml version="1.0" encoding="utf-8"?>
<!-- Generator: Adobe Illustrator 16.0.0, SVG Export Plug-In . SVG Version: 6.00 Build 0)  -->
<!DOCTYPE svg PUBLIC "-//W3C//DTD SVG 1.1//EN" "http://www.w3.org/Graphics/SVG/1.1/DTD/svg11.dtd">
<svg version="1.1" id="U_1_" xmlns="http://www.w3.org/2000/svg" xmlns:xlink="http://www.w3.org/1999/xlink" x="0px" y="0px"
	 width="736px" height="416px" viewBox="0 0 736 416" enable-background="new 0 0 736 416" xml:space="preserve">
<g id="U">
	<g>
		<path fill="#FFFFFF" d="M355.268,224.058c3.215-2.034,6.481-3.642,9.804-4.821c-1.394-1.929-2.41-3.963-3.054-6.107
			c-1.072-0.965-1.929-2.195-2.571-3.696c-0.537-1.607-0.698-3.268-0.482-4.982c0.105-1.178,0.428-2.25,0.965-3.214
			c-0.643-6.213,0.535-10.981,3.535-14.304c1.713-1.821,3.803-3.159,6.269-4.019c-0.644-6.533-4.556-9.803-11.732-9.803
			c-1.715,0-3.27,0.216-4.661,0.643c-1.394,0.43-2.49,0.939-3.294,1.526c-0.804,0.591-1.502,1.366-2.09,2.331
			c-0.59,0.964-0.991,1.848-1.205,2.651c-0.216,0.804-0.377,1.743-0.482,2.812c-0.107,1.072-0.136,1.929-0.08,2.571
			c0.053,0.643,0.133,1.768,0.241,3.375c-1.072,0.965-1.394,2.438-0.965,4.42c0.428,1.983,1.23,2.974,2.411,2.974
			c0.321,1.606,0.884,3.161,1.688,4.66c0.804,1.502,1.499,2.599,2.089,3.295c0.588,0.698,0.938,1.044,1.045,1.044
			c0,2.467-0.482,3.752-1.446,3.857c-3.108,0.537-7.26,2.411-12.455,5.625c-5.198,3.215-7.795,6.484-7.795,9.804h23.143
			C354.569,224.486,354.946,224.273,355.268,224.058z M395.205,228.396c-5.198-3.214-9.349-5.088-12.455-5.625
			c-0.964-0.105-1.446-1.391-1.446-3.857c2.571-2.571,4.179-5.569,4.821-8.999c1.178,0,1.981-0.99,2.411-2.974
			c0.427-1.981,0.105-3.455-0.965-4.42c0.105-1.607,0.186-2.732,0.241-3.375c0.053-0.643,0.025-1.499-0.08-2.571
			c-0.108-1.069-0.269-2.009-0.482-2.812c-0.216-0.804-0.618-1.688-1.205-2.651c-0.591-0.965-1.286-1.74-2.09-2.331
			c-0.804-0.587-1.903-1.097-3.294-1.526c-1.395-0.427-2.948-0.643-4.661-0.643c-1.715,0-3.27,0.216-4.661,0.643
			c-1.394,0.43-2.49,0.939-3.294,1.526c-0.804,0.591-1.502,1.366-2.09,2.331c-0.59,0.964-0.991,1.848-1.205,2.651
			c-0.216,0.804-0.377,1.743-0.482,2.812c-0.107,1.072-0.136,1.929-0.08,2.571c0.053,0.643,0.133,1.768,0.241,3.375
			c-1.072,0.965-1.394,2.438-0.965,4.42c0.428,1.983,1.23,2.974,2.411,2.974c0.321,1.606,0.856,3.161,1.607,4.66
			c0.748,1.502,1.499,2.627,2.25,3.375l0.964,0.964c0,2.467-0.482,3.752-1.446,3.857c-3.108,0.537-7.26,2.411-12.455,5.625
			c-5.198,3.215-7.795,6.481-7.795,9.804h54C403,234.878,400.401,231.611,395.205,228.396z"/>
	</g>
</g>
</svg>
