<?xml version="1.0" encoding="utf-8"?>
<!-- Generator: Adobe Illustrator 16.0.0, SVG Export Plug-In . SVG Version: 6.00 Build 0)  -->
<!DOCTYPE svg PUBLIC "-//W3C//DTD SVG 1.1//EN" "http://www.w3.org/Graphics/SVG/1.1/DTD/svg11.dtd">
<svg version="1.1" id="w_1_" xmlns="http://www.w3.org/2000/svg" xmlns:xlink="http://www.w3.org/1999/xlink" x="0px" y="0px"
	 width="736px" height="416px" viewBox="0 0 736 416" enable-background="new 0 0 736 416" xml:space="preserve">
<g id="w">
	<g>
		<path fill="#FFFFFF" d="M331.526,238.218c-1.097,1.095-1.097,2.259,0,3.491l4.519,4.312c0.956,0.956,2.054,0.821,3.285-0.411
			l22.59-22.178l-6.777-8.01L331.526,238.218z M331.938,195.709c0-0.684,0.103-1.47,0.308-2.361c0.206-0.889,0.581-1.54,1.13-1.951
			c2.326-1.367,4.38-1.71,6.161-1.026c1.777,0.687,3.969,2.534,6.571,5.544c0.272,0.411,0.821,0.276,1.643-0.41
			c0-0.135,1.13-1.197,3.389-3.184c2.259-1.982,3.455-3.045,3.594-3.183c0.41-0.411,0.478-0.821,0.205-1.232
			c-0.411-0.545-1.575-1.982-3.491-4.312c-3.973-5.339,0.751-10.813,14.17-16.429c2.875-1.094,4.312-1.71,4.312-1.848
			c0-0.135-0.138-0.206-0.411-0.206c-7.393-0.135-11.981-0.135-13.759,0c-3.424,0.411-9.106,3.286-17.045,8.625
			c-2.329,1.644-4.655,3.491-6.981,5.545c-0.411,0.411-0.719,1.37-0.925,2.875c-0.205,1.508-0.789,2.67-1.745,3.491
			c-0.959,0.821-2.054,1.232-3.286,1.232c-1.231,0-2.124,0.205-2.669,0.616c-0.139,0.275-0.687,0.754-1.644,1.438
			c-0.959,0.687-1.575,1.097-1.848,1.231c-0.684,0.687-0.684,1.438,0,2.259c3.831,4.245,5.955,6.572,6.366,6.982
			c0.821,0.96,1.643,1.098,2.464,0.411c1.367-1.232,2.465-2.188,3.286-2.875C331.867,196.807,331.938,196.396,331.938,195.709z
			 M410.589,175.379c-0.138-1.095-0.445-1.644-0.924-1.644c-0.481,0-0.924,0.276-1.335,0.822c-2.464,3.834-3.901,6.16-4.312,6.981
			c-2.329,3.835-5.271,4.451-8.83,1.849c-1.643-1.232-2.705-2.429-3.183-3.594c-0.481-1.162-0.651-1.951-0.514-2.361
			c0.135-0.411,0.478-1.162,1.026-2.26c1.778-3.285,3.216-5.679,4.312-7.188c0.135-0.41,0.067-0.889-0.205-1.438
			c-0.276-0.545-0.821-0.615-1.643-0.205c-7.804,3.562-12.116,6.982-12.938,10.268c-0.276,1.37-0.411,3.151-0.411,5.34
			c0,2.191-0.205,4.143-0.616,5.853c-0.41,1.714-1.37,3.389-2.875,5.031l-6.16,6.366l6.16,7.188l7.599-7.188
			c1.094-1.095,2.496-1.951,4.21-2.567c1.71-0.616,3.388-0.719,5.031-0.308c6.571,1.508,11.224-0.411,13.964-5.75
			c1.095-1.777,1.71-4.55,1.849-8.317C410.93,178.494,410.862,176.2,410.589,175.379z M359.661,193.86
			c-0.549-0.683-1.165-0.75-1.849-0.205l-6.571,5.75c-0.687,0.687-0.754,1.303-0.205,1.849l38.196,43.535
			c1.094,1.232,2.259,1.3,3.491,0.206l4.518-3.697c1.232-1.097,1.3-2.259,0.205-3.49L359.661,193.86z"/>
	</g>
</g>
</svg>
