<?xml version="1.0" encoding="utf-8"?>
<!-- Generator: Adobe Illustrator 16.0.0, SVG Export Plug-In . SVG Version: 6.00 Build 0)  -->
<!DOCTYPE svg PUBLIC "-//W3C//DTD SVG 1.1 Tiny//EN" "http://www.w3.org/Graphics/SVG/1.1/DTD/svg11-tiny.dtd">
<svg version="1.1" baseProfile="tiny" id="Ellipse_3_1_"
	 xmlns="http://www.w3.org/2000/svg" xmlns:xlink="http://www.w3.org/1999/xlink" x="0px" y="0px" width="736px" height="416px"
	 viewBox="0 0 736 416" xml:space="preserve">
<g id="Ellipse_3">
	<path fill="#FFFFFF" d="M414.5,194c-0.171,0-0.338,0.018-0.5,0.051V181c0-1.657-1.343-3-3-3h-53c-1.657,0-3,1.343-3,3v2h-3
		c1.104,0,2-0.896,2-2v-1c0-1.104-0.896-2-2-2h-11c-1.104,0-2,0.896-2,2v1c0,1.104,0.896,2,2,2h-9v-1h1c0.553,0,1-0.447,1-1
		s-0.447-1-1-1h-11c-0.553,0-1,0.447-1,1s0.447,1,1,1h1v1h-3c-1.657,0-3,1.343-3,3v3.512c-0.419-0.317-0.935-0.512-1.5-0.512
		c-1.381,0-2.5,1.119-2.5,2.5s1.119,2.5,2.5,2.5c0.565,0,1.081-0.194,1.5-0.512V234c0,1.657,1.343,3,3,3h91c1.657,0,3-1.343,3-3
		v-35.051c0.162,0.033,0.329,0.051,0.5,0.051c1.381,0,2.5-1.119,2.5-2.5S415.881,194,414.5,194z M315.5,193
		c-0.828,0-1.5-0.672-1.5-1.5s0.672-1.5,1.5-1.5s1.5,0.672,1.5,1.5S316.328,193,315.5,193z M360,184h13v4h-13V184z M376,230
		c-8.837,0-16-7.163-16-16s7.163-16,16-16s16,7.163,16,16S384.837,230,376,230z M407,193h-18v-11h18V193z M414.5,198
		c-0.176,0-0.343-0.036-0.5-0.092v-2.816c0.157-0.056,0.324-0.092,0.5-0.092c0.828,0,1.5,0.672,1.5,1.5S415.328,198,414.5,198z"/>
</g>
</svg>
