<?xml version="1.0" encoding="utf-8"?>
<!-- Generator: Adobe Illustrator 16.0.0, SVG Export Plug-In . SVG Version: 6.00 Build 0)  -->
<!DOCTYPE svg PUBLIC "-//W3C//DTD SVG 1.1//EN" "http://www.w3.org/Graphics/SVG/1.1/DTD/svg11.dtd">
<svg version="1.1" xmlns="http://www.w3.org/2000/svg" xmlns:xlink="http://www.w3.org/1999/xlink" x="0px" y="0px" width="290px"
	 height="290px" viewBox="0 0 290 290" enable-background="new 0 0 290 290" xml:space="preserve">
<g id="cartalyst_1_" enable-background="new    ">
	<g id="cartalyst">
		<g>
			<path d="M77.375,249.662c-0.96,0.183-1.937,0.273-2.928,0.273c-2.657,0-4.545-0.69-5.665-2.074
				c-1.121-1.383-1.68-3.261-1.68-5.632c0-2.463,0.592-4.37,1.776-5.723c1.184-1.353,2.912-2.029,5.184-2.029
				c0.96,0,1.864,0.091,2.712,0.273c0.848,0.183,1.608,0.41,2.28,0.684l1.248-4.514c-2.112-0.821-4.353-1.231-6.721-1.231
				c-1.92,0-3.648,0.319-5.185,0.957c-1.536,0.639-2.84,1.521-3.912,2.646c-1.073,1.125-1.896,2.455-2.472,3.99
				c-0.576,1.535-0.864,3.185-0.864,4.947c0,1.794,0.256,3.458,0.768,4.993c0.512,1.535,1.288,2.857,2.328,3.967
				c1.04,1.11,2.353,1.977,3.937,2.6s3.448,0.935,5.593,0.935c1.375,0,2.712-0.122,4.008-0.364c1.296-0.243,2.264-0.517,2.904-0.821
				l-0.816-4.56C79.167,249.252,78.334,249.479,77.375,249.662z M99.144,232.289c-0.785-0.821-1.833-1.46-3.145-1.916
				c-1.312-0.456-2.928-0.684-4.849-0.684c-1.601,0-3.104,0.122-4.512,0.364c-1.409,0.244-2.48,0.487-3.216,0.73l0.72,4.469
				c0.704-0.243,1.616-0.456,2.736-0.639c1.12-0.183,2.352-0.273,3.696-0.273c0.991,0,1.816,0.122,2.472,0.364
				c0.655,0.244,1.184,0.586,1.584,1.026c0.4,0.441,0.68,0.95,0.84,1.527c0.16,0.578,0.24,1.186,0.24,1.824v0.912
				c-0.8-0.183-1.553-0.312-2.256-0.388c-0.704-0.075-1.376-0.114-2.016-0.114c-1.376,0-2.696,0.13-3.96,0.388
				c-1.265,0.259-2.376,0.685-3.336,1.277c-0.96,0.593-1.721,1.36-2.28,2.303c-0.561,0.942-0.84,2.098-0.84,3.465
				c0,1.43,0.248,2.63,0.744,3.603c0.496,0.974,1.184,1.764,2.064,2.371c0.88,0.608,1.944,1.049,3.192,1.323
				c1.249,0.273,2.624,0.41,4.128,0.41c2.272,0,4.312-0.13,6.121-0.388c1.808-0.258,3.16-0.479,4.057-0.661v-14.455
				c0-1.398-0.168-2.683-0.504-3.854C100.488,234.105,99.928,233.109,99.144,232.289z M95.711,249.981
				c-0.929,0.183-2.289,0.273-4.08,0.273c-1.473,0-2.641-0.251-3.504-0.752c-0.864-0.502-1.296-1.406-1.296-2.714
				c0-0.668,0.16-1.223,0.48-1.664c0.32-0.44,0.744-0.782,1.272-1.026c0.528-0.242,1.12-0.41,1.776-0.501
				c0.656-0.092,1.304-0.137,1.944-0.137c0.736,0,1.408,0.045,2.016,0.137c0.607,0.091,1.072,0.182,1.392,0.273V249.981z
				 M118.706,230.031c-0.512-0.075-1.024-0.137-1.536-0.183c-0.512-0.045-0.96-0.068-1.344-0.068c-2.048,0-3.912,0.176-5.592,0.524
				c-1.68,0.351-3.081,0.723-4.201,1.117v22.709h5.809v-19.106c0.288-0.091,0.792-0.197,1.512-0.319
				c0.72-0.121,1.399-0.182,2.04-0.182c1.12,0,2.104,0.084,2.953,0.25c0.847,0.168,1.512,0.327,1.992,0.479l1.008-4.651
				c-0.288-0.092-0.672-0.189-1.152-0.297C119.714,230.199,119.217,230.107,118.706,230.031z M135.531,249.616
				c-0.816,0.214-1.752,0.319-2.809,0.319c-1.536,0-2.625-0.41-3.264-1.231c-0.641-0.82-0.96-2.188-0.96-4.104v-9.713h8.929v-4.605
				h-8.929v-7.205l-5.809,0.912v20.657c0,1.581,0.144,2.986,0.432,4.218s0.784,2.28,1.488,3.146
				c0.704,0.866,1.656,1.527,2.856,1.983s2.696,0.684,4.488,0.684c1.472,0,2.752-0.145,3.84-0.433
				c1.088-0.289,1.968-0.57,2.641-0.844l-0.96-4.378C136.995,249.206,136.347,249.404,135.531,249.616z M156.989,232.289
				c-0.784-0.821-1.833-1.46-3.145-1.916c-1.312-0.456-2.929-0.684-4.849-0.684c-1.601,0-3.104,0.122-4.512,0.364
				c-1.409,0.244-2.48,0.487-3.216,0.73l0.72,4.469c0.704-0.243,1.616-0.456,2.736-0.639c1.12-0.183,2.352-0.273,3.696-0.273
				c0.992,0,1.816,0.122,2.473,0.364c0.656,0.244,1.184,0.586,1.584,1.026c0.4,0.441,0.68,0.95,0.84,1.527
				c0.16,0.578,0.24,1.186,0.24,1.824v0.912c-0.801-0.183-1.553-0.312-2.256-0.388c-0.705-0.075-1.377-0.114-2.017-0.114
				c-1.376,0-2.696,0.13-3.96,0.388c-1.265,0.259-2.376,0.685-3.336,1.277s-1.721,1.36-2.28,2.303
				c-0.561,0.942-0.84,2.098-0.84,3.465c0,1.43,0.248,2.63,0.744,3.603c0.496,0.974,1.184,1.764,2.064,2.371
				c0.88,0.608,1.944,1.049,3.192,1.323c1.248,0.273,2.624,0.41,4.128,0.41c2.272,0,4.312-0.13,6.121-0.388
				c1.808-0.258,3.16-0.479,4.057-0.661v-14.455c0-1.398-0.168-2.683-0.504-3.854C158.334,234.105,157.773,233.109,156.989,232.289z
				 M153.557,249.981c-0.928,0.183-2.288,0.273-4.08,0.273c-1.473,0-2.641-0.251-3.504-0.752c-0.865-0.502-1.297-1.406-1.297-2.714
				c0-0.668,0.16-1.223,0.48-1.664c0.319-0.44,0.744-0.782,1.271-1.026c0.528-0.242,1.12-0.41,1.776-0.501
				c0.655-0.092,1.304-0.137,1.944-0.137c0.736,0,1.408,0.045,2.016,0.137c0.608,0.091,1.072,0.182,1.393,0.273V249.981z
				 M173.431,250.027c-0.769-0.092-1.4-0.221-1.896-0.388c-0.497-0.167-0.888-0.411-1.176-0.729
				c-0.288-0.319-0.488-0.707-0.601-1.163s-0.168-1.019-0.168-1.688v-27.314l-5.809,0.912v27.451c0,1.186,0.137,2.242,0.408,3.169
				c0.271,0.928,0.744,1.703,1.416,2.326s1.576,1.103,2.713,1.437c1.135,0.334,2.568,0.517,4.296,0.547L173.431,250.027z
				 M187.795,239.151c-0.893,3.056-1.848,5.936-2.867,8.642c-0.611-1.307-1.221-2.721-1.832-4.241
				c-0.61-1.52-1.188-3.047-1.734-4.583c-0.546-1.534-1.053-3.047-1.518-4.537c-0.467-1.489-0.859-2.873-1.181-4.149h-6.192
				c1.316,4.438,2.819,8.634,4.507,12.586s3.447,7.6,5.28,10.943c-0.645,1.429-1.391,2.485-2.243,3.17
				c-0.853,0.684-2.034,1.025-3.544,1.025c-1.125,0-2.268-0.213-3.424-0.639l-1.057,4.424c0.449,0.212,1.113,0.41,1.994,0.593
				s1.771,0.273,2.668,0.273c1.346,0,2.53-0.145,3.556-0.434c1.024-0.289,1.954-0.752,2.787-1.391s1.586-1.444,2.259-2.417
				s1.33-2.143,1.971-3.511c3.417-7.356,6.42-15.564,9.008-24.624h-6C189.499,233.14,188.688,236.096,187.795,239.151z
				 M212.962,243.027c-0.624-0.593-1.416-1.124-2.376-1.596c-0.961-0.472-2.129-0.95-3.504-1.437
				c-0.833-0.273-1.537-0.539-2.113-0.798c-0.576-0.258-1.04-0.517-1.392-0.775c-0.353-0.258-0.601-0.539-0.744-0.844
				c-0.144-0.304-0.216-0.653-0.216-1.049c0-0.79,0.367-1.375,1.104-1.756c0.736-0.38,1.696-0.569,2.881-0.569
				c1.312,0,2.464,0.113,3.456,0.342c0.991,0.228,1.808,0.479,2.448,0.752l1.057-4.469c-0.672-0.243-1.681-0.493-3.025-0.752
				c-1.344-0.258-2.752-0.388-4.224-0.388c-2.913,0-5.217,0.631-6.913,1.893s-2.544,2.986-2.544,5.176
				c0,1.125,0.184,2.074,0.552,2.85c0.367,0.775,0.872,1.437,1.513,1.983c0.64,0.547,1.399,1.026,2.28,1.437
				c0.879,0.41,1.848,0.798,2.904,1.163c1.729,0.608,2.968,1.17,3.721,1.687c0.751,0.518,1.127,1.171,1.127,1.961
				c0,0.852-0.352,1.452-1.056,1.802s-1.824,0.524-3.36,0.524s-2.904-0.152-4.104-0.456s-2.231-0.623-3.097-0.958l-1.008,4.605
				c0.544,0.213,1.488,0.495,2.832,0.844c1.345,0.35,3.121,0.524,5.329,0.524c3.296,0,5.833-0.586,7.608-1.756
				c1.776-1.17,2.664-2.896,2.664-5.175c0-1.064-0.144-1.977-0.432-2.736S213.586,243.62,212.962,243.027z M232.283,249.023
				c-0.48,0.183-1.128,0.381-1.944,0.593c-0.815,0.214-1.752,0.319-2.808,0.319c-1.537,0-2.625-0.41-3.265-1.231
				c-0.641-0.82-0.96-2.188-0.96-4.104v-9.713h8.929v-4.605h-8.929v-7.205l-5.809,0.912v20.657c0,1.581,0.144,2.986,0.432,4.218
				s0.783,2.28,1.488,3.146c0.703,0.866,1.656,1.527,2.856,1.983s2.695,0.684,4.488,0.684c1.472,0,2.752-0.145,3.841-0.433
				c1.087-0.289,1.968-0.57,2.64-0.844L232.283,249.023z"/>
		</g>
	</g>
</g>
<g id="c_1_" enable-background="new    ">
	<g id="c">
		<g>
			<path d="M206.506,112.447c11.725-8.758,17.59-20.45,17.59-35.072c0-12.291-4.345-22.78-13.033-31.469
				s-19.178-13.033-31.469-13.033c-10.527,0-19.992,3.462-28.396,10.384c4.166,5.229,7.205,10.667,9.111,16.317
				c5.367-5.65,11.797-8.477,19.285-8.477c7.273,0,13.473,2.562,18.595,7.683c5.121,5.122,7.683,11.302,7.683,18.542
				c0,7.241-2.58,13.387-7.735,18.437c-5.157,5.051-11.337,7.576-18.542,7.576c-7.629,0.071-13.986-2.649-19.072-8.159
				c-4.594-4.943-6.888-10.877-6.888-17.801c0-9.96-3.038-18.93-9.112-26.913c-8.831-11.725-20.627-17.589-35.39-17.589
				c-12.291,0-22.746,4.345-31.363,13.033c-8.619,8.688-12.927,19.178-12.927,31.469c0,14.553,5.862,26.243,17.589,35.072
				c7.981,6.076,16.882,9.112,26.701,9.112c6.922,0,12.996,2.402,18.225,7.205c5.367,5.017,8.053,11.374,8.053,19.072
				c0,7.276-2.58,13.475-7.735,18.595c-5.157,5.123-11.355,7.683-18.595,7.683c-7.242,0-13.422-2.578-18.543-7.735
				c-5.122-5.155-7.682-11.337-7.682-18.542c0-7.486,2.755-13.844,8.265-19.072c-6.217-2.331-11.655-5.367-16.317-9.112
				c-6.641,8.053-9.96,17.448-9.96,28.185c0,12.291,4.308,22.746,12.927,31.363c8.617,8.619,19.072,12.927,31.363,12.927
				c14.763,0,26.559-5.862,35.39-17.589c8.758,11.727,20.449,17.589,35.072,17.589c12.291,0,22.78-4.308,31.469-12.927
				c8.688-8.617,13.033-19.072,13.033-31.363C224.096,133.074,218.23,121.278,206.506,112.447z M198.188,166.432
				c-5.122,5.123-11.302,7.683-18.542,7.683c-7.242,0-13.387-2.578-18.437-7.735c-5.052-5.155-7.576-11.337-7.576-18.542
				c0-9.96-3.038-18.93-9.112-26.913c-0.143-0.141-0.336-0.353-0.583-0.636c-0.249-0.281-0.442-0.493-0.583-0.636
				c-2.262-2.755-4.699-5.155-7.311-7.205c-7.983-6.074-16.953-9.112-26.913-9.112c-7.276,0-13.475-2.525-18.596-7.576
				c-5.122-5.05-7.682-11.195-7.682-18.437c0-7.24,2.56-13.42,7.682-18.542c5.121-5.121,11.301-7.683,18.543-7.683
				c7.24,0,13.438,2.58,18.595,7.735c5.155,5.157,7.735,11.337,7.735,18.542c0,9.819,3.036,18.72,9.112,26.701
				c1.695,2.262,4.061,4.769,7.1,7.523c0.141,0.143,0.352,0.283,0.635,0.424c0.281,0.143,0.494,0.283,0.637,0.424
				c7.98,6.076,16.881,9.112,26.701,9.112c7.273,0,13.473,2.579,18.595,7.734c5.121,5.157,7.683,11.355,7.683,18.596
				C205.871,155.131,203.31,161.312,198.188,166.432z"/>
		</g>
	</g>
</g>
</svg>
