<?xml version="1.0" encoding="utf-8"?>
<!-- Generator: Adobe Illustrator 16.0.0, SVG Export Plug-In . SVG Version: 6.00 Build 0)  -->
<!DOCTYPE svg PUBLIC "-//W3C//DTD SVG 1.1//EN" "http://www.w3.org/Graphics/SVG/1.1/DTD/svg11.dtd">
<svg version="1.1" id="Layer_1" xmlns="http://www.w3.org/2000/svg" xmlns:xlink="http://www.w3.org/1999/xlink" x="0px" y="0px"
	 width="174.5px" height="174.5px" viewBox="0 0 174.5 174.5" enable-background="new 0 0 174.5 174.5" xml:space="preserve">
<g>
	<path fill="none" d="M47.864,87.416c1.042,0.521,2.083,0.868,3.034,1.116l0.319-0.398c-0.565-0.195-1.144-0.428-1.724-0.718
		c-3.688-1.845-5.8-4.967-6.314-9.288H41.55C42.065,82.449,44.176,85.571,47.864,87.416z"/>
	<path fill="none" d="M44.797,73.815h17.875l0.019-0.023h-0.013l4.37-5.46h0.011l4.386-5.483H57.791
		C56.535,62.857,46.057,63.249,44.797,73.815z"/>
	<polygon fill="none" points="62.009,83.588 66.376,78.128 64.748,78.128 60.38,83.588 60.377,83.588 59.139,85.136 59.222,85.136 
		56.052,89.099 57.681,89.099 60.851,85.136 60.768,85.136 62.006,83.588 	"/>
	<polygon fill="none" points="90.175,58.536 111.175,32.286 104.667,32.286 83.668,58.536 	"/>
	<polygon fill="none" points="74.21,68.332 74.229,68.332 78.596,62.872 78.578,62.872 78.596,62.849 76.967,62.849 76.949,62.872 
		76.967,62.872 72.6,68.332 72.581,68.332 68.194,73.815 69.823,73.815 	"/>
	<polygon fill="none" points="103.045,32.286 101.416,32.286 80.417,58.536 82.046,58.536 	"/>
	<polygon fill="none" points="80.2,62.872 80.218,62.872 75.851,68.332 75.832,68.332 71.445,73.815 77.853,73.815 77.952,73.815 
		86.725,62.849 80.218,62.849 	"/>
	<path fill="none" d="M51.115,87.416c0.166,0.083,0.331,0.151,0.496,0.225l7.611-9.513H44.801
		C45.316,82.449,47.427,85.571,51.115,87.416z"/>
	<path fill="none" d="M126.044,62.872h0.019l-4.368,5.46h-0.02l-4.386,5.483h6.604h7.051c1.257-0.009,11.746-0.394,13.002-10.967
		h-17.884L126.044,62.872z"/>
	<polygon fill="none" points="71.248,89.099 72.877,89.099 81.654,78.128 80.121,78.128 80.024,78.128 	"/>
	<polygon fill="none" points="120.072,68.332 124.439,62.872 124.422,62.872 124.439,62.849 122.811,62.849 122.793,62.872 
		122.811,62.872 118.443,68.332 118.424,68.332 114.037,73.815 114.135,73.815 115.666,73.815 120.053,68.332 	"/>
	<polygon fill="none" points="101.91,89.099 103.439,89.099 112.217,78.128 110.684,78.128 110.588,78.128 101.811,89.099 	"/>
	<polygon fill="none" points="74.499,89.099 81.007,89.099 89.784,78.128 83.275,78.128 	"/>
	<polygon fill="none" points="98.461,93.411 98.36,93.411 89.587,104.378 91.216,104.378 99.989,93.411 	"/>
	<polygon fill="none" points="105.064,78.128 98.637,78.128 94.269,83.588 94.188,83.588 92.951,85.136 93.024,85.136 
		89.855,89.099 96.289,89.099 	"/>
	<polygon fill="none" points="91.329,85.136 92.566,83.588 92.646,83.588 97.014,78.128 95.387,78.128 95.385,78.128 91.018,83.588 
		90.938,83.588 89.7,85.136 89.773,85.136 86.604,89.099 88.233,89.099 91.402,85.136 	"/>
	<path fill="none" d="M115.663,93.411h-7.444h-6.607l-8.773,10.967h35.825C127.352,93.542,116.168,93.411,115.663,93.411z"/>
	<polygon fill="none" points="71.049,93.411 62.275,104.378 68.783,104.378 77.557,93.411 	"/>
	<path fill="none" d="M56.169,62.849H54.54c-1.256,0.009-11.734,0.4-12.994,10.967h1.629C44.435,63.249,54.913,62.857,56.169,62.849
		z"/>
	<path fill="none" d="M45.936,91.273c-3.525-1.763-7.594-5.315-8.566-12.189c-3.696,1.328-7.982,4.516-7.982,12.171
		c0,8.517,5.417,11.501,9.294,12.55l9.327-11.661C47.329,91.899,46.636,91.623,45.936,91.273z"/>
	<path fill="none" d="M27.766,91.255c0-8.767,5.623-11.676,9.54-12.642c-0.013-0.105-0.031-0.205-0.042-0.312
		c-3.739,0.552-11.126,2.905-11.126,12.954c0,11.003,9.052,12.782,12.13,13.068l0.164-0.204
		C34.624,103.42,27.766,100.834,27.766,91.255z"/>
	<polygon fill="none" points="67.798,93.411 59.024,104.378 60.653,104.378 69.427,93.411 	"/>
	<polygon fill="none" points="74.401,78.128 67.999,78.128 63.631,83.588 63.628,83.588 62.39,85.136 62.473,85.136 59.303,89.099 
		65.725,89.099 74.501,78.128 	"/>
	<path d="M149.477,58.536h-1.622c1.19,0,2.156,0.965,2.156,2.156c0,8.996-4.804,13.285-8.833,15.3
		c-4.224,2.11-8.42,2.136-8.604,2.136h1.621c0.001,0,0.001,0,0.001,0c0.185,0,4.381-0.025,8.605-2.136
		c4.029-2.015,8.832-6.304,8.832-15.3C151.633,59.501,150.668,58.536,149.477,58.536z"/>
	<path d="M118.914,89.099h-1.622c6.03,0,17.438,3.646,17.438,17.436c0,1.191-0.966,2.156-2.156,2.156h1.622
		c1.191,0,2.156-0.965,2.156-2.156C136.352,92.744,124.944,89.099,118.914,89.099z"/>
	<path d="M115.663,89.099h-3.993h-6.608l8.776-10.971h6.604h10.502c0.001,0,0.001,0,0.001,0c0.185,0,4.381-0.025,8.604-2.136
		c4.029-2.015,8.833-6.304,8.833-15.3c0-1.191-0.966-2.156-2.156-2.156h-16.714l21.646-27.057c0.744-0.931,0.594-2.286-0.337-3.032
		c-0.63-0.505-1.456-0.588-2.157-0.303c0.188,0.076,0.369,0.17,0.535,0.303c0.931,0.746,1.081,2.102,0.337,3.032l-21.646,27.057
		h-1.629l21.646-27.057c0.744-0.931,0.594-2.286-0.337-3.032c-0.928-0.743-2.285-0.592-3.03,0.337l-23.803,29.752h-5.076
		c-1.19,0-2.156,0.965-2.156,2.156s0.966,2.156,2.156,2.156h1.628l-8.773,10.967h-6.508l0.019-0.023h0.063l4.367-5.46h-0.063
		l29.482-36.853c0.744-0.931,0.594-2.286-0.337-3.032c-0.631-0.505-1.457-0.588-2.157-0.303c0.188,0.076,0.37,0.17,0.535,0.303
		c0.931,0.746,1.081,2.102,0.337,3.032l-29.482,36.853h0.064l-4.369,5.46h-0.062l-0.02,0.023h-1.547h-0.082l0.02-0.023h0.062
		l4.369-5.46h-0.064l29.482-36.853c0.744-0.931,0.594-2.286-0.337-3.032c-0.928-0.743-2.287-0.592-3.03,0.337L93.232,73.815h-6.507
		l33.871-42.338c0.518-0.648,0.619-1.535,0.26-2.282c-0.359-0.746-1.115-1.222-1.943-1.222h-1.622c0.829,0,1.585,0.476,1.943,1.222
		c0.359,0.747,0.258,1.634-0.26,2.282L85.103,73.815h-1.531h-0.098l33.871-42.338c0.518-0.648,0.619-1.535,0.26-2.282
		c-0.358-0.746-1.114-1.222-1.943-1.222H100.38c-0.655,0-1.274,0.297-1.684,0.809L74.894,58.536H54.54
		c-5.722,0-16.263,3.3-17.329,15.416c-6.243,0.743-15.387,4.944-15.387,17.303c0,13.79,11.405,17.436,17.435,17.436
		c0.655,0,1.275-0.297,1.684-0.809l8.331-10.413h0.011l3.365-4.205c0.666,0.083,1.192,0.119,1.521,0.135l-3.257,4.07h-0.012
		l-8.33,10.413c-0.322,0.403-0.776,0.666-1.273,0.763c0.422,0.031,0.828,0.046,1.211,0.046c0.655,0,1.275-0.297,1.684-0.809
		l8.33-10.413h0.012l3.247-4.058h0.386h1.622h4.483l-9.42,11.775c-0.518,0.648-0.619,1.535-0.26,2.282
		c0.359,0.746,1.115,1.222,1.943,1.222H69.82c0.655,0,1.274-0.297,1.683-0.809l8.33-10.413h0.003l3.245-4.058h1.629l-3.245,4.058
		h-0.003l-8.33,10.413c-0.409,0.512-1.028,0.809-1.683,0.809h1.622c0.655,0,1.274-0.297,1.683-0.809l8.33-10.413h0.003l3.245-4.058
		h6.506l-9.421,11.775c-0.518,0.648-0.619,1.535-0.26,2.282c0.359,0.746,1.115,1.222,1.943,1.222h45.844
		c1.19,0,2.156-0.965,2.156-2.156C133.101,92.744,121.693,89.099,115.663,89.099z M114.135,73.815h-0.098l4.387-5.483h0.02
		l4.367-5.46h-0.018l0.018-0.023h1.629l-0.018,0.023h0.018l-4.367,5.46h-0.02l-4.387,5.483H114.135z M143.946,62.849
		c-1.256,10.573-11.745,10.958-13.002,10.967h-7.051h-6.604l4.386-5.483h0.02l4.368-5.46h-0.019l0.019-0.023H143.946z
		 M110.588,78.128h0.096h1.533l-8.777,10.971h-1.529h-0.1L110.588,78.128z M89.784,78.128l-8.776,10.971h-6.508l8.776-10.971H89.784
		z M81.654,78.128l-8.777,10.971h-1.629l8.776-10.971h0.096H81.654z M77.952,73.815h-0.099h-6.407l4.387-5.483h0.019l4.367-5.46
		H80.2l0.018-0.023h6.507L77.952,73.815z M60.851,85.136l-3.17,3.963h-1.629l3.17-3.963h-0.083l1.238-1.548h0.003l4.367-5.46h1.629
		l-4.367,5.46h-0.003l-1.238,1.548H60.851z M51.611,87.641c-0.166-0.073-0.33-0.142-0.496-0.225
		c-3.688-1.845-5.799-4.967-6.314-9.288h14.421L51.611,87.641z M49.493,87.416c0.581,0.29,1.159,0.522,1.724,0.718l-0.319,0.398
		c-0.951-0.248-1.992-0.596-3.034-1.116c-3.688-1.845-5.799-4.967-6.314-9.288h1.629C43.693,82.449,45.805,85.571,49.493,87.416z
		 M72.581,68.332H72.6l4.367-5.46h-0.018l0.018-0.023h1.629l-0.018,0.023h0.018l-4.367,5.46H74.21l-4.387,5.483h-1.629
		L72.581,68.332z M111.175,32.286l-21,26.25h-6.507l20.999-26.25H111.175z M101.416,32.286h1.629l-20.999,26.25h-1.629
		L101.416,32.286z M71.444,62.849l-4.386,5.483h-0.011l-4.37,5.46h0.013l-0.019,0.023H44.797
		c1.26-10.566,11.738-10.958,12.994-10.967H71.444z M54.54,62.849h1.629c-1.256,0.009-11.734,0.4-12.994,10.967h-1.629
		C42.806,63.249,53.284,62.857,54.54,62.849z M38.267,104.323c-3.079-0.286-12.13-2.065-12.13-13.068
		c0-10.049,7.388-12.402,11.126-12.954c0.011,0.107,0.03,0.207,0.042,0.312c-3.917,0.966-9.54,3.875-9.54,12.642
		c0,9.579,6.858,12.165,10.665,12.864L38.267,104.323z M38.682,103.805c-3.878-1.049-9.294-4.033-9.294-12.55
		c0-7.655,4.286-10.843,7.982-12.171c0.972,6.874,5.041,10.427,8.566,12.189c0.701,0.35,1.394,0.626,2.074,0.87L38.682,103.805z
		 M59.303,89.099l3.17-3.963H62.39l1.238-1.548h0.003l4.367-5.46h6.403h0.1l-8.777,10.971H59.303z M59.024,104.378l8.773-10.967
		h1.629l-8.773,10.967H59.024z M68.783,104.378h-6.508l8.773-10.967h6.508L68.783,104.378z M86.604,89.099l3.169-3.963H89.7
		l1.238-1.548h0.08l4.367-5.46h0.002h1.627l-4.367,5.46h-0.08l-1.238,1.548h0.074l-3.169,3.963H86.604z M89.855,89.099l3.169-3.963
		h-0.073l1.237-1.548h0.08l4.368-5.46h6.428l-8.775,10.971H89.855z M89.587,104.378l8.773-10.967h0.101h1.528l-8.773,10.967H89.587z
		 M92.838,104.378l8.773-10.967h6.607h7.444c0.505,0,11.688,0.131,13,10.967H92.838z"/>
</g>
<g>
	<path d="M44.052,145.348c-0.261-0.69-0.506-1.368-0.736-2.035s-0.468-1.346-0.713-2.036h-7.222l-1.449,4.071h-2.323
		c0.613-1.687,1.188-3.247,1.725-4.681c0.536-1.434,1.062-2.794,1.575-4.082s1.023-2.519,1.53-3.691
		c0.506-1.174,1.035-2.335,1.587-3.485h2.047c0.552,1.15,1.081,2.312,1.587,3.485c0.506,1.173,1.016,2.403,1.53,3.691
		c0.513,1.288,1.039,2.648,1.575,4.082s1.112,2.994,1.725,4.681H44.052z M41.959,139.437c-0.491-1.334-0.978-2.625-1.46-3.875
		c-0.483-1.25-0.986-2.45-1.507-3.6c-0.537,1.149-1.046,2.35-1.529,3.6s-0.962,2.541-1.438,3.875H41.959z"/>
	<path d="M50.953,145.578c-1.319-0.031-2.254-0.314-2.806-0.852c-0.552-0.536-0.828-1.372-0.828-2.507v-14.353l2.139-0.367v14.375
		c0,0.353,0.03,0.644,0.092,0.874c0.061,0.229,0.161,0.414,0.299,0.552c0.138,0.138,0.322,0.241,0.552,0.311
		c0.23,0.068,0.514,0.126,0.851,0.172L50.953,145.578z"/>
	<path d="M54.494,133.388h4.531v1.794h-4.531v5.52c0,0.599,0.046,1.093,0.138,1.484c0.092,0.391,0.23,0.697,0.414,0.92
		c0.184,0.222,0.414,0.379,0.69,0.471c0.276,0.093,0.598,0.139,0.966,0.139c0.644,0,1.162-0.073,1.553-0.219
		s0.663-0.249,0.816-0.311l0.414,1.771c-0.215,0.107-0.59,0.241-1.127,0.402c-0.537,0.161-1.15,0.241-1.84,0.241
		c-0.813,0-1.484-0.104-2.013-0.311s-0.955-0.518-1.276-0.932c-0.322-0.414-0.548-0.923-0.679-1.529
		c-0.13-0.605-0.195-1.307-0.195-2.104v-10.672l2.139-0.368V133.388z"/>
	<path d="M64.82,145.348v-15.939h10.074v2.462h-7.176v4.07h6.371v2.461h-6.371v6.946H64.82z"/>
	<path d="M86.808,139.321c0,0.951-0.138,1.817-0.414,2.6c-0.276,0.782-0.667,1.449-1.173,2.001s-1.116,0.981-1.829,1.288
		s-1.499,0.46-2.357,0.46c-0.859,0-1.641-0.153-2.346-0.46c-0.705-0.307-1.311-0.736-1.817-1.288
		c-0.506-0.552-0.901-1.219-1.185-2.001s-0.425-1.648-0.425-2.6c0-0.95,0.142-1.812,0.425-2.587s0.682-1.438,1.196-1.989
		c0.514-0.553,1.123-0.978,1.829-1.277c0.705-0.299,1.479-0.448,2.323-0.448s1.622,0.149,2.334,0.448
		c0.713,0.3,1.323,0.725,1.829,1.277c0.506,0.552,0.9,1.215,1.185,1.989C86.666,137.509,86.808,138.371,86.808,139.321z
		 M83.956,139.321c0-1.195-0.257-2.143-0.771-2.84c-0.514-0.698-1.23-1.047-2.15-1.047s-1.637,0.349-2.15,1.047
		c-0.514,0.697-0.771,1.645-0.771,2.84c0,1.212,0.256,2.17,0.771,2.875c0.514,0.706,1.23,1.059,2.15,1.059s1.637-0.353,2.15-1.059
		C83.699,141.491,83.956,140.533,83.956,139.321z"/>
	<path d="M98.4,144.979c-0.537,0.138-1.235,0.28-2.093,0.426c-0.859,0.146-1.802,0.219-2.829,0.219
		c-0.966,0-1.775-0.139-2.426-0.414c-0.652-0.276-1.173-0.659-1.564-1.15c-0.391-0.49-0.671-1.077-0.839-1.76
		c-0.169-0.682-0.253-1.43-0.253-2.242v-6.739h2.783v6.303c0,1.287,0.188,2.208,0.563,2.76c0.375,0.552,1.031,0.828,1.966,0.828
		c0.337,0,0.694-0.016,1.07-0.046c0.375-0.031,0.655-0.069,0.839-0.115v-9.729H98.4V144.979z"/>
	<path d="M100.792,133.71c0.537-0.153,1.234-0.299,2.093-0.438c0.859-0.138,1.809-0.207,2.852-0.207
		c0.981,0,1.802,0.135,2.461,0.402c0.659,0.269,1.185,0.645,1.576,1.127c0.391,0.483,0.667,1.066,0.828,1.748
		c0.161,0.683,0.241,1.431,0.241,2.243v6.762h-2.783v-6.325c0-0.644-0.042-1.191-0.126-1.645c-0.084-0.452-0.223-0.82-0.414-1.104
		c-0.192-0.284-0.453-0.491-0.782-0.621s-0.732-0.195-1.208-0.195c-0.353,0-0.721,0.022-1.104,0.068s-0.667,0.085-0.851,0.115v9.706
		h-2.783V133.71z"/>
	<path d="M123.262,144.979c-0.552,0.169-1.246,0.322-2.082,0.46c-0.836,0.139-1.713,0.207-2.633,0.207
		c-0.951,0-1.802-0.146-2.553-0.437c-0.751-0.291-1.392-0.709-1.92-1.254c-0.529-0.544-0.936-1.203-1.219-1.978
		s-0.425-1.645-0.425-2.611c0-0.95,0.119-1.812,0.356-2.587s0.586-1.438,1.046-1.989c0.46-0.553,1.02-0.978,1.679-1.277
		c0.659-0.299,1.418-0.448,2.277-0.448c0.583,0,1.096,0.069,1.541,0.207c0.445,0.139,0.828,0.292,1.15,0.46v-5.772l2.783-0.46
		V144.979z M115.281,139.299c0,1.227,0.291,2.188,0.874,2.887c0.583,0.697,1.388,1.046,2.415,1.046c0.444,0,0.824-0.019,1.138-0.058
		c0.314-0.038,0.571-0.08,0.771-0.126v-6.9c-0.245-0.168-0.571-0.325-0.978-0.472c-0.406-0.146-0.839-0.218-1.299-0.218
		c-1.012,0-1.752,0.345-2.219,1.034C115.515,137.183,115.281,138.118,115.281,139.299z"/>
	<path d="M132.508,135.825c-0.23-0.076-0.548-0.156-0.955-0.241c-0.406-0.084-0.878-0.126-1.415-0.126
		c-0.307,0-0.632,0.03-0.978,0.092c-0.345,0.062-0.586,0.115-0.724,0.161v9.637h-2.783v-11.454c0.537-0.199,1.208-0.387,2.013-0.563
		c0.805-0.176,1.698-0.265,2.679-0.265c0.184,0,0.398,0.012,0.644,0.035c0.245,0.022,0.491,0.054,0.736,0.092
		s0.483,0.084,0.713,0.138s0.414,0.104,0.552,0.149L132.508,135.825z"/>
	<path d="M144.008,133.318c-1.24,4.569-2.679,8.71-4.316,12.42c-0.307,0.69-0.622,1.28-0.944,1.771
		c-0.323,0.49-0.684,0.896-1.083,1.219s-0.844,0.556-1.335,0.701c-0.492,0.146-1.059,0.219-1.704,0.219
		c-0.43,0-0.856-0.046-1.278-0.138c-0.422-0.092-0.741-0.192-0.956-0.299l0.506-2.231c0.555,0.215,1.102,0.322,1.641,0.322
		c0.724,0,1.29-0.173,1.698-0.518s0.766-0.878,1.074-1.599c-0.878-1.687-1.721-3.526-2.529-5.52s-1.529-4.109-2.16-6.349h2.967
		c0.154,0.645,0.342,1.342,0.566,2.094c0.223,0.751,0.466,1.514,0.727,2.288c0.262,0.774,0.539,1.545,0.831,2.312
		s0.585,1.479,0.877,2.139c0.489-1.364,0.946-2.817,1.374-4.358c0.427-1.541,0.816-3.032,1.167-4.474H144.008z"/>
</g>
</svg>
