<?xml version="1.0" encoding="utf-8"?>
<!-- Generator: Adobe Illustrator 16.0.0, SVG Export Plug-In . SVG Version: 6.00 Build 0)  -->
<!DOCTYPE svg PUBLIC "-//W3C//DTD SVG 1.1//EN" "http://www.w3.org/Graphics/SVG/1.1/DTD/svg11.dtd">
<svg version="1.1" id="b_1_" xmlns="http://www.w3.org/2000/svg" xmlns:xlink="http://www.w3.org/1999/xlink" x="0px" y="0px"
	 width="736px" height="416px" viewBox="0 0 736 416" enable-background="new 0 0 736 416" xml:space="preserve">
<g id="b">
	<g>
		<path fill="#FFFFFF" d="M334.522,194.441c-1.239,1.63-1.855,4.363-1.855,6.707v12.501c0,2.215,0.616,4.135,1.855,5.762
			c1.235,1.629,2.7,2.44,4.395,2.44h7.125V192h-7.125C337.223,192,335.758,192.815,334.522,194.441z M404.886,187.982
			c-0.913-2.472-2.441-4.075-4.59-5.639c-2.148-1.562-4.526-2.344-7.129-2.344h-62.5c-3.388,0-6.317,1.239-8.789,3.712
			c-2.476,2.475-3.878,5.654-3.878,9.039v29.685c0,3.516,1.402,6.479,3.878,8.887c2.472,2.411,5.401,3.613,8.789,3.613h62.5
			c2.603,0,4.98-0.748,7.129-2.246c2.148-1.495,3.927-4.148,4.84-6.624h8.9v-38.083H404.886z M397.019,221.686
			c0,1.172-0.391,2.182-1.172,3.027c-0.781,0.849-1.508,1.27-2.68,1.27h-62.5c-1.172,0-1.732-0.421-2.514-1.27
			c-0.781-0.846-1.172-1.855-1.172-3.027v-28.935c0-1.173,0.391-2.815,1.172-3.597s1.758-1.172,2.93-1.172h62.084
			c1.172,0,1.898,0.391,2.68,1.172s1.172,2.424,1.172,3.597V221.686z M409,217.001h-5.964v-19.982H409V217.001z"/>
	</g>
</g>
</svg>
