<?xml version="1.0" encoding="utf-8"?>
<!-- Generator: Adobe Illustrator 16.0.0, SVG Export Plug-In . SVG Version: 6.00 Build 0)  -->
<!DOCTYPE svg PUBLIC "-//W3C//DTD SVG 1.1//EN" "http://www.w3.org/Graphics/SVG/1.1/DTD/svg11.dtd">
<svg version="1.1" id="browser_1_" xmlns="http://www.w3.org/2000/svg" xmlns:xlink="http://www.w3.org/1999/xlink" x="0px" y="0px"
	 width="736px" height="416px" viewBox="0 0 736 416" enable-background="new 0 0 736 416" xml:space="preserve">
<g id="browser">
	<g>
		<path fill="#FFFFFF" d="M410.943,179H321c-2.209,0-4,1.791-4,4v10h97.943v-10C414.943,180.791,413.153,179,410.943,179z
			 M325.75,190c-1.933,0-3.5-1.567-3.5-3.5s1.567-3.5,3.5-3.5s3.5,1.567,3.5,3.5S327.683,190,325.75,190z M335.75,190
			c-1.933,0-3.5-1.567-3.5-3.5s1.567-3.5,3.5-3.5s3.5,1.567,3.5,3.5S337.683,190,335.75,190z M345.75,190
			c-1.933,0-3.5-1.567-3.5-3.5s1.567-3.5,3.5-3.5s3.5,1.567,3.5,3.5S347.683,190,345.75,190z M317,234c0,2.209,1.791,4,4,4h89.943
			c2.21,0,4-1.791,4-4v-36.934H317V234z"/>
	</g>
</g>
</svg>
