<?xml version="1.0" encoding="utf-8"?>
<!-- Generator: Adobe Illustrator 16.0.0, SVG Export Plug-In . SVG Version: 6.00 Build 0)  -->
<!DOCTYPE svg PUBLIC "-//W3C//DTD SVG 1.1 Tiny//EN" "http://www.w3.org/Graphics/SVG/1.1/DTD/svg11-tiny.dtd">
<svg version="1.1" baseProfile="tiny" id="Rounded_Rectangle_1_1_"
	 xmlns="http://www.w3.org/2000/svg" xmlns:xlink="http://www.w3.org/1999/xlink" x="0px" y="0px" width="736px" height="416px"
	 viewBox="0 0 736 416" xml:space="preserve">
<g id="Rounded_Rectangle_1">
	<path fill="#FFFFFF" d="M387.812,203c0,0,2-1.833,2-4s-2-2-2-2l-1,2v-5c0-28.5-21-27-21-27H365c0,0-21-1.5-21,27v5l-1-2
		c0,0-2-0.167-2,2s2,4,2,4s0.583,3.167,0,6s0.75,3.25,0.75,3.25s0.771,0.719,2.25,0.75c1.083,5.75,0.25,6.583,3,12c0,9.25,0,18,0,18
		s3.594,5.094,16,6h1v-0.019c12.249-0.944,15.812-5.981,15.812-5.981s0-8.75,0-18c2.75-5.417,1.917-6.25,3-12
		c1.479-0.031,2.25-0.75,2.25-0.75s1.333-0.417,0.75-3.25S387.812,203,387.812,203z"/>
</g>
</svg>
