<?xml version="1.0" encoding="utf-8"?>
<!-- Generator: Adobe Illustrator 16.0.0, SVG Export Plug-In . SVG Version: 6.00 Build 0)  -->
<!DOCTYPE svg PUBLIC "-//W3C//DTD SVG 1.1//EN" "http://www.w3.org/Graphics/SVG/1.1/DTD/svg11.dtd">
<svg version="1.1" id="dropbox_x2B_scriptogram_1_" xmlns="http://www.w3.org/2000/svg" xmlns:xlink="http://www.w3.org/1999/xlink"
	 x="0px" y="0px" width="736px" height="416px" viewBox="0 0 736 416" enable-background="new 0 0 736 416" xml:space="preserve">
<g id="Rectangle_3">
	<g>
		<path fill="#FFFFFE" d="M277.594,236.782c-0.501,0-0.952-0.199-1.35-0.6l-15.15-12.601l-15.15,12.75
			c-0.401,0.301-0.851,0.45-1.35,0.45c-0.501,0-0.9-0.099-1.2-0.3l-11.25-7.5v4.35l28.95,18.301l28.95-18.301v-4.35l-11.25,7.5
			C278.494,236.684,278.093,236.782,277.594,236.782z M242.344,164.332l-27.3,17.101l18.75,15.75l27.3-17.851L242.344,164.332z
			 M217.144,210.532l27,17.7l16.95-14.1l-27.3-16.95L217.144,210.532z M278.044,228.232l27-17.7l-16.65-13.35l-27.3,16.95
			L278.044,228.232z M279.844,164.332l-18.75,15l27.3,17.851l18.75-15.75L279.844,164.332z M488.962,203.822l0.315-0.316
			l-1.868-1.868c-0.146-0.163-0.284-0.332-0.441-0.488c-0.157-0.157-0.325-0.295-0.488-0.441l-16.163-16.163l4.162-4.162
			l-0.781,0.217c2.694-4.494,2.118-10.403-1.756-14.276c-4.569-4.569-11.977-4.569-16.546,0c-0.167,0.167-0.314,0.345-0.469,0.519
			l-25.406,25.406l0.041,0.041c-0.527,0.375-1.035,0.786-1.508,1.258c-4.339,4.339-4.55,11.232-0.648,15.828l-0.059,0.059
			l17.536,17.535l-2.581,2.581c-0.552,0.386-1.087,0.805-1.579,1.297c-4.569,4.569-4.569,11.978,0,16.546
			c4.569,4.569,11.978,4.569,16.547,0c0.16-0.16,0.301-0.331,0.449-0.497l28.761-28.76c0.163-0.146,0.331-0.284,0.488-0.441
			s0.295-0.324,0.441-0.488l0.207-0.207l-0.01-0.012C490.787,213.25,491.239,207.993,488.962,203.822z M447.664,182.47l10.96-10.96
			l0.059,0.058c0.238-0.391,0.51-0.768,0.849-1.106c2.284-2.284,5.988-2.284,8.272,0c2.285,2.284,2.285,5.988,0,8.273
			c-0.338,0.338-0.714,0.61-1.105,0.849l0.058,0.058l-6.222,6.221c0.001,0,0.002,0,0.003,0.001l-12.92,12.92
			c-0.514-1.917-1.513-3.731-3.017-5.236c-1.435-1.434-3.148-2.417-4.966-2.951l8.078-8.078L447.664,182.47z M454.291,241.605
			l-0.263,0.262l0.059,0.094c-0.257,0.463-0.562,0.905-0.955,1.298c-2.285,2.284-5.989,2.284-8.273,0
			c-2.212-2.213-2.262-5.745-0.189-8.041l-0.01-0.01l0.095-0.095c0.038-0.041,0.064-0.088,0.104-0.128
			c0.046-0.046,0.1-0.079,0.146-0.123l3.908-3.908l3.064,3.063l-0.063,0.063c0.053,0.03,0.11,0.051,0.162,0.083l1.878,1.877
			C455.004,237.729,455.118,239.831,454.291,241.605z M483.666,212.478l-0.116-0.133l-23.364,23.364
			c-0.54-1.778-1.51-3.455-2.916-4.861c-0.157-0.157-0.325-0.295-0.488-0.441l-12.146-12.145l-0.035,0.035l-11.55-11.55l0.065-0.065
			c-0.046-0.031-0.097-0.05-0.143-0.083l-1.396-1.396l-0.003,0.003c-1.63-2.285-1.436-5.471,0.615-7.521
			c2.284-2.284,5.988-2.284,8.273,0c1.711,1.711,2.14,4.218,1.287,6.329l4.549,4.549l19.787-19.787l5.844,5.844l0.012-0.012
			l9.988,9.988l-0.012,0.012l1.734,1.734C484.818,208.218,484.821,210.598,483.666,212.478z M369.034,193.981h-5.066v10.983h-10.034
			v5.117h10.034V221h5.066v-10.918h9.951v-5.117h-9.951V193.981z"/>
	</g>
</g>
</svg>
