<?xml version="1.0" encoding="utf-8"?>
<!-- Generator: Adobe Illustrator 16.0.0, SVG Export Plug-In . SVG Version: 6.00 Build 0)  -->
<!DOCTYPE svg PUBLIC "-//W3C//DTD SVG 1.1//EN" "http://www.w3.org/Graphics/SVG/1.1/DTD/svg11.dtd">
<svg version="1.1" id="F_1_" xmlns="http://www.w3.org/2000/svg" xmlns:xlink="http://www.w3.org/1999/xlink" x="0px" y="0px"
	 width="736px" height="416px" viewBox="0 0 736 416" enable-background="new 0 0 736 416" xml:space="preserve">
<g id="F">
	<g>
		<path fill="#FFFFFF" d="M397.511,209.531c-0.321-3.589-1.152-6.855-2.49-9.804c-1.342-2.945-2.868-5.705-4.581-8.276
			c-1.715-2.571-3.27-4.605-4.66-6.107c-1.394-1.499-2.519-2.571-3.375-3.214c0.964,1.715,1.366,3.938,1.205,6.669
			c-0.161,2.732-1.045,4.85-2.651,6.349c-1.072-4.179-2.491-7.928-4.26-11.25c-1.768-3.32-3.535-5.892-5.303-7.715
			c-1.769-1.82-3.456-3.347-5.062-4.58c-1.607-1.23-2.948-2.009-4.019-2.33l-1.446-0.643c1.392,9.107-3.161,20.089-13.66,32.946
			c-0.322-4.927-1.286-8.893-2.894-11.894c-0.216,2.894-1.582,6.858-4.098,11.894c-2.519,5.037-3.993,8.733-4.42,11.089
			c-1.181,5.786-0.51,10.849,2.009,15.188c2.517,4.34,7.474,8.599,14.866,12.777c-1.502-3.109-2.33-6.027-2.491-8.76
			c-0.16-2.731,0.105-4.954,0.804-6.669c0.695-1.713,1.74-3.589,3.134-5.625c1.286-1.821,2.33-3.696,3.134-5.625
			s1.366-3.428,1.688-4.5l0.321-1.607c0.214,0.321,0.455,0.751,0.724,1.286c0.267,0.537,0.668,1.742,1.205,3.615
			c0.535,1.876,0.535,3.725,0,5.545c2.571-2.785,4.312-6.213,5.224-10.285c0.909-4.071,1.098-7.285,0.562-9.644
			c6.429,4.5,10.74,10.876,12.938,19.125c2.194,8.252,1.472,15.964-2.17,23.144c5.356-3.001,9.615-6.323,12.777-9.965
			c3.158-3.641,5.195-7.177,6.106-10.607C397.536,216.63,397.833,213.122,397.511,209.531z"/>
	</g>
</g>
</svg>
