<?xml version="1.0" encoding="utf-8"?>
<!-- Generator: Adobe Illustrator 16.0.0, SVG Export Plug-In . SVG Version: 6.00 Build 0)  -->
<!DOCTYPE svg PUBLIC "-//W3C//DTD SVG 1.1//EN" "http://www.w3.org/Graphics/SVG/1.1/DTD/svg11.dtd">
<svg version="1.1" id="_x2E_html_1_" xmlns="http://www.w3.org/2000/svg" xmlns:xlink="http://www.w3.org/1999/xlink" x="0px"
	 y="0px" width="736px" height="416px" viewBox="0 0 736 416" enable-background="new 0 0 736 416" xml:space="preserve">
<g id="_x2E_html">
	<g>
		<path fill="#FFFFFF" d="M342.866,197.209c-2.674,0-4.625,0.987-5.854,2.963h-0.289l0.126-1.626
			c0.084-1.65,0.127-2.698,0.127-3.144v-6.415h-5.948v28.966h5.948v-9.67c0-2.349,0.343-4.047,1.029-5.095s1.363-1.571,2.905-1.571
			c2.168,0,3.064,1.457,3.064,4.372v11.964h5.947v-13.337c0-2.385-0.614-4.216-1.843-5.492S345.238,197.209,342.866,197.209z
			 M323.501,212.132c-1.036,0-1.825,0.259-2.367,0.776c-0.542,0.519-0.812,1.283-0.812,2.295c0,0.976,0.276,1.731,0.831,2.268
			c0.554,0.535,1.337,0.804,2.349,0.804c0.987,0,1.758-0.274,2.312-0.822c0.554-0.548,0.831-1.298,0.831-2.249
			c0-0.987-0.274-1.746-0.822-2.276S324.5,212.132,323.501,212.132z M407.004,189.009v29.027h6.052v-29.027H407.004z
			 M394.639,197.209c-1.325,0-2.515,0.259-3.568,0.776c-1.055,0.519-1.852,1.247-2.394,2.187h-0.488
			c-1.072-1.976-3.119-2.963-6.143-2.963c-1.325,0-2.499,0.262-3.522,0.786c-1.024,0.523-1.807,1.249-2.349,2.177h-0.308
			l-0.74-2.271h-4.21v20.136h6.011v-9.753c0-2.372,0.318-4.076,0.957-5.112s1.162-1.554,2.571-1.554
			c1.048,0,2.315,0.364,2.804,1.093c0.487,0.729,0.731,1.822,0.731,3.279v12.047h5.011v-10.385c0-2.096,0.334-3.625,1.002-4.589
			c0.669-0.964,1.678-1.445,3.026-1.445c1.048,0,1.815,0.364,2.304,1.093c0.487,0.729,0.731,1.822,0.731,3.279v12.047h5.945v-13.42
			c0-2.59-1.004-4.472-2.179-5.646C398.658,197.796,396.927,197.209,394.639,197.209z M362.617,213.197
			c-0.44-0.373-0.66-0.951-0.66-1.734v-9.487h5.03V197.9h-5.03v-4.925h-4.147l-1.59,4.576l-3.035,1.843v2.581h2.638v9.487
			c0,2.229,0.503,3.899,1.509,5.014c1.005,1.114,2.61,1.671,4.814,1.671c1.999,0,3.498-0.307,4.871-0.921v-4.102
			c-1.35,0.422-1.693,0.633-2.656,0.633C363.638,213.758,363.057,213.571,362.617,213.197z"/>
	</g>
</g>
</svg>
