<?xml version="1.0" encoding="utf-8"?>
<!-- Generator: Adobe Illustrator 16.0.0, SVG Export Plug-In . SVG Version: 6.00 Build 0)  -->
<!DOCTYPE svg PUBLIC "-//W3C//DTD SVG 1.1//EN" "http://www.w3.org/Graphics/SVG/1.1/DTD/svg11.dtd">
<svg version="1.1" id="Rectangle_4_1_" xmlns="http://www.w3.org/2000/svg" xmlns:xlink="http://www.w3.org/1999/xlink" x="0px"
	 y="0px" width="736px" height="416px" viewBox="0 0 736 416" enable-background="new 0 0 736 416" xml:space="preserve">
<g id="Rectangle_4">
	<g>
		<path fill="#FFFFFF" d="M320,208h15v-4h-15V208z M357.235,168.23l-8.104-12.622l-3.366,2.161l8.104,12.622L357.235,168.23z
			 M324.856,178.65l13.601,6.326l1.687-3.627l-13.601-6.326L324.856,178.65z M366.172,177.63c-6.858,0-12.696,2.41-17.518,7.231
			s-7.232,10.663-7.232,17.519c0,2.679,0.695,5.6,2.089,8.759c1.392,3.161,3.106,6.509,5.144,10.044
			c2.034,3.536,3.375,6.323,4.018,8.357c0.748,1.823,1.499,4.073,2.25,6.75c0.748,2.68,1.339,4.633,1.768,5.866
			c0.427,1.23,1.07,2.544,1.929,3.938c0.856,1.392,1.873,2.33,3.054,2.812c1.178,0.482,2.677,0.724,4.5,0.724
			c1.82,0,3.348-0.241,4.58-0.724c1.23-0.482,2.25-1.421,3.054-2.812c0.804-1.394,1.419-2.707,1.849-3.938
			c0.427-1.233,1.017-3.187,1.768-5.866c0.748-2.677,1.499-4.927,2.25-6.75c0.643-2.034,1.981-4.821,4.018-8.357
			c2.034-3.535,3.749-6.883,5.144-10.044c1.391-3.159,2.089-6.08,2.089-8.759c0-6.855-2.411-12.697-7.232-17.519
			S373.027,177.63,366.172,177.63z M369.226,244.486c-0.643,0.427-1.662,0.644-3.054,0.644c-1.286,0-2.225-0.161-2.812-0.482
			c-0.59-0.321-1.152-1.125-1.688-2.411l9.482-1.125C370.511,242.933,369.868,244.058,369.226,244.486z M373.163,235.005
			c-0.161,0.429-0.297,0.803-0.402,1.125c-0.216,0.964-0.481,1.822-0.803,2.571l-11.09,1.446c-0.43-1.178-0.858-2.571-1.285-4.179
			l-0.161-0.161l13.982-1.768C373.404,234.256,373.323,234.577,373.163,235.005z M374.047,231.79l-15.268,1.929
			c-0.321-1.392-0.751-2.838-1.286-4.339h17.357C374.529,230.452,374.261,231.255,374.047,231.79z M380.476,217.647
			c-1.715,3.108-3.001,5.52-3.857,7.232h-20.893c-0.859-1.713-2.145-4.124-3.857-7.232c-3.965-7.071-5.946-12.159-5.946-15.268
			c0-5.57,1.981-10.339,5.946-14.304c3.963-3.963,8.731-5.946,14.304-5.946c5.569,0,10.339,1.983,14.304,5.946
			c3.963,3.965,5.946,8.733,5.946,14.304C386.422,205.38,384.438,210.471,380.476,217.647z M387.408,158.159l-3.343-2.145
			l-8.051,12.523l3.343,2.146L387.408,158.159z M366.172,188.88c-3.752,0-6.938,1.312-9.562,3.938
			c-2.627,2.626-3.938,5.812-3.938,9.562c0,0.75,0.374,1.125,1.125,1.125c0.748,0,1.125-0.375,1.125-1.125
			c0-3.106,1.098-5.759,3.295-7.956c2.194-2.194,4.847-3.294,7.955-3.294c0.748,0,1.125-0.375,1.125-1.125
			C367.297,189.256,366.92,188.88,366.172,188.88z M398.101,204.031V208H413v-3.969H398.101z M406.501,175.279l-13.51,6.276
			l1.676,3.599l13.51-6.276L406.501,175.279z"/>
	</g>
</g>
</svg>
