<?xml version="1.0" encoding="utf-8"?>
<!-- Generator: Adobe Illustrator 16.0.0, SVG Export Plug-In . SVG Version: 6.00 Build 0)  -->
<!DOCTYPE svg PUBLIC "-//W3C//DTD SVG 1.1//EN" "http://www.w3.org/Graphics/SVG/1.1/DTD/svg11.dtd">
<svg version="1.1" id="money_1_" xmlns="http://www.w3.org/2000/svg" xmlns:xlink="http://www.w3.org/1999/xlink" x="0px" y="0px"
	 width="736px" height="416px" viewBox="0 0 736 416" enable-background="new 0 0 736 416" xml:space="preserve">
<g id="money">
	<g>
		<path fill="#FFFFFF" d="M270.083,244.083H461v-73.166H270.083V244.083z M366.5,177c16.845,0,30.5,13.655,30.5,30.5
			c0,8.99-3.891,17.069-10.079,22.651C386.96,229.77,387,229.389,387,229c0-6.596-5.826-12.185-13.912-14.194
			C376.633,212.247,379,207.7,379,202.5c0-8.008-5.597-14.5-12.5-14.5s-12.5,6.492-12.5,14.5c0,5.2,2.367,9.747,5.912,12.306
			C351.826,216.815,346,222.404,346,229c0,0.389,0.04,0.77,0.079,1.151C339.891,224.569,336,216.49,336,207.5
			C336,190.655,349.655,177,366.5,177z M414,163h-96.667c-32.03,0-56.333,0-56.333,0v88.917c0,0,24.471,0,56.667,0H414
			c31.866,0,56,0,56,0V163C470,163,445.866,163,414,163z M464.94,247.85h-1.023v0.067H267v-0.067h-1V167.15h1v-0.067h196.917v0.067
			h1.023V247.85z"/>
	</g>
</g>
</svg>
