<?xml version="1.0" encoding="utf-8"?>
<!-- Generator: Adobe Illustrator 16.0.0, SVG Export Plug-In . SVG Version: 6.00 Build 0)  -->
<!DOCTYPE svg PUBLIC "-//W3C//DTD SVG 1.1//EN" "http://www.w3.org/Graphics/SVG/1.1/DTD/svg11.dtd">
<svg version="1.1" id="Rectangle_3_1_" xmlns="http://www.w3.org/2000/svg" xmlns:xlink="http://www.w3.org/1999/xlink" x="0px"
	 y="0px" width="736px" height="416px" viewBox="0 0 736 416" enable-background="new 0 0 736 416" xml:space="preserve">
<g id="Rectangle_3">
	<g>
		<path fill="#FFFFFF" d="M354.961,227.021h21.073c0.742,0,1.422-0.311,2.041-0.928c0.617-0.619,0.928-1.299,0.928-2.041v-46.102
			c0-0.742-0.311-1.422-0.928-2.041c-0.619-0.617-1.299-0.928-2.041-0.928h-21.073c-0.742,0-1.424,0.311-2.041,0.928
			c-0.619,0.619-0.928,1.299-0.928,2.041v46.102c0,0.742,0.309,1.422,0.928,2.041C353.537,226.711,354.219,227.021,354.961,227.021z
			 M368.992,224.021h-5v-4h5V224.021z M361.97,179.035h8.043v1.028h-8.043V179.035z M355.044,182.002h20.948v36.009h-20.948V182.002
			z M390.149,153.941c-1.237-1.235-2.598-1.855-4.082-1.855h-41.146c-1.484,0-2.847,0.62-4.082,1.855
			c-1.238,1.237-1.855,2.598-1.855,4.082v90.035c0,1.484,0.617,2.845,1.855,4.082c1.235,1.235,2.598,1.855,4.082,1.855h41.146
			c1.484,0,2.845-0.62,4.082-1.855c1.235-1.237,1.855-2.598,1.855-4.082v-90.035C392.005,156.539,391.385,155.179,390.149,153.941z
			 M357.939,159.023h16.087v2.057h-16.087V159.023z M370.984,247.996h-9v-7h9V247.996z M386.984,236.976h-43.062v-71.018h43.062
			V236.976z"/>
	</g>
</g>
</svg>
