<?xml version="1.0" encoding="utf-8"?>
<!-- Generator: Adobe Illustrator 16.0.0, SVG Export Plug-In . SVG Version: 6.00 Build 0)  -->
<!DOCTYPE svg PUBLIC "-//W3C//DTD SVG 1.1//EN" "http://www.w3.org/Graphics/SVG/1.1/DTD/svg11.dtd">
<svg version="1.1" id="logo_1_" xmlns="http://www.w3.org/2000/svg" xmlns:xlink="http://www.w3.org/1999/xlink" x="0px" y="0px"
	 width="736px" height="416px" viewBox="0 0 736 416" enable-background="new 0 0 736 416" xml:space="preserve">
<g id="logo">
	<g>
		<path fill="#FFFFFF" d="M357.028,194.96l0.555,1.04h17.024l2.486-4.986H363.94v-0.006h-1.61l0.003-0.008h-3.33l5.408-10.847
			l-2.546-4.877l-7.438,14.87l2.559,4.899L357.028,194.96z M361.86,175.268l0.005,0.009l0.005-0.009H361.86z M362.243,189h3.175
			l1.6-0.03l4.481-8.962h-4.772L362.243,189z M353.488,202.062l2.392-4.797l-2.56-4.903l-2.322,4.643L353.488,202.062z
			 M354.428,190.146l-0.047-0.09l0.003,0.178L354.428,190.146z M353.205,192.142l0.115,0.22l0.115-0.229L353.205,192.142z
			 M370.276,218.967l-0.126-0.242l-0.121,0.242H370.276z M378.82,192.049h-0.293l0.146,0.294L378.82,192.049z M370.15,218.725
			l10.858-21.721l-2.335-4.661l-10.892,21.847L370.15,218.725z M365.634,214l7.974-15.992h-15.855l-2.495,5.005l5.505,0.02
			l5.29-0.014L360.499,214H365.634z M368.984,221.028v-0.199l-2.518-4.821h-5.953l2.516,4.992L368.984,221.028z M365.672,178H368
			l3.487-0.027L369.001,173h-5.997l-0.035,0.07l-0.001,0.087l2.704,5.218V178z M353.69,202.474l-0.202-0.412l-0.179,0.358
			L353.69,202.474z M318.984,237.62c-0.707-0.337-1.154-0.57-1.344-0.7s-0.327-0.265-0.414-0.403
			c-0.086-0.14-0.129-0.302-0.129-0.489c0-0.301,0.106-0.544,0.32-0.731c0.215-0.187,0.522-0.28,0.924-0.28
			c0.337,0,0.68,0.044,1.028,0.13c0.349,0.087,0.79,0.239,1.323,0.458l0.684-1.647c-0.516-0.223-1.009-0.396-1.48-0.52
			s-0.967-0.185-1.486-0.185c-1.058,0-1.886,0.253-2.485,0.759s-0.899,1.201-0.899,2.085c0,0.47,0.092,0.88,0.273,1.23
			c0.183,0.352,0.427,0.659,0.732,0.923c0.305,0.265,0.763,0.54,1.374,0.827c0.651,0.311,1.083,0.536,1.295,0.677
			c0.212,0.142,0.372,0.288,0.482,0.441c0.109,0.152,0.163,0.327,0.163,0.522c0,0.352-0.124,0.615-0.372,0.793
			s-0.604,0.267-1.069,0.267c-0.388,0-0.815-0.062-1.282-0.185s-1.038-0.335-1.712-0.636v1.969c0.82,0.401,1.764,0.602,2.83,0.602
			c1.157,0,2.061-0.26,2.71-0.779s0.974-1.23,0.974-2.133c0-0.651-0.173-1.202-0.519-1.65
			C320.559,238.515,319.918,238.067,318.984,237.62z M394.596,243.39h2.119v-9.994h-2.119V243.39z M379.674,239.5
			c0,0.775-0.156,1.344-0.469,1.706s-0.814,0.543-1.507,0.543c-0.716,0-1.229-0.18-1.538-0.54c-0.311-0.359-0.465-0.925-0.465-1.695
			v-6.118h-2.112v6.439c0,1.145,0.354,2.046,1.065,2.704s1.709,0.987,2.994,0.987c0.853,0,1.591-0.147,2.216-0.444
			c0.624-0.296,1.102-0.722,1.432-1.278c0.33-0.556,0.496-1.203,0.496-1.941v-6.467h-2.112V239.5z M387.371,233.396h-3.138v9.994
			h2.83c1.768,0,3.12-0.438,4.057-1.312s1.405-2.135,1.405-3.78c0-1.545-0.451-2.748-1.354-3.609S389.002,233.396,387.371,233.396z
			 M387.262,241.64h-0.909v-6.508h1.128c1.896,0,2.844,1.073,2.844,3.22C390.324,240.544,389.303,241.64,387.262,241.64z
			 M415.754,238.964c-0.347-0.449-0.987-0.896-1.921-1.344c-0.707-0.337-1.154-0.57-1.344-0.7s-0.327-0.265-0.413-0.403
			c-0.087-0.14-0.13-0.302-0.13-0.489c0-0.301,0.106-0.544,0.321-0.731c0.214-0.187,0.521-0.28,0.923-0.28
			c0.337,0,0.68,0.044,1.028,0.13c0.349,0.087,0.79,0.239,1.322,0.458l0.685-1.647c-0.516-0.223-1.009-0.396-1.48-0.52
			s-0.968-0.185-1.487-0.185c-1.057,0-1.885,0.253-2.484,0.759s-0.898,1.201-0.898,2.085c0,0.47,0.091,0.88,0.273,1.23
			c0.182,0.352,0.426,0.659,0.731,0.923c0.305,0.265,0.763,0.54,1.374,0.827c0.651,0.311,1.083,0.536,1.295,0.677
			c0.212,0.142,0.373,0.288,0.482,0.441c0.109,0.152,0.164,0.327,0.164,0.522c0,0.352-0.125,0.615-0.373,0.793
			s-0.605,0.267-1.07,0.267c-0.387,0-0.814-0.062-1.281-0.185s-1.038-0.335-1.713-0.636v1.969c0.82,0.401,1.764,0.602,2.83,0.602
			c1.158,0,2.062-0.26,2.711-0.779s0.975-1.23,0.975-2.133C416.273,239.963,416.1,239.412,415.754,238.964z M403.559,233.238
			c-1.536,0-2.716,0.438-3.538,1.316c-0.822,0.877-1.233,2.147-1.233,3.811c0,1.664,0.41,2.939,1.23,3.828s1.996,1.333,3.527,1.333
			s2.707-0.444,3.527-1.333s1.23-2.16,1.23-3.814c0-1.658-0.407-2.93-1.221-3.814C406.269,233.681,405.094,233.238,403.559,233.238z
			 M403.545,241.749c-0.844,0-1.477-0.282-1.9-0.848c-0.424-0.564-0.636-1.405-0.636-2.522c0-1.116,0.214-1.958,0.642-2.525
			c0.429-0.567,1.064-0.852,1.908-0.852c1.682,0,2.522,1.126,2.522,3.377C406.081,240.626,405.235,241.749,403.545,241.749z
			 M364.566,235.159h2.714v8.23h2.118v-8.23h2.715v-1.764h-7.547V235.159z M332.115,235.016c0.365,0,0.736,0.066,1.115,0.198
			c0.378,0.133,0.754,0.287,1.127,0.465l0.684-1.723c-0.979-0.469-1.954-0.704-2.926-0.704c-0.952,0-1.782,0.209-2.491,0.626
			s-1.252,1.016-1.63,1.798c-0.379,0.781-0.567,1.691-0.567,2.73c0,1.65,0.385,2.916,1.155,3.798
			c0.77,0.882,1.882,1.322,3.336,1.322c1.012,0,1.928-0.171,2.748-0.513v-1.777c-0.998,0.352-1.849,0.526-2.551,0.526
			c-1.672,0-2.508-1.114-2.508-3.343c0-1.07,0.219-1.906,0.656-2.505C330.701,235.315,331.318,235.016,332.115,235.016z
			 M361.291,237.62c-0.706-0.337-1.153-0.57-1.343-0.7s-0.327-0.265-0.413-0.403c-0.087-0.14-0.131-0.302-0.131-0.489
			c0-0.301,0.107-0.544,0.322-0.731c0.214-0.187,0.521-0.28,0.923-0.28c0.337,0,0.68,0.044,1.028,0.13
			c0.349,0.087,0.789,0.239,1.323,0.458l0.683-1.647c-0.515-0.223-1.008-0.396-1.479-0.52s-0.967-0.185-1.486-0.185
			c-1.058,0-1.886,0.253-2.485,0.759s-0.898,1.201-0.898,2.085c0,0.47,0.091,0.88,0.273,1.23c0.182,0.352,0.426,0.659,0.73,0.923
			c0.306,0.265,0.764,0.54,1.375,0.827c0.651,0.311,1.083,0.536,1.295,0.677c0.212,0.142,0.373,0.288,0.482,0.441
			c0.109,0.152,0.164,0.327,0.164,0.522c0,0.352-0.125,0.615-0.373,0.793s-0.604,0.267-1.069,0.267
			c-0.388,0-0.815-0.062-1.282-0.185s-1.038-0.335-1.712-0.636v1.969c0.819,0.401,1.763,0.602,2.83,0.602
			c1.157,0,2.061-0.26,2.71-0.779s0.975-1.23,0.975-2.133c0-0.651-0.174-1.202-0.52-1.65
			C362.866,238.515,362.226,238.067,361.291,237.62z M323.236,243.39h2.119v-9.994h-2.119V243.39z M339.062,233.354l-3.527,10.035
			h2.282l0.725-2.379h3.645l0.725,2.379h2.283l-3.541-10.035H339.062z M339.074,239.233c0.711-2.301,1.143-3.743,1.293-4.327
			c0.036,0.164,0.097,0.388,0.181,0.67c0.084,0.283,0.462,1.502,1.132,3.657H339.074z M353.41,238.126
			c0,0.538,0.034,1.456,0.102,2.755h-0.047l-4.341-7.485h-2.673v9.994h1.894v-4.703c0-0.569-0.044-1.521-0.13-2.857h0.061
			l4.349,7.561h2.692v-9.994h-1.906V238.126z"/>
	</g>
</g>
</svg>
