<?xml version="1.0" encoding="utf-8"?>
<!-- Generator: Adobe Illustrator 16.0.0, SVG Export Plug-In . SVG Version: 6.00 Build 0)  -->
<!DOCTYPE svg PUBLIC "-//W3C//DTD SVG 1.1//EN" "http://www.w3.org/Graphics/SVG/1.1/DTD/svg11.dtd">
<svg version="1.1" xmlns="http://www.w3.org/2000/svg" xmlns:xlink="http://www.w3.org/1999/xlink" x="0px" y="0px" width="1056px"
	 height="596px" viewBox="0 0 1056 596" enable-background="new 0 0 1056 596" xml:space="preserve">
<g id="Rounded_Rectangle_1_1_" enable-background="new    ">
	<g id="Rounded_Rectangle_1">
		<g>
			<path fill="#FFB800" d="M1016,23H41c-5.523,0-10,4.478-10,10v527c0,5.522,4.477,10,10,10h975c5.522,0,10-4.478,10-10V33
				C1026,27.478,1021.522,23,1016,23z"/>
		</g>
	</g>
</g>
<g id="mailer_1_" opacity="0.302" enable-background="new    ">
	<g id="mailer">
		<g>
			<path d="M536.902,296.465C536.902,296.465,536.902,296.464,536.902,296.465l-0.544-1.088L536.902,296.465z M510.637,287.622
				c0.332-0.755,0.227-1.465-0.317-2.131c-0.605-0.726-1.542-0.771-2.812-0.137c-1.271,0.636-2.632,1.664-4.083,3.084
				c-1.452,1.422-2.874,3.038-4.265,4.853c-1.393,1.813-2.541,3.537-3.448,5.17c-0.907,1.632-1.467,2.979-1.678,4.035
				c-0.213,1.059,0.195,1.528,1.225,1.406c1.451-0.182,2.812-0.726,4.083-1.633c1.27-0.907,2.495-2.025,3.675-3.355
				c1.18-1.329,2.327-2.78,3.447-4.354c1.119-1.571,2.253-3.084,3.402-4.535C510.047,289.18,510.304,288.379,510.637,287.622z
				 M456.334,288.938c-1.271,1.27-2.481,2.51-3.63,3.719c-1.149,1.21-2.027,2.117-2.631,2.721l0.544,1.088
				c0.665-0.726,1.512-1.616,2.541-2.675c1.027-1.058,2.116-2.132,3.267-3.22c0.024-0.023,0.046-0.044,0.071-0.067
				c0.036-0.625,0.09-1.245,0.142-1.866C456.535,288.739,456.437,288.835,456.334,288.938z M518.848,295.377l0.543,1.087l0,0
				L518.848,295.377L518.848,295.377z M489.813,296.465L489.813,296.465l-0.544-1.088L489.813,296.465z M585.08,299.73
				c3.085-2.842,5.641-5.079,7.667-6.712c0.935-0.753,1.794-1.42,2.593-2.018c-0.073-1.47-0.205-2.924-0.368-4.369
				c-1.514,2.43-3.025,4.643-4.538,6.613C588.739,295.453,586.955,297.614,585.08,299.73z M456.384,294.037
				c-0.349,0.462-0.691,0.928-1.048,1.385c-1.393,1.784-2.768,3.492-4.129,5.125c-1.36,1.632-2.586,3.054-3.675,4.263
				c-0.422,0.484-0.604,0.861-0.544,1.134c0.061,0.271,0.242,0.498,0.544,0.68c0.304,0.182,0.651,0.286,1.044,0.317
				c0.395,0.03,0.712-0.016,0.952-0.136c1.452-0.544,2.964-1.481,4.537-2.812c0.901-0.762,1.786-1.592,2.658-2.474
				c-0.231-2.305-0.352-4.642-0.352-7.007C456.372,294.353,456.383,294.196,456.384,294.037z M581.451,305.535
				c-0.424,0.484-1.074,0.83-1.951,1.043c-0.877,0.211-1.692,0.302-2.449,0.271c-0.756-0.031-1.33-0.212-1.724-0.544
				s-0.318-0.83,0.227-1.496c1.089-1.271,2.298-2.722,3.629-4.354c1.33-1.633,2.677-3.325,4.038-5.079
				c1.361-1.753,2.677-3.552,3.946-5.396c1.271-1.844,2.39-3.583,3.357-5.215c-0.907,0.726-1.921,1.618-3.039,2.676
				c-1.12,1.059-2.239,2.131-3.357,3.219c-1.12,1.089-2.193,2.147-3.221,3.175c-1.029,1.029-1.875,1.904-2.54,2.629v0
				c-2.783,2.902-5.414,5.141-7.894,6.712c-2.481,1.573-4.719,2.585-6.715,3.038s-3.675,0.423-5.035-0.091
				c-1.361-0.513-2.345-1.405-2.949-2.675c-0.666-1.391-0.816-3.008-0.453-4.853c0.362-1.844,1.118-3.703,2.268-5.578
				c-0.484,0.363-1.014,0.832-1.588,1.406c-0.575,0.575-1.225,1.255-1.95,2.04c-3.146,3.81-5.852,6.485-8.12,8.027
				c-2.269,1.541-4.069,2.342-5.398,2.403c-1.332,0.06-2.193-0.439-2.586-1.497c-0.395-1.057-0.259-2.342,0.408-3.854
				c0.967-2.297,1.98-4.58,3.039-6.848c1.058-2.268,2.162-4.549,3.312-6.848c-1.21,1.392-2.525,2.873-3.946,4.444
				c-1.422,1.573-2.707,2.962-3.855,4.171v0c-1.634,1.755-3.085,3.266-4.355,4.535s-2.436,2.328-3.493,3.174
				c-1.059,0.848-2.057,1.482-2.994,1.905c-0.938,0.422-1.892,0.664-2.858,0.726c-2.299,0.12-3.629-0.499-3.992-1.859
				c-0.362-1.36,0-3.098,1.089-5.215c0.483-0.907,1.119-1.965,1.905-3.175c0.786-1.209,1.618-2.448,2.495-3.719
				c0.876-1.27,1.738-2.494,2.586-3.673c0.847-1.179,1.543-2.222,2.087-3.129c-1.149,1.088-2.072,1.995-2.768,2.721
				s-1.36,1.451-1.996,2.177c-0.635,0.726-1.347,1.512-2.132,2.358c-0.787,0.848-1.814,1.904-3.084,3.173l0,0
				c-3.389,3.689-6.261,6.304-8.619,7.846c-2.359,1.542-4.174,2.343-5.444,2.403c-1.271,0.06-2.027-0.499-2.269-1.678
				c-0.242-1.18,0.06-2.645,0.907-4.399c-0.786,0.787-1.694,1.619-2.722,2.494c-1.029,0.878-2.133,1.633-3.312,2.268
				c-1.18,0.635-2.391,1.058-3.63,1.27c-1.24,0.212-2.465,0.075-3.675-0.407c-0.907-0.363-1.451-1.028-1.633-1.996
				c-0.182-0.966-0.075-2.115,0.317-3.446c0.393-1.329,1.028-2.78,1.905-4.354c0.876-1.571,1.951-3.113,3.222-4.625
				c-1.574,1.392-3.116,2.933-4.627,4.625l0,0c-0.848,1.029-1.937,2.147-3.267,3.356c-1.331,1.21-2.722,2.344-4.174,3.4
				c-1.451,1.059-2.844,1.905-4.174,2.54c-1.331,0.635-2.449,0.892-3.356,0.771c-0.849-0.122-1.422-0.453-1.725-0.997
				c-0.303-0.545-0.212-1.391,0.272-2.54c0.302-0.664,0.801-1.556,1.497-2.676c0.694-1.118,1.466-2.312,2.313-3.582
				c0.847-1.27,1.738-2.554,2.677-3.854c0.938-1.3,1.77-2.494,2.495-3.583c0.665-0.906,1.148-1.691,1.452-2.357
				c0.302-0.665,0.362-1.089,0.182-1.271c-0.182-0.181-0.605-0.059-1.271,0.363c-0.666,0.424-1.634,1.27-2.903,2.539
				c-0.848,0.848-1.937,2.057-3.267,3.628c-1.331,1.573-2.753,3.235-4.265,4.988c-1.513,1.755-2.994,3.462-4.445,5.125
				c-1.452,1.663-2.663,2.979-3.63,3.945c-0.182,0.181-0.56,0.331-1.134,0.453c-0.576,0.12-1.12,0.15-1.634,0.091
				c-0.515-0.062-0.923-0.182-1.225-0.363c-0.304-0.181-0.304-0.483,0-0.906c0.604-0.785,1.361-1.799,2.269-3.039
				c0.907-1.238,1.874-2.569,2.903-3.99c1.027-1.42,2.041-2.871,3.039-4.354c0.998-1.48,1.86-2.812,2.586-3.99
				c0.727-1.18,1.271-2.177,1.634-2.993c0.362-0.816,0.422-1.284,0.182-1.406c-0.667-0.362-1.497-0.149-2.495,0.635
				c-0.999,0.787-2.118,1.859-3.357,3.22c-1.24,1.361-2.572,2.918-3.992,4.671c-1.422,1.755-2.874,3.478-4.355,5.17
				c-0.633,0.723-1.275,1.405-1.924,2.062c3.515,35.092,33.144,62.492,69.177,62.492c38.399,0,69.528-31.116,69.528-69.499
				c0-0.559-0.029-1.11-0.042-1.665c-1.723,1.153-3.521,2.546-5.406,4.207C587.681,299.081,584.838,301.907,581.451,305.535z
				 M462.686,284.766c-0.849,0.726-1.815,1.603-2.904,2.63c-1.065,1.008-2.163,2.043-3.286,3.108
				c-0.067,1.17-0.104,2.348-0.111,3.533c1.011-1.337,2-2.685,2.944-4.056C460.599,288.137,461.717,286.397,462.686,284.766z
				 M553.506,295.377l0.545,1.087L553.506,295.377C553.507,295.377,553.507,295.377,553.506,295.377z M569.203,292.384
				c1.027-0.907,1.829-1.935,2.404-3.084c0.574-1.147,0.771-2.417,0.59-3.809c-0.122-0.726-0.59-0.876-1.406-0.454
				c-0.816,0.424-1.785,1.195-2.903,2.313c-1.12,1.119-2.239,2.479-3.357,4.081c-1.12,1.603-2.041,3.251-2.768,4.942
				c1.33-0.422,2.646-0.966,3.947-1.632C567.01,294.077,568.174,293.291,569.203,292.384z M462.957,282.771
				c0.604-0.483,1.239-0.726,1.905-0.726c0.665,0,1.226,0.151,1.679,0.453c0.454,0.303,0.74,0.741,0.862,1.315
				c0.12,0.575-0.031,1.224-0.454,1.949c-0.362,0.605-0.711,1.165-1.043,1.679c-0.333,0.514-0.65,1.043-0.953,1.587
				c1.693-2.116,3.462-3.854,5.309-5.215c1.844-1.361,3.886-1.799,6.124-1.315c0.545,0.122,0.876,0.453,0.998,0.998
				c0.121,0.544,0.06,1.21-0.182,1.995c-0.242,0.786-0.621,1.693-1.134,2.721c-0.515,1.028-1.104,2.117-1.77,3.265
				c1.634-1.691,3.19-3.204,4.673-4.534c1.481-1.329,2.858-2.388,4.128-3.175c1.271-0.785,2.45-1.238,3.539-1.36
				c1.089-0.12,2.056,0.151,2.903,0.816c0.545,0.424,0.71,1.119,0.499,2.086c-0.213,0.968-0.635,2.041-1.271,3.22
				c-0.635,1.179-1.422,2.419-2.358,3.719c-0.938,1.301-1.86,2.539-2.768,3.719c-0.907,1.179-1.724,2.237-2.45,3.174
				c-0.726,0.938-1.179,1.618-1.36,2.041c-0.242,0.544-0.242,0.906,0,1.088c0.24,0.182,0.74,0.076,1.497-0.317
				c0.756-0.393,1.783-1.103,3.085-2.131c1.3-1.027,2.917-2.509,4.854-4.444c0.726-0.726,1.814-1.783,3.266-3.175
				c1.452-1.39,3.069-2.78,4.854-4.172c1.783-1.39,3.644-2.645,5.58-3.764c1.936-1.118,3.811-1.799,5.626-2.041
				c1.935-0.24,3.356-0.091,4.264,0.454c0.908,0.544,1.512,1.392,1.815,2.539c0.302-0.241,0.619-0.468,0.952-0.68
				c0.332-0.212,0.681-0.377,1.044-0.499c0.302-0.121,0.74-0.166,1.315-0.137c0.574,0.031,1.089,0.122,1.542,0.272
				c0.454,0.151,0.786,0.395,0.999,0.726c0.211,0.333,0.104,0.712-0.318,1.134c-1.451,1.573-2.692,2.843-3.72,3.81
				c-1.029,0.968-1.982,1.965-2.858,2.992c-0.877,1.029-1.785,2.223-2.722,3.583c-0.938,1.36-2.042,3.22-3.312,5.578
				c-0.667,1.21-0.787,1.92-0.363,2.131c0.423,0.213,1.193,0,2.313-0.635c1.119-0.635,2.495-1.646,4.129-3.038
				c1.633-1.391,3.356-3.083,5.171-5.079l0,0c2.177-2.297,4.232-4.595,6.17-6.893c1.935-2.298,4.052-4.444,6.351-6.439
				c0.545-0.423,1.33-0.694,2.359-0.816c1.027-0.121,1.965-0.075,2.812,0.136c0.847,0.213,1.406,0.59,1.679,1.134
				s-0.076,1.21-1.043,1.995c-1.089,1.029-2.193,2.223-3.312,3.583c-1.12,1.36-2.209,2.812-3.266,4.353
				c-1.06,1.542-2.087,3.1-3.085,4.671c-0.999,1.573-1.951,3.055-2.858,4.444c-0.727,1.21-0.984,2.041-0.771,2.494
				c0.211,0.454,0.847,0.47,1.905,0.046c1.058-0.423,2.479-1.33,4.265-2.722c1.783-1.39,3.886-3.385,6.306-5.985
				c0.604-0.604,1.391-1.42,2.358-2.449c0.967-1.027,1.996-2.177,3.085-3.446s2.208-2.63,3.357-4.081
				c1.148-1.451,2.269-2.962,3.357-4.535c2.056-3.809,4.128-7.437,6.215-10.883c2.087-3.447,4.038-6.576,5.853-9.388
				s3.402-5.244,4.764-7.301c1.36-2.055,2.373-3.537,3.039-4.444c0.847-1.209,1.845-1.979,2.994-2.312
				c1.148-0.332,2.133-0.348,2.949-0.046c0.816,0.304,1.33,0.862,1.542,1.679c0.212,0.815-0.227,1.8-1.315,2.947
				c-3.509,3.75-6.654,7.514-9.436,11.292c-2.783,3.779-5.399,7.725-7.849,11.835c-2.45,4.113-4.825,8.451-7.123,13.016
				c-2.3,4.565-4.718,9.478-7.259,14.738c-0.484,1.028-0.56,1.647-0.227,1.858c0.332,0.213,0.982,0.031,1.951-0.544
				c0.967-0.574,2.207-1.511,3.72-2.812c1.511-1.3,3.235-3.006,5.171-5.124v0c0.727-0.726,1.452-1.466,2.178-2.223
				c0.727-0.755,1.512-1.51,2.359-2.267c0.847-0.756,1.77-1.557,2.768-2.403s2.162-1.754,3.493-2.722
				c1.271-0.906,2.615-1.678,4.037-2.312c1.421-0.635,2.889-1.043,4.401-1.225c2.116-0.24,3.643,0.227,4.582,1.406
				c0.937,1.179,0.892,2.827-0.137,4.942c-0.605,1.271-1.542,2.404-2.812,3.401c-1.271,0.998-2.677,1.891-4.219,2.676
				c-1.543,0.786-3.101,1.437-4.673,1.95c-1.574,0.514-2.994,0.922-4.265,1.224c-0.666,2.117-0.696,3.674-0.091,4.671
				c0.604,0.998,1.692,1.406,3.267,1.225c1.572-0.182,3.522-0.952,5.852-2.312c2.328-1.36,4.854-3.37,7.576-6.031
				c0.544-0.604,1.406-1.511,2.586-2.721c1.179-1.209,2.418-2.449,3.72-3.719c1.3-1.27,2.555-2.479,3.766-3.628
				c1.209-1.147,2.146-1.995,2.812-2.539c0.604-0.483,1.284-0.726,2.041-0.726c0.608,0,1.13,0.125,1.602,0.32
				c-5.751-32.589-34.197-57.353-68.448-57.353c-36.418,0-66.276,27.994-69.263,63.625c1.164-1.158,2.303-2.271,3.417-3.328
				C461.264,284.162,462.231,283.314,462.957,282.771z M539.353,269.438c0.604-1.329,1.693-2.721,3.267-4.172
				c0.604-0.544,1.375-0.892,2.313-1.043c0.938-0.15,1.754-0.104,2.45,0.136c0.694,0.243,1.089,0.681,1.18,1.315
				s-0.408,1.438-1.497,2.403c-0.242,0.182-0.605,0.575-1.089,1.18c-0.485,0.604-1.044,1.194-1.679,1.769
				c-0.635,0.575-1.302,1.028-1.996,1.36c-0.696,0.333-1.347,0.317-1.951-0.046C539.081,271.736,538.748,270.769,539.353,269.438z
				 M578.367,296.464l-0.545-1.087L578.367,296.464C578.366,296.465,578.366,296.464,578.367,296.464z M595.515,285.763
				c0.423-0.726,0.529-1.374,0.317-1.949c-0.212-0.574-0.59-1.013-1.134-1.315c-0.106-0.059-0.235-0.085-0.35-0.133
				c0.248,1.409,0.46,2.83,0.623,4.267C595.152,286.341,595.334,286.06,595.515,285.763z M606.403,283.405
				c-0.425-0.483-1.014-0.71-1.77-0.681c-0.757,0.031-1.634,0.408-2.632,1.134s-2.072,1.966-3.221,3.719
				c-0.182,0.303-0.349,0.589-0.499,0.861c-0.151,0.272-0.288,0.53-0.408,0.771c-0.75,0.488-1.601,1.091-2.534,1.791
				c0.03,0.612,0.032,1.231,0.047,1.847c0.378-0.253,0.756-0.508,1.126-0.736c-0.726,1.996-0.893,3.583-0.499,4.762
				c0.393,1.18,1.104,1.936,2.133,2.268c1.027,0.333,2.207,0.272,3.538-0.182c1.33-0.453,2.601-1.283,3.811-2.494l-0.544-1.088
				c-1.331,1.27-2.541,2.086-3.629,2.448c-1.089,0.363-1.906,0.304-2.45-0.181c-0.544-0.483-0.741-1.36-0.59-2.631
				c0.15-1.27,0.771-2.871,1.86-4.807c1.089-0.422,2.268-0.876,3.538-1.36c1.148-0.362,1.98-0.892,2.495-1.587
				c0.514-0.694,0.785-1.391,0.816-2.086C607.022,284.479,606.825,283.89,606.403,283.405z"/>
		</g>
	</g>
</g>
<g id="Rectangle_4_1_" opacity="0.6" enable-background="new    ">
	<g id="Rectangle_4">
		<g>
			<path fill="#3089CD" d="M31,0v596h995V0H31z M271,584H43V12h228V584z M521,584H283V12h238V584z M769,584H533V12h236V584z
				 M1014,584H781V12h233V584z"/>
		</g>
	</g>
</g>
</svg>
